<svg width="119" height="31" viewBox="0 0 119 31" fill="none" xmlns="http://www.w3.org/2000/svg">
<path d="M2.94104 28.3251H28.5911V2.67505H2.94104V28.3251ZM23.6541 13.032H18.2341V7.61205H23.6541V13.032ZM7.87704 7.61205H13.3001V17.968H23.6541V23.3881H7.87704V7.61205ZM45.2941 2.67505C42.7575 2.67505 40.2779 3.42723 38.1689 4.83646C36.0598 6.24569 34.416 8.24868 33.4453 10.5921C32.4746 12.9356 32.2207 15.5142 32.7155 18.002C33.2104 20.4898 34.4318 22.775 36.2254 24.5686C38.019 26.3623 40.3042 27.5837 42.792 28.0786C45.2799 28.5735 47.8585 28.3195 50.202 27.3489C52.5455 26.3782 54.5484 24.7344 55.9577 22.6252C57.3669 20.5161 58.1191 18.0365 58.1191 15.5C58.1151 12.0998 56.7626 8.84009 54.3583 6.4358C51.954 4.0315 48.6943 2.67902 45.2941 2.67505ZM45.2941 23.3881C43.734 23.3881 42.2089 22.9254 40.9117 22.0586C39.6146 21.1919 38.6035 19.96 38.0065 18.5186C37.4095 17.0773 37.2533 15.4913 37.5576 13.9611C37.862 12.431 38.6133 11.0255 39.7164 9.92239C40.8196 8.81924 42.2251 8.06798 43.7552 7.76362C45.2853 7.45926 46.8713 7.61547 48.3127 8.21249C49.754 8.80951 50.986 9.82054 51.8527 11.1177C52.7195 12.4148 53.1821 13.9399 53.1821 15.5C53.1789 17.5911 52.3468 19.5956 50.8682 21.0742C49.3896 22.5528 47.3851 23.3848 45.2941 23.3881ZM104.013 2.67505C101.476 2.67486 98.9968 3.42686 96.8876 4.83597C94.7784 6.24508 93.1345 8.248 92.1636 10.5914C91.1928 12.9348 90.9386 15.5136 91.4334 18.0014C91.9281 20.4893 93.1495 22.7747 94.9431 24.5683C96.7366 26.362 99.0218 27.5837 101.51 28.0786C103.997 28.5735 106.576 28.3195 108.92 27.3489C111.263 26.3783 113.266 24.7344 114.675 22.6253C116.085 20.5162 116.837 18.0366 116.837 15.5C116.833 12.1 115.481 8.84041 113.077 6.43615C110.673 4.03188 107.413 2.67929 104.013 2.67505ZM104.013 23.3881C102.453 23.3883 100.928 22.9257 99.6305 22.0591C98.3332 21.1925 97.322 19.9606 96.7248 18.5193C96.1276 17.078 95.9713 15.4919 96.2755 13.9617C96.5798 12.4316 97.331 11.026 98.4341 9.92275C99.5372 8.81949 100.943 8.06813 102.473 7.76369C104.003 7.45925 105.589 7.6154 107.03 8.2124C108.472 8.80939 109.704 9.82041 110.571 11.1176C111.437 12.4148 111.9 13.9399 111.9 15.5C111.897 17.5909 111.065 19.5952 109.586 21.0738C108.108 22.5524 106.104 23.3846 104.013 23.3881ZM74.6531 2.67505C72.1165 2.67505 69.6369 3.42723 67.5279 4.83646C65.4188 6.24569 63.775 8.24868 62.8043 10.5921C61.8336 12.9356 61.5797 15.5142 62.0745 18.002C62.5694 20.4898 63.7908 22.775 65.5844 24.5686C67.378 26.3623 69.6632 27.5837 72.151 28.0786C74.6388 28.5735 77.2175 28.3195 79.561 27.3489C81.9045 26.3782 83.9074 24.7344 85.3167 22.6252C86.7259 20.5161 87.4781 18.0365 87.4781 15.5C87.4741 12.0998 86.1216 8.84009 83.7173 6.4358C81.313 4.0315 78.0533 2.67902 74.6531 2.67505ZM74.6531 23.3881C73.1995 23.3888 71.7741 22.9879 70.534 22.2295C69.294 21.4712 68.2875 20.3852 67.6258 19.091C66.9642 17.7968 66.6729 16.3448 66.7843 14.8956C66.8957 13.4463 67.4053 12.056 68.257 10.8781C69.1087 9.70031 70.2693 8.78066 71.6106 8.22076C72.952 7.66085 74.422 7.48247 75.8583 7.70529C77.2947 7.92812 78.6415 8.54348 79.7502 9.48347C80.8589 10.4234 81.6863 11.6515 82.1411 13.032H74.6531V17.968H82.1411C81.6202 19.5433 80.6166 20.9148 79.2725 21.8876C77.9285 22.8605 76.3123 23.3853 74.6531 23.3881Z" fill="#475569"/>
</svg>
