<svg width="70" height="45" viewBox="0 0 70 45" fill="none" xmlns="http://www.w3.org/2000/svg">
<g clip-path="url(#clip0_29_569)">
<path d="M65.5268 5.90847C65.5268 5.95977 65.5268 6.0239 65.5137 6.06238C65.4481 6.56259 65.4481 7.0628 65.4874 7.57584C65.5137 7.7041 65.5399 7.83236 65.6449 7.93497C65.8154 8.12735 66.0777 8.08888 66.1827 7.85801C66.2352 7.74258 66.2352 7.62714 66.2089 7.51171C66.0777 7.02432 66.0515 6.51129 66.0384 6.01107C66.0384 5.98542 66.0384 5.94694 66.0384 5.90847C66.1827 5.89564 66.3139 5.88281 66.4319 5.88281C66.5238 5.86999 66.6025 5.85716 66.6681 5.81868C66.8648 5.71608 66.8648 5.49804 66.6549 5.39543C66.5762 5.35695 66.4713 5.34412 66.3795 5.34412C66.0515 5.35695 65.7236 5.35695 65.3956 5.35695C65.2776 5.35695 65.1595 5.36978 65.0414 5.3826C64.9758 5.39543 64.8971 5.39543 64.8447 5.43391C64.7528 5.47238 64.7004 5.53651 64.7004 5.62629C64.7135 5.71608 64.7528 5.76738 64.8447 5.80586C64.8971 5.84434 64.9627 5.85716 65.0283 5.85716C65.1857 5.86999 65.3563 5.89564 65.5268 5.90847ZM69.1342 6.49846C69.1342 6.51129 69.1473 6.52411 69.1473 6.52411C69.1998 6.87041 69.2523 7.20389 69.2916 7.53736C69.3048 7.65279 69.3179 7.7554 69.3966 7.84518C69.5671 8.06322 69.8295 8.03757 69.9475 7.80671C70 7.69127 70.0131 7.57584 69.9869 7.44758C69.9082 7.0628 69.8688 6.67802 69.7901 6.30607C69.7376 6.0752 69.6721 5.85716 69.6065 5.65195C69.5671 5.52369 69.4753 5.4339 69.3179 5.42108C69.1605 5.39543 69.0424 5.47238 68.9768 5.58782C68.8981 5.69042 68.8325 5.79303 68.78 5.90847C68.6882 6.11368 68.6095 6.3189 68.5046 6.51129C68.4914 6.56259 68.4783 6.60107 68.4521 6.63954C68.439 6.61389 68.4259 6.60107 68.4259 6.60107C68.2553 6.28042 68.0979 5.95977 67.9274 5.65195C67.9011 5.62629 67.888 5.60064 67.8749 5.57499C67.7962 5.45956 67.7044 5.39543 67.5601 5.39543C67.4289 5.40825 67.3239 5.48521 67.2584 5.60064C67.2321 5.65195 67.2321 5.69042 67.219 5.74173C67.1665 6.15216 67.1009 6.56259 67.0485 6.97302C67.0222 7.20389 67.0091 7.43475 67.0091 7.66562C66.996 7.71692 67.0091 7.78105 67.0353 7.83236C67.0616 7.93496 67.1403 7.9991 67.2452 8.01192C67.3764 8.02475 67.4682 7.98627 67.5076 7.88366C67.5469 7.80671 67.5601 7.74258 67.5732 7.67845C67.6257 7.44758 67.665 7.22954 67.7044 7.0115C67.7306 6.88324 67.7437 6.78063 67.7831 6.63954C67.8093 6.69085 67.8355 6.72933 67.8618 6.7678C67.9798 6.92172 68.0979 7.07563 68.2422 7.20389C68.3865 7.30649 68.5046 7.29367 68.6226 7.17823C68.6489 7.15258 68.662 7.13976 68.6882 7.1141C68.8063 6.93454 68.9506 6.75498 69.0686 6.57541C69.0949 6.54976 69.108 6.52411 69.1342 6.49846Z" fill="#4C1D95"/>
<path d="M38.9087 6.16053C38.8175 6.40428 38.8001 6.57989 38.8422 6.72585C38.8887 6.92433 39.0094 6.98931 39.1732 6.93883C40.714 6.5663 44.0927 7.6237 45.3436 7.91841C45.6386 7.98029 45.8786 7.60794 45.6773 7.2741C45.3835 6.9508 42.0063 5.56663 40.7177 5.49116C40.2126 5.46325 39.3096 5.33661 38.9087 6.16053Z" fill="#4C1D95"/>
<path d="M52.1133 1.67977C52.2775 1.77244 52.3693 1.86084 52.4146 1.95961C52.4821 2.08917 52.4465 2.17881 52.3331 2.22455C51.3146 2.71057 49.9593 4.80298 49.4122 5.52463C49.2796 5.69064 48.9737 5.59417 48.9275 5.32117C48.937 5.01249 50.1384 2.74176 50.8089 2.12329C51.0724 1.88182 51.5077 1.40803 52.1133 1.67977Z" fill="#4C1D95"/>
<path d="M44.0023 0.649796C44.1996 0.504419 44.4046 0.453474 44.5093 0.547951C46.046 1.8329 46.8609 3.86773 47.3655 5.73057C47.3845 5.77397 47.3857 5.83625 47.3705 5.90122C47.3642 5.95675 47.3227 6.01541 47.2568 6.0608C47.1864 6.11091 47.1258 6.12617 47.0973 6.08299C46.4238 5.18732 42.5771 1.70242 44.0023 0.649796Z" fill="#4C1D95"/>
<path d="M11.461 22.9277C11.8293 22.6596 12.2297 22.4364 12.6534 22.2632C13.0967 22.1393 13.5692 22.1598 13.9995 22.3218C14.4297 22.4838 14.7944 22.7783 15.0382 23.1609C15.2563 23.5425 15.3416 23.9831 15.2814 24.4163C15.2212 24.8494 15.0187 25.2517 14.7043 25.5626C14.4606 25.8146 14.1839 26.0341 13.8816 26.2155C12.5342 27.0666 11.1748 27.871 9.81547 28.7221C9.53732 28.9351 9.24225 29.1262 8.93308 29.2934C8.46281 29.5227 7.92537 29.5841 7.41368 29.467C6.902 29.35 6.44826 29.0617 6.13092 28.6522C5.89369 28.3622 5.69348 28.0451 5.53471 27.7078C4.24691 25.0613 2.91142 22.4264 1.67131 19.7332C1.09895 18.5674 0.633913 17.2266 0.180798 15.9325C-0.0152406 15.5565 -0.0535225 15.1206 0.0741037 14.7174C0.20173 14.3142 0.485195 13.9756 0.864201 13.7736C1.24321 13.5716 1.68785 13.5222 2.10357 13.6358C2.51929 13.7494 2.87329 14.0171 3.09027 14.3819C3.75722 15.2485 4.34761 16.169 4.85504 17.1334C6.14284 19.4651 7.37103 21.7968 8.61113 24.0586C8.68334 24.1836 8.76296 24.3042 8.84961 24.42C9.783 24.0363 10.6609 23.5346 11.461 22.9277Z" fill="#4C1D95"/>
<path d="M24.7761 22.1142C21.8309 25.4835 16.8943 24.6324 14.4141 20.2954C12.6493 17.2175 12.3393 12.1343 16.1789 8.92819C16.9988 8.25696 17.9792 7.79971 19.0287 7.59909C20.3155 7.41872 21.6277 7.64068 22.7777 8.23326C23.9277 8.82584 24.8567 9.7587 25.432 10.8985C27.5306 14.6293 27.2325 19.386 24.7761 22.1142ZM23.5837 14.2562C23.2708 13.3394 22.6431 12.5567 21.807 12.041C21.3339 11.7113 20.759 11.551 20.1792 11.5871C19.5993 11.6232 19.0499 11.8535 18.6233 12.2392C16.9182 13.7199 16.5604 17.2292 17.8005 19.3161C17.9586 19.6564 18.1907 19.9588 18.4808 20.2022C18.7709 20.4456 19.1119 20.6241 19.4799 20.7251C19.8479 20.8262 20.234 20.8474 20.6113 20.7873C20.9886 20.7271 21.3478 20.5871 21.664 20.377C22.5883 19.6763 23.2664 18.7115 23.604 17.6167C23.9417 16.5218 23.9221 15.3513 23.548 14.2679L23.5837 14.2562Z" fill="#4C1D95"/>
<path d="M36.7955 15.7252C36.494 15.7886 36.1825 15.7924 35.8794 15.7363C35.5764 15.6802 35.2878 15.5655 35.0308 15.3988C34.8059 15.273 34.6123 15.1001 34.4639 14.8924C34.3156 14.6847 34.2162 14.4475 34.1729 14.1977C34.1295 13.948 34.1434 13.692 34.2133 13.4481C34.2833 13.2042 34.4078 12.9785 34.5777 12.7872C34.8737 12.4028 35.2939 12.1276 35.7701 12.0061C37.0134 11.6533 38.2933 11.4382 39.5858 11.3649C39.8698 11.3326 40.1575 11.3561 40.432 11.434C40.7066 11.512 40.9624 11.6427 41.1846 11.8187C41.4067 11.9946 41.5907 12.2122 41.7257 12.4586C41.8606 12.705 41.9439 12.9753 41.9706 13.2536C42.3432 14.6206 42.384 16.0539 42.0898 17.4391C41.0167 21.916 37.3202 23.4549 33.1706 22.0209C32.0058 21.6375 30.9845 20.9231 30.2373 19.969C29.2407 18.82 28.5341 17.4583 28.1744 15.9934C27.883 14.6889 27.9149 13.3353 28.2676 12.0454C28.6202 10.7555 29.2833 9.56676 30.2015 8.57846C31.0729 7.50429 32.2039 6.65892 33.4926 6.11847C34.3069 5.67962 35.2598 5.55484 36.1636 5.76871C36.3686 5.82419 36.5547 5.93229 36.7026 6.0818C36.8505 6.23132 36.9548 6.41679 37.0047 6.619C37.0546 6.8212 37.0482 7.03277 36.9863 7.23177C36.9243 7.43076 36.8091 7.60993 36.6525 7.75069C36.3547 8.01424 36.0312 8.24854 35.6866 8.45021C34.6265 9.11028 33.704 9.96083 32.9679 10.9568C32.4854 11.6013 32.1531 12.3414 31.9945 13.1249C31.8358 13.9084 31.8547 14.7164 32.0498 15.4921C32.3202 16.5497 32.9203 17.499 33.7668 18.2085C36.3901 20.5403 39.8004 18.2901 39.2042 15.1073C38.3338 15.3172 37.5706 15.5387 36.7955 15.7252Z" fill="#4C1D95"/>
<path d="M52.8217 22.3007C48.9464 24.6325 44.5345 22.3007 43.5686 17.4041C42.8651 13.9065 44.2006 9.00979 48.8749 7.1444C49.8694 6.75605 50.9481 6.6197 52.0109 6.748C53.2878 6.97655 54.4592 7.59118 55.3598 8.50525C56.2604 9.41931 56.845 10.5867 57.0309 11.8429C57.8179 16.005 56.0293 20.447 52.8217 22.3007ZM54.1692 14.4544C54.168 13.4859 53.8176 12.5487 53.1795 11.8079C52.8384 11.3497 52.3453 11.0214 51.7843 10.8789C51.2232 10.7365 50.6291 10.7887 50.103 11.0268C48.0044 11.9128 46.5258 15.1306 47.0624 17.4974C47.1034 17.8688 47.2268 18.227 47.4241 18.5469C47.6214 18.8668 47.8878 19.1407 48.2047 19.3495C48.5215 19.5582 48.8812 19.6968 49.2585 19.7555C49.6359 19.8141 50.0218 19.7915 50.3892 19.6892C51.4985 19.3103 52.459 18.6022 53.1366 17.6637C53.8143 16.7252 54.1753 15.6032 54.1692 14.4544Z" fill="#4C1D95"/>
<path d="M60.9499 23.2802C60.8914 23.7069 60.662 24.0934 60.312 24.3547C59.962 24.6159 59.5202 24.7306 59.0838 24.6734C58.6474 24.6162 58.2521 24.3918 57.9849 24.0496C57.7176 23.7075 57.6004 23.2755 57.6589 22.8488C57.7174 22.4221 57.9469 22.0356 58.2968 21.7743C58.6468 21.513 59.0886 21.3984 59.525 21.4556C59.9614 21.5128 60.3567 21.7371 60.624 22.0793C60.8912 22.4215 61.0085 22.8535 60.9499 23.2802ZM59.9125 7.55253C60.1393 7.21388 60.472 6.95598 60.861 6.81731C61.2499 6.67864 61.6743 6.66662 62.0708 6.78305C62.4739 6.88166 62.83 7.11267 63.0797 7.4374C63.3293 7.76214 63.4572 8.16088 63.4421 8.56684C63.3895 9.21801 63.2899 9.86473 63.144 10.5022C62.7505 12.6591 62.3689 14.8159 61.9516 16.9495C61.7608 17.8006 61.5104 18.6167 61.2361 19.4794C61.1407 19.7491 60.9813 19.9928 60.7711 20.1906C60.6404 20.3394 60.4735 20.4535 60.2857 20.5224C60.0979 20.5914 59.8954 20.6129 59.6969 20.585C59.4984 20.5571 59.3102 20.4807 59.1499 20.3629C58.9896 20.245 58.8623 20.0895 58.7798 19.9108C58.638 19.5902 58.561 19.2457 58.5532 18.8965C58.5532 17.4508 58.5532 15.9935 58.6486 14.5361C58.8107 12.4563 59.1295 10.3909 59.6025 8.35697C59.6582 8.08447 59.7631 7.82388 59.9125 7.5875V7.55253Z" fill="#4C1D95"/>
<path fill-rule="evenodd" clip-rule="evenodd" d="M6.42312 32.6488C6.28233 32.9561 6.24372 33.2987 6.31252 33.6284C6.35829 34.063 6.45882 34.4905 6.61182 34.9011C6.80284 35.4039 7.01659 35.9011 7.28015 36.5139C7.34076 36.6549 7.4041 36.8021 7.47038 36.957C7.8258 37.7872 8.27176 38.8482 8.86661 40.3837C9.03498 40.8199 9.18449 41.2597 9.33505 41.7025C9.39587 41.8814 9.45691 42.0609 9.51939 42.2408C9.74335 42.8804 10.1287 43.455 10.6395 43.9104C10.8564 44.1607 11.1441 44.3431 11.4667 44.4343C11.7956 44.5273 12.1454 44.5214 12.4708 44.4174C12.7962 44.3133 13.082 44.1159 13.2911 43.8508C13.4961 43.5909 13.618 43.2777 13.6417 42.9505C13.7747 42.3131 13.7293 41.6522 13.5101 41.0377C13.1622 40.0174 12.7659 38.9956 12.3089 37.9962L12.3068 37.9918C11.555 36.4282 10.7908 34.8754 9.99045 33.322L9.98446 33.3111C9.75016 32.9064 9.44567 32.5446 9.08467 32.242C8.85031 31.9719 8.52704 31.7897 8.17004 31.7269C7.80543 31.6628 7.42939 31.7274 7.10905 31.9093C6.80601 32.0785 6.56579 32.3374 6.42312 32.6488Z" fill="#4C1D95"/>
<path fill-rule="evenodd" clip-rule="evenodd" d="M17.9057 28.7986C16.7269 28.5001 15.4958 28.4566 14.2982 28.6712C13.3706 28.7605 12.4583 28.9697 11.8248 29.3841C11.5026 29.595 11.2421 29.8658 11.0972 30.21C10.9515 30.5561 10.9329 30.9519 11.0523 31.3929C11.2703 32.2007 11.5534 32.9861 11.8355 33.769L11.8812 33.8958L11.8823 33.8986C12.7317 36.173 13.5892 38.4397 14.4545 40.6986C14.5554 41.0546 14.6981 41.398 14.8797 41.7219L14.8831 41.7279C15.123 42.1303 15.4307 42.4902 15.7932 42.7925C15.9745 42.9587 16.1987 43.0737 16.4418 43.1251C16.6873 43.1769 16.9426 43.1619 17.1799 43.0815C17.4173 43.0012 17.6275 42.8587 17.7877 42.6695C17.9453 42.4834 18.0485 42.2592 18.0864 42.0206C18.2428 41.3724 18.1927 40.6929 17.9427 40.0733C17.8647 39.8648 17.8035 39.6517 17.739 39.4274C17.7175 39.3526 17.6957 39.2765 17.6727 39.199C19.6534 38.442 21.7609 37.4241 22.502 35.0561C22.7922 34.2378 22.8164 33.3517 22.5712 32.5193C22.3258 31.686 21.8223 30.9474 21.1301 30.4052C20.188 29.6462 19.0875 29.0978 17.9057 28.7986ZM14.6382 31.7031C14.6772 31.6921 14.7165 31.6819 14.7559 31.6724C16.0454 31.4742 17.3647 31.7383 18.4709 32.4159C18.9584 32.7474 19.1581 33.1157 19.1924 33.4701C19.2278 33.835 19.0921 34.2304 18.8195 34.6105C18.3044 35.3285 17.3644 35.9032 16.5153 36.0103C15.8963 34.6165 15.2677 33.1663 14.6382 31.7031Z" fill="#4C1D95"/>
<path d="M25.7646 26.2473C27.1684 25.6134 28.9073 25.5039 30.268 25.9496C30.6107 26.0472 30.908 26.2583 31.1091 26.5468C31.3089 26.8335 31.4011 27.179 31.3703 27.5244C31.3683 27.7486 31.312 27.9692 31.2061 28.1682C31.0983 28.3708 30.9422 28.545 30.751 28.6762C30.5598 28.8073 30.3391 28.8916 30.1076 28.9217C29.876 28.9519 29.6405 28.9271 29.4208 28.8494L29.4041 28.8435L29.3884 28.8354C29.276 28.7779 29.1566 28.7346 29.0331 28.7064L29.0253 28.7047C28.0681 28.4561 27.1652 28.868 26.8354 29.3741C26.6781 29.6154 26.6586 29.859 26.7896 30.0806C26.9299 30.3179 27.274 30.5842 27.9703 30.774C28.1618 30.8254 28.3581 30.875 28.5572 30.9254C29.1078 31.0648 29.68 31.2096 30.2333 31.4103L30.2354 31.4111C32.788 32.3607 33.7385 34.3274 33.4131 36.1772C33.0912 38.0065 31.5287 39.6713 29.179 40.064C28.324 40.2493 27.4342 40.2132 26.5977 39.9593C25.7591 39.7046 25.0032 39.2399 24.4051 38.6111L24.3895 38.5947C24.2007 38.3578 24.0737 38.0795 24.0174 37.7842C23.9656 37.5177 23.9929 37.2423 24.0959 36.9904C24.1983 36.74 24.3715 36.5233 24.595 36.3654C24.8311 36.1864 25.1157 36.079 25.4136 36.0566C25.7105 36.0343 26.0076 36.0974 26.2683 36.238C26.5287 36.361 26.7709 36.5179 26.9883 36.7045L26.9924 36.7079C27.377 37.0518 27.8423 37.1414 28.2885 37.0584C28.7412 36.9742 29.1669 36.7123 29.4407 36.3648C29.7127 36.0195 29.8219 35.6093 29.6923 35.2111C29.5619 34.81 29.1698 34.3606 28.3083 33.9849C28.0831 33.8914 27.8496 33.816 27.6067 33.7426C27.5412 33.7228 27.4746 33.7031 27.4072 33.6831C27.2276 33.6298 27.0428 33.5749 26.8616 33.5144C26.7368 33.4728 26.613 33.4334 26.4904 33.3943C26.1553 33.2876 25.8286 33.1836 25.5142 33.0441C24.8299 32.8163 24.2387 32.3789 23.8286 31.7966C23.4168 31.212 23.2096 30.5129 23.2378 29.8037C23.24 28.0754 24.3533 26.8847 25.7646 26.2473Z" fill="#4C1D95"/>
<path d="M43.5619 26.0632C43.2897 25.9332 42.9887 25.8715 42.6861 25.8836C42.3834 25.8958 42.0886 25.9814 41.8283 26.1329C41.5696 26.2833 41.353 26.4939 41.1978 26.746C41.0555 26.9583 40.957 27.1957 40.9079 27.445C40.8588 27.6941 40.86 27.9501 40.9113 28.1986C40.962 28.518 41.0182 28.8286 41.0737 29.1349C41.1656 29.6418 41.255 30.1373 41.314 30.6425L41.3162 30.6553C41.4505 31.4476 41.5208 32.2489 41.5271 33.0519L41.5277 33.0633C41.5736 33.9305 41.2714 34.7808 40.6859 35.4338L40.6766 35.4454C40.4861 35.6841 40.2314 35.8663 39.9409 35.9716C39.6505 36.0769 39.3359 36.1011 39.0322 36.0415C38.7285 35.9819 38.4478 35.8409 38.2214 35.6342C37.995 35.4275 37.8317 35.1625 37.7502 34.8704C37.5762 34.2547 37.4755 33.6214 37.4499 32.9832L37.7471 28.3569C37.7515 28.2965 37.7565 28.2345 37.7616 28.1719C37.7729 28.0314 37.7845 27.8883 37.7893 27.7548C37.7963 27.5584 37.7903 27.3564 37.7435 27.1652C37.6956 26.9698 37.6045 26.7839 37.4429 26.6256C37.2829 26.4689 37.0669 26.3533 36.7951 26.2746C36.3036 26.1355 35.888 26.1399 35.5417 26.2836C35.1952 26.4273 34.9578 26.6941 34.7898 27.0023C34.6231 27.3079 34.516 27.6697 34.435 28.0321C34.3749 28.301 34.3266 28.5833 34.2807 28.852C34.2648 28.9446 34.2493 29.0355 34.2336 29.1238L34.2332 29.1264C33.9876 30.6 33.9145 32.0962 34.0153 33.586C34.0341 34.3911 34.2058 35.1858 34.5218 35.9295C34.8783 36.8891 35.524 37.7205 36.3737 38.314C37.2252 38.9087 38.2413 39.2364 39.2875 39.2537C40.3337 39.271 41.3606 38.9771 42.2322 38.411C43.1024 37.8457 43.7768 37.0355 44.1662 36.0876C44.7109 34.8801 44.9667 33.5669 44.9139 32.2481C44.8819 31.2853 44.8283 30.3151 44.775 29.3498C44.7488 28.8763 44.7227 28.4038 44.6993 27.9342C44.6875 27.4633 44.5287 27.0072 44.2441 26.6271C44.068 26.3868 43.8336 26.193 43.5619 26.0632Z" fill="#4C1D95"/>
<path d="M53.1961 33.3173C53.1685 33.3516 53.1394 33.3871 53.109 33.424C52.8876 32.1752 52.6824 30.9268 52.4769 29.6765C52.4032 29.2279 52.3291 28.7774 52.2546 28.3282L52.2462 28.2781L52.219 28.2348C52.1677 28.1533 52.1626 28.0734 52.1626 27.903V27.8833L52.1595 27.8638C52.1039 27.5119 51.9411 27.1844 51.6924 26.9242C51.4444 26.6647 51.1223 26.4841 50.768 26.4057C50.4143 26.3204 50.0426 26.3392 49.6997 26.4598C49.3577 26.5801 49.0596 26.7963 48.8426 27.0813C48.6622 27.3 48.5143 27.5426 48.4035 27.8018C48.152 28.3602 47.8983 28.92 47.6439 29.4813L47.6395 29.491C47.0044 30.8923 46.365 32.303 45.7442 33.7248L45.7423 33.7294C45.3612 34.6513 45.0466 35.6227 44.7331 36.5911C44.6705 36.7844 44.6079 36.9776 44.5448 37.1703C44.4316 37.4759 44.3821 37.8005 44.3991 38.125C44.3785 38.4155 44.4496 38.7053 44.603 38.9552C44.7594 39.2102 44.9937 39.4108 45.2728 39.5289C45.5686 39.6557 45.8993 39.6826 46.2126 39.6054C46.5252 39.5283 46.8028 39.3519 47.0017 39.1039C47.2557 38.7984 47.4742 38.4652 47.6524 38.1122C48.1783 37.0604 48.6809 35.9958 49.1812 34.9358C49.3748 34.5258 49.5629 34.1586 49.7769 33.7587C49.7916 33.808 49.8066 33.8561 49.8221 33.9043C50.0464 34.8698 50.425 35.7946 50.9439 36.6448C51.0421 36.8249 51.1789 36.9823 51.3449 37.1062C51.5129 37.2316 51.7068 37.3196 51.9131 37.3643C52.1194 37.409 52.3332 37.4092 52.5396 37.3649C52.7457 37.3207 52.9402 37.2326 53.1083 37.1078L53.441 36.8643L56.0233 34.7376L55.8706 35.6891C55.661 36.997 55.453 38.294 55.232 39.5913C55.0874 40.1663 55.0876 40.7669 55.2326 41.3417C55.2954 41.6652 55.4554 41.963 55.6922 42.1972C55.931 42.4333 56.2368 42.5937 56.57 42.6577C56.9032 42.7216 57.2484 42.6862 57.5607 42.5559C57.8685 42.4276 58.1303 42.213 58.3133 41.9395C58.7391 41.423 59.0041 40.7977 59.0769 40.138C59.1865 39.2064 59.3103 38.2621 59.4342 37.3181C59.5769 36.23 59.7196 35.1422 59.8401 34.0753L59.8405 34.072C59.9565 32.9041 60.0126 31.7314 60.0087 30.558C60.0341 30.1872 59.9397 29.8178 59.7385 29.5021C59.5366 29.1853 59.2376 28.939 58.8842 28.7981C58.5166 28.6347 58.1051 28.591 57.7102 28.6736C57.3179 28.7556 56.9628 28.9578 56.6964 29.2507C56.2201 29.6814 55.7733 30.1423 55.3588 30.6304L55.356 30.6337C54.9035 31.185 54.4541 31.7471 54.0076 32.3056C53.7361 32.6451 53.4654 32.9838 53.1961 33.3173Z" fill="#4C1D95"/>
</g>
<defs>
<clipPath id="clip0_29_569">
<rect width="70" height="44" fill="white" transform="translate(0 0.5)"/>
</clipPath>
</defs>
</svg>
