<svg width="200" height="342" viewBox="0 0 200 342" fill="none" xmlns="http://www.w3.org/2000/svg">
<g clip-path="url(#clip0_29_864)">
<rect width="200" height="342" rx="20" fill="white"/>
<path d="M246 246.5C246 271.077 226.301 291 202 291C177.699 291 158 271.077 158 246.5C158 221.923 177.699 202 202 202C226.301 202 246 221.923 246 246.5Z" fill="white"/>
<path fill-rule="evenodd" clip-rule="evenodd" d="M202 288C224.612 288 243 269.452 243 246.5C243 223.548 224.612 205 202 205C179.388 205 161 223.548 161 246.5C161 269.452 179.388 288 202 288ZM202 291C226.301 291 246 271.077 246 246.5C246 221.923 226.301 202 202 202C177.699 202 158 221.923 158 246.5C158 271.077 177.699 291 202 291Z" fill="#BFDBFE"/>
<path d="M166 120.5C166 153.361 139.585 180 107 180C74.4152 180 48 153.361 48 120.5C48 87.6391 74.4152 61 107 61C139.585 61 166 87.6391 166 120.5Z" fill="#BFDBFE"/>
<path d="M37 235L39.8214 243.117L48.4127 243.292L41.5651 248.483L44.0534 256.708L37 251.8L29.9466 256.708L32.4349 248.483L25.5873 243.292L34.1786 243.117L37 235Z" fill="#FACC15"/>
<path d="M78 235L80.8214 243.117L89.4127 243.292L82.5651 248.483L85.0534 256.708L78 251.8L70.9466 256.708L73.4349 248.483L66.5873 243.292L75.1786 243.117L78 235Z" fill="#FACC15"/>
<path d="M119 235L121.821 243.117L130.413 243.292L123.565 248.483L126.053 256.708L119 251.8L111.947 256.708L114.435 248.483L107.587 243.292L116.179 243.117L119 235Z" fill="#FACC15"/>
<path d="M160 235L162.821 243.117L171.413 243.292L164.565 248.483L167.053 256.708L160 251.8L152.947 256.708L155.435 248.483L148.587 243.292L157.179 243.117L160 235Z" fill="#FACC15"/>
<path d="M201 235L203.821 243.117L212.413 243.292L205.565 248.483L208.053 256.708L201 251.8L193.947 256.708L196.435 248.483L189.587 243.292L198.179 243.117L201 235Z" fill="#FACC15"/>
</g>
<defs>
<clipPath id="clip0_29_864">
<rect width="200" height="342" rx="20" fill="white"/>
</clipPath>
</defs>
</svg>
