<svg width="392" height="164" viewBox="0 0 392 164" fill="none" xmlns="http://www.w3.org/2000/svg">
<g clip-path="url(#clip0_29_491)">
<rect width="120" height="164" rx="20" fill="white"/>
<path d="M79.9355 164.142C79.9355 205.641 46.4904 239.283 5.23384 239.283C-36.0227 239.283 -69.4678 205.641 -69.4678 164.142C-69.4678 122.642 -36.0227 89 5.23384 89C46.4904 89 79.9355 122.642 79.9355 164.142Z" fill="#FACC15"/>
<path d="M99.9193 49.2968C99.9193 64.3635 87.7769 76.5775 72.7984 76.5775C57.8199 76.5775 45.6774 64.3635 45.6774 49.2968C45.6774 34.2301 57.8199 22.0161 72.7984 22.0161C87.7769 22.0161 99.9193 34.2301 99.9193 49.2968Z" fill="white"/>
<path fill-rule="evenodd" clip-rule="evenodd" d="M72.7984 73.5775C86.1034 73.5775 96.9193 62.7233 96.9193 49.2968C96.9193 35.8703 86.1034 25.0161 72.7984 25.0161C59.4933 25.0161 48.6774 35.8703 48.6774 49.2968C48.6774 62.7233 59.4933 73.5775 72.7984 73.5775ZM72.7984 76.5775C87.7769 76.5775 99.9193 64.3635 99.9193 49.2968C99.9193 34.2301 87.7769 22.0161 72.7984 22.0161C57.8199 22.0161 45.6774 34.2301 45.6774 49.2968C45.6774 64.3635 57.8199 76.5775 72.7984 76.5775Z" fill="#BFDBFE"/>
</g>
<rect x="136" width="120" height="164" rx="20" fill="white"/>
<path d="M239.548 44.0321C239.548 51.4333 233.482 57.4332 226 57.4332C218.517 57.4332 212.452 51.4333 212.452 44.0321C212.452 36.6309 218.517 30.631 226 30.631C233.482 30.631 239.548 36.6309 239.548 44.0321Z" fill="#FACC15"/>
<path d="M218.258 117.259C218.258 132.326 205.91 144.54 190.677 144.54C175.445 144.54 163.097 132.326 163.097 117.259C163.097 102.193 175.445 89.9786 190.677 89.9786C205.91 89.9786 218.258 102.193 218.258 117.259Z" fill="#BFDBFE"/>
<path fill-rule="evenodd" clip-rule="evenodd" d="M190.677 141.54C204.284 141.54 215.258 130.638 215.258 117.259C215.258 103.88 204.284 92.9786 190.677 92.9786C177.071 92.9786 166.097 103.88 166.097 117.259C166.097 130.638 177.071 141.54 190.677 141.54ZM190.677 144.54C205.91 144.54 218.258 132.326 218.258 117.259C218.258 102.193 205.91 89.9786 190.677 89.9786C175.445 89.9786 163.097 102.193 163.097 117.259C163.097 132.326 175.445 144.54 190.677 144.54Z" fill="#BFDBFE"/>
<rect x="272" width="120" height="164" rx="20" fill="white"/>
<path d="M385.242 71.3129C385.242 86.3796 373.099 98.5936 358.121 98.5936C343.142 98.5936 331 86.3796 331 71.3129C331 56.2461 343.142 44.0321 358.121 44.0321C373.099 44.0321 385.242 56.2461 385.242 71.3129Z" fill="white"/>
<path fill-rule="evenodd" clip-rule="evenodd" d="M358.121 95.5936C371.426 95.5936 382.242 84.7394 382.242 71.3129C382.242 57.8863 371.426 47.0321 358.121 47.0321C344.816 47.0321 334 57.8863 334 71.3129C334 84.7394 344.816 95.5936 358.121 95.5936ZM358.121 98.5936C373.099 98.5936 385.242 86.3796 385.242 71.3129C385.242 56.2461 373.099 44.0321 358.121 44.0321C343.142 44.0321 331 56.2461 331 71.3129C331 86.3796 343.142 98.5936 358.121 98.5936Z" fill="#BFDBFE"/>
<path d="M318 42L327.405 69.0557L356.042 69.6393L333.217 86.9443L341.511 114.361L318 98L294.489 114.361L302.783 86.9443L279.958 69.6393L308.595 69.0557L318 42Z" fill="white"/>
<path fill-rule="evenodd" clip-rule="evenodd" d="M327.405 69.0557L318 42L308.595 69.0557L279.958 69.6393L302.783 86.9443L294.489 114.361L318 98L341.511 114.361L333.217 86.9443L356.042 69.6393L327.405 69.0557ZM347.352 72.4629L325.256 72.0126L318 51.1372L310.744 72.0126L288.648 72.4629L306.259 85.8149L299.859 106.969L318 94.3451L336.141 106.969L329.741 85.8149L347.352 72.4629Z" fill="#FACC15"/>
<defs>
<clipPath id="clip0_29_491">
<rect width="120" height="164" rx="20" fill="white"/>
</clipPath>
</defs>
</svg>
