<svg width="200" height="306" viewBox="0 0 200 306" fill="none" xmlns="http://www.w3.org/2000/svg">
<g clip-path="url(#clip0_29_859)">
<rect width="200" height="306" rx="20" fill="white"/>
<path fill-rule="evenodd" clip-rule="evenodd" d="M187.5 345C243.557 345 289 299.557 289 243.5C289 187.443 243.557 142 187.5 142C131.443 142 86 187.443 86 243.5C86 299.557 131.443 345 187.5 345ZM187.5 355C249.08 355 299 305.08 299 243.5C299 181.92 249.08 132 187.5 132C125.92 132 76 181.92 76 243.5C76 305.08 125.92 355 187.5 355Z" fill="#FACC15"/>
<path d="M105 91.2264C105 110.129 89.5538 125.453 70.5 125.453C51.4462 125.453 36 110.129 36 91.2264C36 72.3237 51.4462 57 70.5 57C89.5538 57 105 72.3237 105 91.2264Z" fill="#BFDBFE"/>
<path fill-rule="evenodd" clip-rule="evenodd" d="M70.5 122.453C87.9195 122.453 102 108.45 102 91.2264C102 74.003 87.9195 60 70.5 60C53.0805 60 39 74.003 39 91.2264C39 108.45 53.0805 122.453 70.5 122.453ZM70.5 125.453C89.5538 125.453 105 110.129 105 91.2264C105 72.3237 89.5538 57 70.5 57C51.4462 57 36 72.3237 36 91.2264C36 110.129 51.4462 125.453 70.5 125.453Z" fill="#BFDBFE"/>
</g>
<defs>
<clipPath id="clip0_29_859">
<rect width="200" height="306" rx="20" fill="white"/>
</clipPath>
</defs>
</svg>
