<svg width="85" height="130" viewBox="0 0 85 130" fill="none" xmlns="http://www.w3.org/2000/svg">
<g clip-path="url(#clip0_115_637)">
<rect x="0.620605" y="0.76001" width="83.5846" height="128.52" rx="20" fill="white"/>
<path fill-rule="evenodd" clip-rule="evenodd" d="M78.9812 145.66C102.409 145.66 121.4 126.574 121.4 103.03C121.4 79.4861 102.409 60.4 78.9812 60.4C55.5538 60.4 36.562 79.4861 36.562 103.03C36.562 126.574 55.5538 145.66 78.9812 145.66ZM78.9812 149.86C104.717 149.86 125.58 128.893 125.58 103.03C125.58 77.1665 104.717 56.2 78.9812 56.2C53.2456 56.2 32.3828 77.1665 32.3828 103.03C32.3828 128.893 53.2456 149.86 78.9812 149.86Z" fill="#FACC15"/>
<path d="M44.5027 39.075C44.5027 47.0142 38.0474 53.4501 30.0844 53.4501C22.1213 53.4501 15.666 47.0142 15.666 39.075C15.666 31.1359 22.1213 24.7 30.0844 24.7C38.0474 24.7 44.5027 31.1359 44.5027 39.075Z" fill="#BFDBFE"/>
<path fill-rule="evenodd" clip-rule="evenodd" d="M30.0844 52.1901C37.3644 52.1901 43.2489 46.3088 43.2489 39.075C43.2489 31.8412 37.3644 25.96 30.0844 25.96C22.8043 25.96 16.9198 31.8412 16.9198 39.075C16.9198 46.3088 22.8043 52.1901 30.0844 52.1901ZM30.0844 53.4501C38.0474 53.4501 44.5027 47.0142 44.5027 39.075C44.5027 31.1359 38.0474 24.7 30.0844 24.7C22.1213 24.7 15.666 31.1359 15.666 39.075C15.666 47.0142 22.1213 53.4501 30.0844 53.4501Z" fill="#BFDBFE"/>
</g>
<defs>
<clipPath id="clip0_115_637">
<rect x="0.620605" y="0.76001" width="83.5846" height="128.52" rx="20" fill="white"/>
</clipPath>
</defs>
</svg>
