<svg width="200" height="202" viewBox="0 0 200 202" fill="none" xmlns="http://www.w3.org/2000/svg">
<rect width="200" height="202" rx="20" fill="white"/>
<path fill-rule="evenodd" clip-rule="evenodd" d="M89.9677 150.617C109.907 150.617 125.935 134.602 125.935 115.014C125.935 95.4254 109.907 79.4104 89.9677 79.4104C70.0281 79.4104 54 95.4254 54 115.014C54 134.602 70.0281 150.617 89.9677 150.617ZM89.9677 160.617C115.355 160.617 135.935 140.199 135.935 115.014C135.935 89.8276 115.355 69.4104 89.9677 69.4104C64.5805 69.4104 44 89.8276 44 115.014C44 140.199 64.5805 160.617 89.9677 160.617Z" fill="#BFDBFE"/>
<path d="M110.86 100.579L124.084 51.2245L160.214 87.3545L110.86 100.579Z" fill="#FACC15"/>
</svg>
