<svg width="85" height="86" viewBox="0 0 85 86" fill="none" xmlns="http://www.w3.org/2000/svg">
<rect x="0.578613" y="0.23999" width="83.5846" height="84.84" rx="20" fill="white"/>
<path fill-rule="evenodd" clip-rule="evenodd" d="M38.1783 63.499C46.5115 63.499 53.21 56.7727 53.21 48.5457C53.21 40.3186 46.5115 33.5923 38.1783 33.5923C29.845 33.5923 23.1465 40.3186 23.1465 48.5457C23.1465 56.7727 29.845 63.499 38.1783 63.499ZM38.1783 67.699C48.7882 67.699 57.3892 59.1237 57.3892 48.5457C57.3892 37.9676 48.7882 29.3923 38.1783 29.3923C27.5683 29.3923 18.9673 37.9676 18.9673 48.5457C18.9673 59.1237 27.5683 67.699 38.1783 67.699Z" fill="#BFDBFE"/>
<path d="M46.9092 42.4833L52.436 21.7544L67.5356 36.929L46.9092 42.4833Z" fill="#FACC15"/>
</svg>
