<svg width="85" height="145" viewBox="0 0 85 145" fill="none" xmlns="http://www.w3.org/2000/svg">
<g clip-path="url(#clip0_110_642)">
<rect x="0.578613" y="0.52002" width="83.5846" height="143.64" rx="20" fill="white"/>
<path d="M103.388 104.05C103.388 114.372 95.1547 122.74 84.999 122.74C74.8432 122.74 66.6104 114.372 66.6104 104.05C66.6104 93.7279 74.8432 85.3601 84.999 85.3601C95.1547 85.3601 103.388 93.7279 103.388 104.05Z" fill="white"/>
<path fill-rule="evenodd" clip-rule="evenodd" d="M84.999 121.48C94.4489 121.48 102.134 113.69 102.134 104.05C102.134 94.4103 94.4489 86.6201 84.999 86.6201C75.549 86.6201 67.8641 94.4103 67.8641 104.05C67.8641 113.69 75.549 121.48 84.999 121.48ZM84.999 122.74C95.1547 122.74 103.388 114.372 103.388 104.05C103.388 93.7279 95.1547 85.3601 84.999 85.3601C74.8432 85.3601 66.6104 93.7279 66.6104 104.05C66.6104 114.372 74.8432 122.74 84.999 122.74Z" fill="#BFDBFE"/>
<path d="M69.9536 51.1301C69.9536 64.9317 58.9141 76.1201 45.2961 76.1201C31.6782 76.1201 20.6387 64.9317 20.6387 51.1301C20.6387 37.3285 31.6782 26.1401 45.2961 26.1401C58.9141 26.1401 69.9536 37.3285 69.9536 51.1301Z" fill="#BFDBFE"/>
<path d="M16.0421 99.22L17.2212 102.629L20.8117 102.703L17.9499 104.883L18.9899 108.337L16.0421 106.276L13.0943 108.337L14.1342 104.883L11.2725 102.703L14.863 102.629L16.0421 99.22Z" fill="#FACC15"/>
<path d="M33.1768 99.22L34.356 102.629L37.9465 102.703L35.0847 104.883L36.1246 108.337L33.1768 106.276L30.2291 108.337L31.269 104.883L28.4072 102.703L31.9977 102.629L33.1768 99.22Z" fill="#FACC15"/>
<path d="M50.3116 99.22L51.4907 102.629L55.0812 102.703L52.2195 104.883L53.2594 108.337L50.3116 106.276L47.3638 108.337L48.4038 104.883L45.542 102.703L49.1325 102.629L50.3116 99.22Z" fill="#FACC15"/>
<path d="M67.4464 99.22L68.6255 102.629L72.216 102.703L69.3542 104.883L70.3942 108.337L67.4464 106.276L64.4986 108.337L65.5385 104.883L62.6768 102.703L66.2673 102.629L67.4464 99.22Z" fill="#FACC15"/>
<path d="M84.5811 99.22L85.7603 102.629L89.3508 102.703L86.489 104.883L87.5289 108.337L84.5811 106.276L81.6334 108.337L82.6733 104.883L79.8115 102.703L83.402 102.629L84.5811 99.22Z" fill="#FACC15"/>
</g>
<defs>
<clipPath id="clip0_110_642">
<rect x="0.578613" y="0.52002" width="83.5846" height="143.64" rx="20" fill="white"/>
</clipPath>
</defs>
</svg>
