<svg width="17" height="16" viewBox="0 0 17 16" fill="none" xmlns="http://www.w3.org/2000/svg">
<path d="M9.15042 7.93321L11.5071 5.57588C11.5708 5.51438 11.6215 5.44082 11.6565 5.35948C11.6914 5.27815 11.7098 5.19067 11.7106 5.10215C11.7114 5.01363 11.6945 4.92584 11.661 4.84391C11.6274 4.76198 11.5779 4.68754 11.5153 4.62495C11.4528 4.56235 11.3783 4.51285 11.2964 4.47933C11.2145 4.44581 11.1267 4.42894 11.0381 4.42971C10.9496 4.43048 10.8621 4.44887 10.7808 4.48381C10.6995 4.51875 10.6259 4.56954 10.5644 4.63321L8.20708 6.98988L5.85042 4.63321C5.78892 4.56954 5.71535 4.51875 5.63402 4.48381C5.55268 4.44887 5.4652 4.43048 5.37668 4.42971C5.28816 4.42894 5.20038 4.44581 5.11845 4.47933C5.03652 4.51285 4.96208 4.56235 4.89949 4.62495C4.83689 4.68754 4.78739 4.76198 4.75387 4.84391C4.72035 4.92584 4.70348 5.01363 4.70425 5.10215C4.70502 5.19067 4.72341 5.27815 4.75835 5.35948C4.79329 5.44082 4.84408 5.51438 4.90775 5.57588L7.26442 7.93255L4.90775 10.2899C4.84408 10.3514 4.79329 10.4249 4.75835 10.5063C4.72341 10.5876 4.70502 10.6751 4.70425 10.7636C4.70348 10.8521 4.72035 10.9399 4.75387 11.0218C4.78739 11.1038 4.83689 11.1782 4.89949 11.2408C4.96208 11.3034 5.03652 11.3529 5.11845 11.3864C5.20038 11.4199 5.28816 11.4368 5.37668 11.436C5.4652 11.4353 5.55268 11.4169 5.63402 11.3819C5.71535 11.347 5.78892 11.2962 5.85042 11.2325L8.20708 8.87588L10.5644 11.2325C10.6259 11.2962 10.6995 11.347 10.7808 11.3819C10.8621 11.4169 10.9496 11.4353 11.0381 11.436C11.1267 11.4368 11.2145 11.4199 11.2964 11.3864C11.3783 11.3529 11.4528 11.3034 11.5153 11.2408C11.5779 11.1782 11.6274 11.1038 11.661 11.0218C11.6945 10.9399 11.7114 10.8521 11.7106 10.7636C11.7098 10.6751 11.6914 10.5876 11.6565 10.5063C11.6215 10.4249 11.5708 10.3514 11.5071 10.2899L9.15042 7.93255V7.93321Z" fill="#C1C7CD"/>
</svg>
