<svg width="16" height="16" viewBox="0 0 16 16" fill="none" xmlns="http://www.w3.org/2000/svg">
<g clip-path="url(#clip0_29_918)">
<path d="M9.025 8C9.025 10.485 7.005 12.5 4.512 12.5C3.92026 12.5008 3.33417 12.385 2.78717 12.1593C2.24018 11.9336 1.743 11.6023 1.32402 11.1845C0.90504 10.7666 0.572469 10.2703 0.345294 9.72391C0.118118 9.17752 0.000787407 8.59174 0 8C0 5.514 2.02 3.5 4.512 3.5C5.10382 3.49908 5.69003 3.61475 6.23714 3.84041C6.78425 4.06607 7.28154 4.3973 7.70063 4.81518C8.11971 5.23306 8.45237 5.7294 8.67961 6.27585C8.90685 6.82231 9.02421 7.40818 9.025 8ZM13.975 8C13.975 10.34 12.965 12.236 11.719 12.236C10.473 12.236 9.463 10.339 9.463 8C9.463 5.66 10.473 3.764 11.719 3.764C12.965 3.764 13.975 5.661 13.975 8ZM16 8C16 10.096 15.645 11.795 15.206 11.795C14.768 11.795 14.413 10.095 14.413 8C14.413 5.904 14.768 4.205 15.207 4.205C15.645 4.205 16 5.904 16 8Z" fill="#0F172A"/>
</g>
<defs>
<clipPath id="clip0_29_918">
<rect width="16" height="16" fill="white"/>
</clipPath>
</defs>
</svg>
