<svg width="21" height="21" viewBox="0 0 21 21" fill="none" xmlns="http://www.w3.org/2000/svg">
<path fill-rule="evenodd" clip-rule="evenodd" d="M2.14057 7.71546C2.16501 5.31987 4.05872 3.28003 6.49269 3.28003C7.98667 3.28003 9.0856 4.02322 9.78689 4.72296C9.98215 4.91779 10.1497 5.11214 10.29 5.29133C10.4304 5.11214 10.5979 4.91779 10.7932 4.72296C11.4945 4.02322 12.5934 3.28003 14.0874 3.28003C16.5214 3.28003 18.4151 5.31987 18.4395 7.71546L18.4395 7.71564C18.4859 12.3879 14.7502 15.6203 10.9953 18.1818C10.7873 18.324 10.5416 18.4001 10.29 18.4001C10.0385 18.4001 9.79277 18.324 9.58479 18.1818C5.82949 15.6203 2.09379 12.3879 2.14057 7.71558L2.14057 7.71546ZM10.85 6.71332C10.7435 6.92586 10.5269 7.06003 10.29 7.06003C10.0532 7.06003 9.83659 6.92587 9.73012 6.71335C9.72999 6.71309 9.72973 6.71259 9.72935 6.71185C9.72859 6.71036 9.72732 6.70791 9.72555 6.70454C9.72461 6.70275 9.72353 6.7007 9.72231 6.69841C9.71527 6.68514 9.70354 6.66352 9.68715 6.63474C9.65431 6.57709 9.60303 6.49125 9.53337 6.38661C9.39335 6.17629 9.18294 5.8959 8.90352 5.6171C8.34203 5.05684 7.54229 4.54003 6.49269 4.54003C4.79239 4.54003 3.41221 5.97615 3.39428 7.72826M10.85 6.71332C10.8501 6.71305 10.8504 6.71256 10.8507 6.71185C10.8519 6.70957 10.8542 6.70504 10.8578 6.69841C10.8648 6.68514 10.8765 6.66352 10.8929 6.63474C10.9258 6.57709 10.977 6.49125 11.0467 6.38661C11.1867 6.17629 11.3971 5.8959 11.6766 5.6171C12.238 5.05684 13.0378 4.54003 14.0874 4.54003C15.7877 4.54003 17.1678 5.97611 17.1858 7.7282C17.2249 11.6654 14.0785 14.5558 10.2906 17.1397L10.29 17.1401L10.2895 17.1397C6.50123 14.5558 3.35492 11.6655 3.39428 7.72838" fill="white"/>
</svg>
