<svg width="24" height="24" viewBox="0 0 24 24" fill="none" xmlns="http://www.w3.org/2000/svg">
<path fill-rule="evenodd" clip-rule="evenodd" d="M8.27993 2.2506C8.635 2.26478 8.93138 2.52619 8.9898 2.8767L11.4428 17.595L13.5289 10.294C13.6192 9.97778 13.905 9.75732 14.2337 9.75018C14.5625 9.74303 14.8575 9.95087 14.9615 10.2628L16.2906 14.25H18.75C19.1642 14.25 19.5 14.5858 19.5 15C19.5 15.4142 19.1642 15.75 18.75 15.75H15.75C15.4272 15.75 15.1406 15.5434 15.0385 15.2372L14.3051 13.0371L11.9711 21.206C11.8748 21.5432 11.5577 21.7686 11.2076 21.7488C10.8575 21.729 10.5679 21.4692 10.5102 21.1233L8.10303 6.68023L5.97761 15.1819C5.89414 15.5158 5.59415 15.75 5.25 15.75H2.25C1.83579 15.75 1.5 15.4142 1.5 15C1.5 14.5858 1.83579 14.25 2.25 14.25H4.66442L7.52239 2.8181C7.60858 2.47336 7.92486 2.23642 8.27993 2.2506Z" fill="#0F172A"/>
<path fill-rule="evenodd" clip-rule="evenodd" d="M20.25 14.25C19.8358 14.25 19.5 14.5858 19.5 15C19.5 15.4142 19.8358 15.75 20.25 15.75C20.6642 15.75 21 15.4142 21 15C21 14.5858 20.6642 14.25 20.25 14.25ZM18 15C18 13.7574 19.0074 12.75 20.25 12.75C21.4926 12.75 22.5 13.7574 22.5 15C22.5 16.2426 21.4926 17.25 20.25 17.25C19.0074 17.25 18 16.2426 18 15Z" fill="#0F172A"/>
</svg>
