<svg width="25" height="24" viewBox="0 0 25 24" fill="none" xmlns="http://www.w3.org/2000/svg">
<path d="M22.3359 5.90698C21.5863 6.23436 20.7924 6.44902 19.9799 6.54398C20.8327 6.04321 21.474 5.24909 21.7839 4.30998C20.9759 4.78031 20.0947 5.11158 19.1769 5.28998C18.7905 4.88519 18.3256 4.56337 17.8107 4.34416C17.2958 4.12495 16.7416 4.01295 16.1819 4.01498C13.9159 4.01498 12.0789 5.82498 12.0789 8.05498C12.0789 8.37098 12.1149 8.67998 12.1849 8.97498C10.5595 8.89768 8.96805 8.48239 7.51211 7.75562C6.05616 7.02885 4.7677 6.00656 3.72894 4.75398C3.36476 5.36838 3.17335 6.06976 3.17494 6.78398C3.17563 7.45195 3.34277 8.10921 3.66123 8.69637C3.97969 9.28354 4.43944 9.78209 4.99894 10.147C4.34842 10.126 3.71196 9.95231 3.14094 9.63998V9.68998C3.14094 11.648 4.55594 13.281 6.43094 13.653C6.07855 13.7465 5.71552 13.7939 5.35094 13.794C5.08594 13.794 4.82894 13.769 4.57794 13.719C4.84602 14.5269 5.35904 15.2313 6.04576 15.7343C6.73247 16.2373 7.55878 16.514 8.40994 16.526C6.95001 17.6505 5.15776 18.258 3.31494 18.253C2.98294 18.253 2.65694 18.233 2.33594 18.197C4.21719 19.3877 6.39853 20.0183 8.62494 20.015C16.1719 20.015 20.2979 13.858 20.2979 8.51898L20.2839 7.99598C21.0888 7.42965 21.7841 6.72183 22.3359 5.90698Z" fill="#475569"/>
</svg>
