<svg width="24" height="24" viewBox="0 0 24 24" fill="none" xmlns="http://www.w3.org/2000/svg">
<path d="M13 12H15C15.2652 12 15.5196 12.1054 15.7071 12.2929C15.8946 12.4804 16 12.7348 16 13C16 13.2652 15.8946 13.5196 15.7071 13.7071C15.5196 13.8946 15.2652 14 15 14H12C11.7348 14 11.4804 13.8946 11.2929 13.7071C11.1054 13.5196 11 13.2652 11 13V8C11 7.73478 11.1054 7.48043 11.2929 7.29289C11.4804 7.10536 11.7348 7 12 7C12.2652 7 12.5196 7.10536 12.7071 7.29289C12.8946 7.48043 13 7.73478 13 8V12ZM20.63 10.438C21.0274 11.7806 21.106 13.1975 20.8596 14.5758C20.6131 15.9542 20.0485 17.256 19.2106 18.3778C18.3727 19.4997 17.2846 20.4105 16.0329 21.0379C14.7811 21.6653 13.4002 21.992 12 21.992C10.5998 21.992 9.21891 21.6653 7.96715 21.0379C6.71539 20.4105 5.62728 19.4997 4.78937 18.3778C3.95146 17.256 3.38685 15.9542 3.14045 14.5758C2.89405 13.1975 2.97265 11.7806 3.37 10.438C2.89989 9.94183 2.53651 9.35453 2.3023 8.7124C2.06809 8.07027 1.96802 7.38694 2.00828 6.70461C2.04853 6.02229 2.22826 5.35546 2.53636 4.74533C2.84445 4.13519 3.27437 3.59471 3.79956 3.15725C4.32475 2.7198 4.93405 2.39468 5.58983 2.20196C6.24561 2.00924 6.93394 1.95303 7.6123 2.03678C8.29066 2.12054 8.94465 2.3425 9.53386 2.68894C10.1231 3.03537 10.635 3.49894 11.038 4.051C11.6775 3.98303 12.3225 3.98303 12.962 4.051C13.365 3.49894 13.8769 3.03537 14.4661 2.68894C15.0554 2.3425 15.7093 2.12054 16.3877 2.03678C17.0661 1.95303 17.7544 2.00924 18.4102 2.20196C19.0659 2.39468 19.6752 2.7198 20.2004 3.15725C20.7256 3.59471 21.1555 4.13519 21.4636 4.74533C21.7717 5.35546 21.9515 6.02229 21.9917 6.70461C22.032 7.38694 21.9319 8.07027 21.6977 8.7124C21.4635 9.35453 21.1001 9.94183 20.63 10.438ZM19.692 8.325C19.9899 7.72116 20.076 7.03468 19.9364 6.376C19.7968 5.71731 19.4398 5.12472 18.9226 4.69357C18.4054 4.26241 17.7583 4.01776 17.0852 3.99898C16.4122 3.98019 15.7524 4.18836 15.212 4.59C17.0774 5.30515 18.6529 6.61871 19.692 8.325ZM8.787 4.59C8.2466 4.18836 7.5868 3.98019 6.91376 3.99898C6.24071 4.01776 5.59355 4.26241 5.0764 4.69357C4.55924 5.12472 4.20216 5.71731 4.06261 6.376C3.92305 7.03468 4.00913 7.72116 4.307 8.325C5.34606 6.61871 6.92162 5.30515 8.787 4.59ZM12 20C12.9193 20 13.8295 19.8189 14.6788 19.4672C15.5281 19.1154 16.2997 18.5998 16.9497 17.9497C17.5998 17.2997 18.1154 16.5281 18.4672 15.6788C18.8189 14.8295 19 13.9193 19 13C19 12.0807 18.8189 11.1705 18.4672 10.3212C18.1154 9.47194 17.5998 8.70026 16.9497 8.05025C16.2997 7.40024 15.5281 6.88463 14.6788 6.53284C13.8295 6.18106 12.9193 6 12 6C10.1435 6 8.36301 6.7375 7.05025 8.05025C5.7375 9.36301 5 11.1435 5 13C5 14.8565 5.7375 16.637 7.05025 17.9497C8.36301 19.2625 10.1435 20 12 20Z" fill="#0F172A"/>
</svg>
