<svg width="24" height="24" viewBox="0 0 24 24" fill="none" xmlns="http://www.w3.org/2000/svg">
<path d="M10.67 15.097C10.164 17.823 9.548 20.437 7.72 21.802C7.157 17.682 8.549 14.587 9.195 11.302C8.093 9.392 9.328 5.547 11.652 6.494C14.512 7.66 9.175 13.596 12.758 14.338C16.499 15.112 18.027 7.655 15.707 5.229C12.355 1.728 5.95 5.15 6.738 10.163C6.93 11.389 8.159 11.761 7.229 13.453C5.084 12.962 4.444 11.22 4.527 8.897C4.659 5.097 7.844 2.435 11.038 2.067C15.078 1.601 18.869 3.594 19.392 7.507C19.982 11.923 17.569 16.707 13.25 16.362C12.079 16.269 11.587 15.672 10.67 15.097Z" fill="#0F172A"/>
</svg>
