<svg width="24" height="25" viewBox="0 0 24 25" fill="none" xmlns="http://www.w3.org/2000/svg">
<path d="M13.3999 11.9V6.90002C13.3999 6.63481 13.2945 6.38045 13.107 6.19292C12.9195 6.00538 12.6651 5.90002 12.3999 5.90002C12.1347 5.90002 11.8803 6.00538 11.6928 6.19292C11.5053 6.38045 11.3999 6.63481 11.3999 6.90002V11.9H6.3999C6.13469 11.9 5.88033 12.0054 5.6928 12.1929C5.50526 12.3805 5.3999 12.6348 5.3999 12.9C5.3999 13.1652 5.50526 13.4196 5.6928 13.6071C5.88033 13.7947 6.13469 13.9 6.3999 13.9H11.3999V18.9C11.3999 19.1652 11.5053 19.4196 11.6928 19.6071C11.8803 19.7947 12.1347 19.9 12.3999 19.9C12.6651 19.9 12.9195 19.7947 13.107 19.6071C13.2945 19.4196 13.3999 19.1652 13.3999 18.9V13.9H18.3999C18.6651 13.9 18.9195 13.7947 19.107 13.6071C19.2945 13.4196 19.3999 13.1652 19.3999 12.9C19.3999 12.6348 19.2945 12.3805 19.107 12.1929C18.9195 12.0054 18.6651 11.9 18.3999 11.9H13.3999Z" fill="white"/>
</svg>
