<svg width="48" height="48" viewBox="0 0 48 48" fill="none" xmlns="http://www.w3.org/2000/svg">
<path fill-rule="evenodd" clip-rule="evenodd" d="M24.466 8.90901C25.3447 9.78769 25.3447 11.2123 24.466 12.091L12.557 24L24.466 35.909C25.3447 36.7877 25.3447 38.2123 24.466 39.091C23.5873 39.9697 22.1627 39.9697 21.284 39.091L7.78401 25.591C6.90533 24.7123 6.90533 23.2877 7.78401 22.409L21.284 8.90901C22.1627 8.03033 23.5873 8.03033 24.466 8.90901Z" fill="white"/>
<path fill-rule="evenodd" clip-rule="evenodd" d="M9 24C9 22.7574 10.0074 21.75 11.25 21.75H38.625C39.8676 21.75 40.875 22.7574 40.875 24C40.875 25.2426 39.8676 26.25 38.625 26.25H11.25C10.0074 26.25 9 25.2426 9 24Z" fill="white"/>
</svg>
