<svg width="25" height="25" viewBox="0 0 25 25" fill="none" xmlns="http://www.w3.org/2000/svg">
<path d="M13.8999 11.9V6.90002C13.8999 6.63481 13.7945 6.38045 13.607 6.19292C13.4195 6.00538 13.1651 5.90002 12.8999 5.90002C12.6347 5.90002 12.3803 6.00538 12.1928 6.19292C12.0053 6.38045 11.8999 6.63481 11.8999 6.90002V11.9H6.8999C6.63469 11.9 6.38033 12.0054 6.1928 12.1929C6.00526 12.3805 5.8999 12.6348 5.8999 12.9C5.8999 13.1652 6.00526 13.4196 6.1928 13.6071C6.38033 13.7947 6.63469 13.9 6.8999 13.9H11.8999V18.9C11.8999 19.1652 12.0053 19.4196 12.1928 19.6071C12.3803 19.7947 12.6347 19.9 12.8999 19.9C13.1651 19.9 13.4195 19.7947 13.607 19.6071C13.7945 19.4196 13.8999 19.1652 13.8999 18.9V13.9H18.8999C19.1651 13.9 19.4195 13.7947 19.607 13.6071C19.7945 13.4196 19.8999 13.1652 19.8999 12.9C19.8999 12.6348 19.7945 12.3805 19.607 12.1929C19.4195 12.0054 19.1651 11.9 18.8999 11.9H13.8999Z" fill="white"/>
</svg>
