<svg width="25" height="24" viewBox="0 0 25 24" fill="none" xmlns="http://www.w3.org/2000/svg">
<path d="M12.571 13.3139L17.521 8.36388C17.6132 8.26837 17.7236 8.19219 17.8456 8.13978C17.9676 8.08737 18.0988 8.05979 18.2316 8.05863C18.3644 8.05748 18.496 8.08278 18.6189 8.13306C18.7418 8.18334 18.8535 8.25759 18.9474 8.35149C19.0413 8.44538 19.1155 8.55703 19.1658 8.67993C19.2161 8.80282 19.2414 8.9345 19.2402 9.06728C19.2391 9.20006 19.2115 9.33128 19.1591 9.45329C19.1067 9.57529 19.0305 9.68564 18.935 9.77788L13.278 15.4349C13.0905 15.6224 12.8362 15.7277 12.571 15.7277C12.3058 15.7277 12.0515 15.6224 11.864 15.4349L6.20699 9.77788C6.11148 9.68564 6.0353 9.57529 5.98289 9.45329C5.93048 9.33128 5.90289 9.20006 5.90174 9.06728C5.90059 8.9345 5.92589 8.80282 5.97617 8.67993C6.02645 8.55703 6.1007 8.44538 6.1946 8.35149C6.28849 8.25759 6.40014 8.18334 6.52304 8.13306C6.64593 8.08278 6.77761 8.05748 6.91039 8.05863C7.04317 8.05979 7.17439 8.08737 7.2964 8.13978C7.4184 8.19219 7.52874 8.26837 7.62099 8.36388L12.571 13.3139Z" fill="#0F172A"/>
</svg>
