<svg width="70" height="45" viewBox="0 0 70 45" fill="none" xmlns="http://www.w3.org/2000/svg">
<g clip-path="url(#clip0_35_5006)">
<path d="M65.5266 5.90847C65.5266 5.95977 65.5266 6.0239 65.5135 6.06238C65.4479 6.56259 65.4479 7.0628 65.4872 7.57584C65.5135 7.7041 65.5397 7.83236 65.6447 7.93497C65.8152 8.12735 66.0775 8.08888 66.1825 7.85801C66.235 7.74258 66.235 7.62714 66.2087 7.51171C66.0775 7.02432 66.0513 6.51129 66.0382 6.01107C66.0382 5.98542 66.0382 5.94694 66.0382 5.90847C66.1825 5.89564 66.3137 5.88281 66.4317 5.88281C66.5236 5.86999 66.6023 5.85716 66.6679 5.81868C66.8646 5.71608 66.8646 5.49804 66.6547 5.39543C66.576 5.35695 66.4711 5.34412 66.3793 5.34412C66.0513 5.35695 65.7234 5.35695 65.3954 5.35695C65.2774 5.35695 65.1593 5.36978 65.0412 5.3826C64.9756 5.39543 64.8969 5.39543 64.8445 5.43391C64.7526 5.47238 64.7002 5.53651 64.7002 5.62629C64.7133 5.71608 64.7526 5.76738 64.8445 5.80586C64.8969 5.84434 64.9625 5.85716 65.0281 5.85716C65.1855 5.86999 65.3561 5.89564 65.5266 5.90847ZM69.134 6.49846C69.134 6.51129 69.1471 6.52411 69.1471 6.52411C69.1996 6.87041 69.2521 7.20389 69.2914 7.53736C69.3046 7.65279 69.3177 7.7554 69.3964 7.84518C69.5669 8.06322 69.8293 8.03757 69.9473 7.80671C69.9998 7.69127 70.0129 7.57584 69.9867 7.44758C69.908 7.0628 69.8686 6.67802 69.7899 6.30607C69.7374 6.0752 69.6719 5.85716 69.6063 5.65195C69.5669 5.52369 69.4751 5.4339 69.3177 5.42108C69.1603 5.39543 69.0422 5.47238 68.9766 5.58782C68.8979 5.69042 68.8323 5.79303 68.7798 5.90847C68.688 6.11368 68.6093 6.3189 68.5044 6.51129C68.4912 6.56259 68.4781 6.60107 68.4519 6.63954C68.4388 6.61389 68.4257 6.60107 68.4257 6.60107C68.2551 6.28042 68.0977 5.95977 67.9272 5.65195C67.9009 5.62629 67.8878 5.60064 67.8747 5.57499C67.796 5.45956 67.7042 5.39543 67.5599 5.39543C67.4287 5.40825 67.3237 5.48521 67.2582 5.60064C67.2319 5.65195 67.2319 5.69042 67.2188 5.74173C67.1663 6.15216 67.1007 6.56259 67.0483 6.97302C67.022 7.20389 67.0089 7.43475 67.0089 7.66562C66.9958 7.71692 67.0089 7.78105 67.0351 7.83236C67.0614 7.93496 67.1401 7.9991 67.245 8.01192C67.3762 8.02475 67.468 7.98627 67.5074 7.88366C67.5467 7.80671 67.5599 7.74258 67.573 7.67845C67.6255 7.44758 67.6648 7.22954 67.7042 7.0115C67.7304 6.88324 67.7435 6.78063 67.7829 6.63954C67.8091 6.69085 67.8353 6.72933 67.8616 6.7678C67.9796 6.92172 68.0977 7.07563 68.242 7.20389C68.3863 7.30649 68.5044 7.29367 68.6224 7.17823C68.6487 7.15258 68.6618 7.13976 68.688 7.1141C68.8061 6.93454 68.9504 6.75498 69.0684 6.57541C69.0947 6.54976 69.1078 6.52411 69.134 6.49846Z" fill="#4C1D95"/>
<path d="M38.9086 6.16053C38.8174 6.40428 38.8 6.57989 38.8421 6.72585C38.8886 6.92433 39.0093 6.98931 39.1731 6.93883C40.7139 6.5663 44.0926 7.6237 45.3435 7.91841C45.6385 7.98029 45.8785 7.60794 45.6772 7.2741C45.3834 6.9508 42.0062 5.56663 40.7176 5.49116C40.2125 5.46325 39.3095 5.33661 38.9086 6.16053Z" fill="#4C1D95"/>
<path d="M52.1135 1.67977C52.2777 1.77244 52.3695 1.86084 52.4148 1.95961C52.4823 2.08917 52.4467 2.17881 52.3333 2.22455C51.3148 2.71057 49.9595 4.80298 49.4124 5.52463C49.2798 5.69064 48.9739 5.59417 48.9277 5.32117C48.9372 5.01249 50.1386 2.74176 50.8091 2.12329C51.0726 1.88182 51.5079 1.40803 52.1135 1.67977Z" fill="#4C1D95"/>
<path d="M44.0022 0.649796C44.1995 0.504419 44.4045 0.453474 44.5092 0.547951C46.0459 1.8329 46.8608 3.86773 47.3654 5.73057C47.3844 5.77397 47.3856 5.83625 47.3704 5.90122C47.3641 5.95675 47.3226 6.01541 47.2567 6.0608C47.1863 6.11091 47.1257 6.12617 47.0972 6.08299C46.4237 5.18732 42.577 1.70242 44.0022 0.649796Z" fill="#4C1D95"/>
<path d="M11.461 22.9277C11.8293 22.6596 12.2297 22.4364 12.6534 22.2632C13.0967 22.1393 13.5692 22.1598 13.9995 22.3218C14.4297 22.4838 14.7944 22.7783 15.0382 23.1609C15.2563 23.5425 15.3416 23.9831 15.2814 24.4163C15.2212 24.8494 15.0187 25.2517 14.7043 25.5626C14.4606 25.8146 14.1839 26.0341 13.8816 26.2155C12.5342 27.0666 11.1748 27.871 9.81547 28.7221C9.53732 28.9351 9.24225 29.1262 8.93308 29.2934C8.46281 29.5227 7.92537 29.5841 7.41368 29.467C6.902 29.35 6.44826 29.0617 6.13092 28.6522C5.89369 28.3622 5.69348 28.0451 5.53471 27.7078C4.24691 25.0613 2.91142 22.4264 1.67131 19.7332C1.09895 18.5674 0.633913 17.2266 0.180798 15.9325C-0.0152406 15.5565 -0.0535225 15.1206 0.0741037 14.7174C0.20173 14.3142 0.485195 13.9756 0.864201 13.7736C1.24321 13.5716 1.68785 13.5222 2.10357 13.6358C2.51929 13.7494 2.87329 14.0171 3.09027 14.3819C3.75722 15.2485 4.34761 16.169 4.85504 17.1334C6.14284 19.4651 7.37103 21.7968 8.61113 24.0586C8.68334 24.1836 8.76296 24.3042 8.84961 24.42C9.783 24.0363 10.6609 23.5346 11.461 22.9277Z" fill="#4C1D95"/>
<path d="M24.7761 22.1142C21.8309 25.4835 16.8943 24.6324 14.4141 20.2954C12.6493 17.2175 12.3393 12.1343 16.1789 8.92819C16.9988 8.25696 17.9792 7.79971 19.0287 7.59909C20.3155 7.41872 21.6277 7.64068 22.7777 8.23326C23.9277 8.82584 24.8567 9.7587 25.432 10.8985C27.5306 14.6293 27.2325 19.386 24.7761 22.1142ZM23.5837 14.2562C23.2708 13.3394 22.6431 12.5567 21.807 12.041C21.3339 11.7113 20.759 11.551 20.1792 11.5871C19.5993 11.6232 19.0499 11.8535 18.6233 12.2392C16.9182 13.7199 16.5604 17.2292 17.8005 19.3161C17.9586 19.6564 18.1907 19.9588 18.4808 20.2022C18.7709 20.4456 19.1119 20.6241 19.4799 20.7251C19.8479 20.8262 20.234 20.8474 20.6113 20.7873C20.9886 20.7271 21.3478 20.5871 21.664 20.377C22.5883 19.6763 23.2664 18.7115 23.604 17.6167C23.9417 16.5218 23.9221 15.3513 23.548 14.2679L23.5837 14.2562Z" fill="#4C1D95"/>
<path d="M36.7954 15.7252C36.4939 15.7886 36.1824 15.7924 35.8793 15.7363C35.5763 15.6802 35.2877 15.5655 35.0307 15.3988C34.8058 15.273 34.6122 15.1001 34.4638 14.8924C34.3155 14.6847 34.2161 14.4475 34.1728 14.1977C34.1294 13.948 34.1433 13.692 34.2132 13.4481C34.2832 13.2042 34.4077 12.9785 34.5776 12.7872C34.8736 12.4028 35.2938 12.1276 35.77 12.0061C37.0133 11.6533 38.2932 11.4382 39.5857 11.3649C39.8697 11.3326 40.1574 11.3561 40.4319 11.434C40.7065 11.512 40.9623 11.6427 41.1845 11.8187C41.4066 11.9946 41.5906 12.2122 41.7256 12.4586C41.8605 12.705 41.9438 12.9753 41.9705 13.2536C42.3431 14.6206 42.3839 16.0539 42.0897 17.4391C41.0166 21.916 37.3201 23.4549 33.1705 22.0209C32.0057 21.6375 30.9844 20.9231 30.2372 19.969C29.2406 18.82 28.534 17.4583 28.1743 15.9934C27.8829 14.6889 27.9148 13.3353 28.2675 12.0454C28.6201 10.7555 29.2832 9.56676 30.2014 8.57846C31.0728 7.50429 32.2038 6.65892 33.4925 6.11847C34.3068 5.67962 35.2597 5.55484 36.1635 5.76871C36.3685 5.82419 36.5546 5.93229 36.7025 6.0818C36.8504 6.23132 36.9547 6.41679 37.0046 6.619C37.0545 6.8212 37.0481 7.03277 36.9862 7.23177C36.9242 7.43076 36.809 7.60993 36.6524 7.75069C36.3546 8.01424 36.0311 8.24854 35.6865 8.45021C34.6264 9.11028 33.7039 9.96083 32.9678 10.9568C32.4853 11.6013 32.153 12.3414 31.9944 13.1249C31.8357 13.9084 31.8546 14.7164 32.0497 15.4921C32.3201 16.5497 32.9202 17.499 33.7667 18.2085C36.39 20.5403 39.8003 18.2901 39.2041 15.1073C38.3337 15.3172 37.5705 15.5387 36.7954 15.7252Z" fill="#4C1D95"/>
<path d="M52.8215 22.3007C48.9462 24.6325 44.5343 22.3007 43.5684 17.4041C42.8649 13.9065 44.2004 9.00979 48.8747 7.1444C49.8692 6.75605 50.9479 6.6197 52.0107 6.748C53.2876 6.97655 54.459 7.59118 55.3596 8.50525C56.2602 9.41931 56.8448 10.5867 57.0307 11.8429C57.8177 16.005 56.0291 20.447 52.8215 22.3007ZM54.169 14.4544C54.1678 13.4859 53.8174 12.5487 53.1793 11.8079C52.8382 11.3497 52.3451 11.0214 51.7841 10.8789C51.223 10.7365 50.6289 10.7887 50.1028 11.0268C48.0042 11.9128 46.5256 15.1306 47.0622 17.4974C47.1032 17.8688 47.2266 18.227 47.4239 18.5469C47.6212 18.8668 47.8876 19.1407 48.2045 19.3495C48.5213 19.5582 48.881 19.6968 49.2583 19.7555C49.6357 19.8141 50.0216 19.7915 50.389 19.6892C51.4983 19.3103 52.4588 18.6022 53.1364 17.6637C53.8141 16.7252 54.1751 15.6032 54.169 14.4544Z" fill="#4C1D95"/>
<path d="M60.9498 23.2802C60.8913 23.7069 60.6619 24.0934 60.3119 24.3547C59.9619 24.6159 59.5201 24.7306 59.0837 24.6734C58.6473 24.6162 58.252 24.3918 57.9848 24.0496C57.7175 23.7075 57.6003 23.2755 57.6588 22.8488C57.7173 22.4221 57.9468 22.0356 58.2967 21.7743C58.6467 21.513 59.0885 21.3984 59.5249 21.4556C59.9613 21.5128 60.3566 21.7371 60.6239 22.0793C60.8911 22.4215 61.0084 22.8535 60.9498 23.2802ZM59.9124 7.55253C60.1392 7.21388 60.4719 6.95598 60.8609 6.81731C61.2498 6.67864 61.6742 6.66662 62.0707 6.78305C62.4738 6.88166 62.8299 7.11267 63.0796 7.4374C63.3292 7.76214 63.4571 8.16088 63.442 8.56684C63.3894 9.21801 63.2898 9.86473 63.1439 10.5022C62.7504 12.6591 62.3688 14.8159 61.9515 16.9495C61.7607 17.8006 61.5103 18.6167 61.236 19.4794C61.1406 19.7491 60.9812 19.9928 60.771 20.1906C60.6403 20.3394 60.4734 20.4535 60.2856 20.5224C60.0978 20.5914 59.8953 20.6129 59.6968 20.585C59.4983 20.5571 59.3101 20.4807 59.1498 20.3629C58.9895 20.245 58.8622 20.0895 58.7797 19.9108C58.6379 19.5902 58.5609 19.2457 58.5531 18.8965C58.5531 17.4508 58.5531 15.9935 58.6485 14.5361C58.8106 12.4563 59.1294 10.3909 59.6024 8.35697C59.6581 8.08447 59.763 7.82388 59.9124 7.5875V7.55253Z" fill="#4C1D95"/>
<path fill-rule="evenodd" clip-rule="evenodd" d="M6.42312 32.6488C6.28233 32.9561 6.24372 33.2987 6.31252 33.6284C6.35829 34.063 6.45882 34.4905 6.61182 34.9011C6.80284 35.4039 7.01659 35.9011 7.28015 36.5139C7.34076 36.6549 7.4041 36.8021 7.47038 36.957C7.8258 37.7872 8.27176 38.8482 8.86661 40.3837C9.03498 40.8199 9.18449 41.2597 9.33505 41.7025C9.39587 41.8814 9.45691 42.0609 9.51939 42.2408C9.74335 42.8804 10.1287 43.455 10.6395 43.9104C10.8564 44.1607 11.1441 44.3431 11.4667 44.4343C11.7956 44.5273 12.1454 44.5214 12.4708 44.4174C12.7962 44.3133 13.082 44.1159 13.2911 43.8508C13.4961 43.5909 13.618 43.2777 13.6417 42.9505C13.7747 42.3131 13.7293 41.6522 13.5101 41.0377C13.1622 40.0174 12.7659 38.9956 12.3089 37.9962L12.3068 37.9918C11.555 36.4282 10.7908 34.8754 9.99045 33.322L9.98446 33.3111C9.75016 32.9064 9.44567 32.5446 9.08467 32.242C8.85031 31.9719 8.52704 31.7897 8.17004 31.7269C7.80543 31.6628 7.42939 31.7274 7.10905 31.9093C6.80601 32.0785 6.56579 32.3374 6.42312 32.6488Z" fill="#4C1D95"/>
<path fill-rule="evenodd" clip-rule="evenodd" d="M17.9059 28.7986C16.7271 28.5001 15.496 28.4566 14.2984 28.6712C13.3708 28.7605 12.4585 28.9697 11.825 29.3841C11.5028 29.595 11.2423 29.8658 11.0974 30.21C10.9517 30.5561 10.9331 30.9519 11.0525 31.3929C11.2705 32.2007 11.5536 32.9861 11.8357 33.769L11.8814 33.8958L11.8825 33.8986C12.7319 36.173 13.5894 38.4397 14.4547 40.6986C14.5556 41.0546 14.6983 41.398 14.8799 41.7219L14.8833 41.7279C15.1232 42.1303 15.4309 42.4902 15.7934 42.7925C15.9747 42.9587 16.1989 43.0737 16.442 43.1251C16.6875 43.1769 16.9428 43.1619 17.1801 43.0815C17.4175 43.0012 17.6277 42.8587 17.7879 42.6695C17.9455 42.4834 18.0487 42.2592 18.0866 42.0206C18.243 41.3724 18.1929 40.6929 17.9429 40.0733C17.8649 39.8648 17.8037 39.6517 17.7392 39.4274C17.7177 39.3526 17.6959 39.2765 17.6729 39.199C19.6536 38.442 21.7611 37.4241 22.5022 35.0561C22.7924 34.2378 22.8166 33.3517 22.5714 32.5193C22.326 31.686 21.8225 30.9474 21.1303 30.4052C20.1882 29.6462 19.0877 29.0978 17.9059 28.7986ZM14.6384 31.7031C14.6774 31.6921 14.7167 31.6819 14.7561 31.6724C16.0456 31.4742 17.3649 31.7383 18.4711 32.4159C18.9586 32.7474 19.1583 33.1157 19.1926 33.4701C19.228 33.835 19.0923 34.2304 18.8197 34.6105C18.3046 35.3285 17.3646 35.9032 16.5155 36.0103C15.8965 34.6165 15.2679 33.1663 14.6384 31.7031Z" fill="#4C1D95"/>
<path d="M25.7647 26.2473C27.1685 25.6134 28.9074 25.5039 30.2681 25.9496C30.6108 26.0472 30.9081 26.2583 31.1092 26.5468C31.309 26.8335 31.4012 27.179 31.3704 27.5244C31.3684 27.7486 31.3121 27.9692 31.2062 28.1682C31.0984 28.3708 30.9423 28.545 30.7511 28.6762C30.5599 28.8073 30.3392 28.8916 30.1077 28.9217C29.8761 28.9519 29.6406 28.9271 29.4209 28.8494L29.4042 28.8435L29.3885 28.8354C29.2761 28.7779 29.1567 28.7346 29.0332 28.7064L29.0254 28.7047C28.0682 28.4561 27.1653 28.868 26.8355 29.3741C26.6782 29.6154 26.6587 29.859 26.7897 30.0806C26.93 30.3179 27.2741 30.5842 27.9704 30.774C28.1619 30.8254 28.3582 30.875 28.5573 30.9254C29.1079 31.0648 29.6801 31.2096 30.2334 31.4103L30.2355 31.4111C32.7881 32.3607 33.7386 34.3274 33.4132 36.1772C33.0913 38.0065 31.5288 39.6713 29.1791 40.064C28.3241 40.2493 27.4343 40.2132 26.5978 39.9593C25.7592 39.7046 25.0033 39.2399 24.4052 38.6111L24.3896 38.5947C24.2008 38.3578 24.0738 38.0795 24.0175 37.7842C23.9657 37.5177 23.993 37.2423 24.096 36.9904C24.1984 36.74 24.3716 36.5233 24.5951 36.3654C24.8312 36.1864 25.1158 36.079 25.4137 36.0566C25.7106 36.0343 26.0077 36.0974 26.2684 36.238C26.5288 36.361 26.771 36.5179 26.9884 36.7045L26.9925 36.7079C27.3771 37.0518 27.8424 37.1414 28.2886 37.0584C28.7413 36.9742 29.167 36.7123 29.4408 36.3648C29.7128 36.0195 29.822 35.6093 29.6924 35.2111C29.562 34.81 29.1699 34.3606 28.3084 33.9849C28.0832 33.8914 27.8497 33.816 27.6068 33.7426C27.5413 33.7228 27.4747 33.7031 27.4073 33.6831C27.2277 33.6298 27.0429 33.5749 26.8617 33.5144C26.7369 33.4728 26.6131 33.4334 26.4905 33.3943C26.1554 33.2876 25.8287 33.1836 25.5143 33.0441C24.83 32.8163 24.2388 32.3789 23.8287 31.7966C23.4169 31.212 23.2097 30.5129 23.2379 29.8037C23.2401 28.0754 24.3534 26.8847 25.7647 26.2473Z" fill="#4C1D95"/>
<path d="M43.5621 26.0632C43.2899 25.9332 42.9889 25.8715 42.6863 25.8836C42.3836 25.8958 42.0888 25.9814 41.8285 26.1329C41.5698 26.2833 41.3532 26.4939 41.198 26.746C41.0557 26.9583 40.9572 27.1957 40.9081 27.445C40.859 27.6941 40.8602 27.9501 40.9115 28.1986C40.9622 28.518 41.0184 28.8286 41.0739 29.1349C41.1658 29.6418 41.2552 30.1373 41.3142 30.6425L41.3164 30.6553C41.4507 31.4476 41.521 32.2489 41.5273 33.0519L41.5279 33.0633C41.5738 33.9305 41.2716 34.7808 40.6861 35.4338L40.6768 35.4454C40.4863 35.6841 40.2316 35.8663 39.9411 35.9716C39.6507 36.0769 39.3361 36.1011 39.0324 36.0415C38.7287 35.9819 38.448 35.8409 38.2216 35.6342C37.9952 35.4275 37.8319 35.1625 37.7504 34.8704C37.5764 34.2547 37.4757 33.6214 37.4501 32.9832L37.7473 28.3569C37.7517 28.2965 37.7567 28.2345 37.7618 28.1719C37.7731 28.0314 37.7847 27.8883 37.7895 27.7548C37.7965 27.5584 37.7905 27.3564 37.7437 27.1652C37.6958 26.9698 37.6047 26.7839 37.4431 26.6256C37.2831 26.4689 37.0671 26.3533 36.7953 26.2746C36.3038 26.1355 35.8882 26.1399 35.5419 26.2836C35.1954 26.4273 34.958 26.6941 34.79 27.0023C34.6233 27.3079 34.5162 27.6697 34.4352 28.0321C34.3751 28.301 34.3268 28.5833 34.2809 28.852C34.265 28.9446 34.2495 29.0355 34.2338 29.1238L34.2334 29.1264C33.9878 30.6 33.9147 32.0962 34.0155 33.586C34.0343 34.3911 34.206 35.1858 34.522 35.9295C34.8785 36.8891 35.5242 37.7205 36.3739 38.314C37.2254 38.9087 38.2415 39.2364 39.2877 39.2537C40.3339 39.271 41.3608 38.9771 42.2324 38.411C43.1026 37.8457 43.777 37.0355 44.1664 36.0876C44.7111 34.8801 44.9669 33.5669 44.9141 32.2481C44.8821 31.2853 44.8285 30.3151 44.7752 29.3498C44.749 28.8763 44.7229 28.4038 44.6995 27.9342C44.6877 27.4633 44.5289 27.0072 44.2443 26.6271C44.0682 26.3868 43.8338 26.193 43.5621 26.0632Z" fill="#4C1D95"/>
<path d="M53.196 33.3173C53.1684 33.3516 53.1393 33.3871 53.1089 33.424C52.8875 32.1752 52.6823 30.9268 52.4768 29.6765C52.4031 29.2279 52.329 28.7774 52.2545 28.3282L52.2461 28.2781L52.2189 28.2348C52.1676 28.1533 52.1625 28.0734 52.1625 27.903V27.8833L52.1594 27.8638C52.1038 27.5119 51.941 27.1844 51.6923 26.9242C51.4443 26.6647 51.1222 26.4841 50.7679 26.4057C50.4142 26.3204 50.0425 26.3392 49.6996 26.4598C49.3576 26.5801 49.0595 26.7963 48.8425 27.0813C48.6621 27.3 48.5142 27.5426 48.4034 27.8018C48.1519 28.3602 47.8982 28.92 47.6438 29.4813L47.6394 29.491C47.0043 30.8923 46.3649 32.303 45.7441 33.7248L45.7422 33.7294C45.3611 34.6513 45.0465 35.6227 44.733 36.5911C44.6704 36.7844 44.6078 36.9776 44.5447 37.1703C44.4315 37.4759 44.382 37.8005 44.399 38.125C44.3784 38.4155 44.4495 38.7053 44.6029 38.9552C44.7593 39.2102 44.9936 39.4108 45.2727 39.5289C45.5685 39.6557 45.8992 39.6826 46.2125 39.6054C46.5251 39.5283 46.8027 39.3519 47.0016 39.1039C47.2556 38.7984 47.4741 38.4652 47.6523 38.1122C48.1782 37.0604 48.6808 35.9958 49.1811 34.9358C49.3747 34.5258 49.5628 34.1586 49.7768 33.7587C49.7915 33.808 49.8065 33.8561 49.822 33.9043C50.0463 34.8698 50.4249 35.7946 50.9438 36.6448C51.042 36.8249 51.1788 36.9823 51.3448 37.1062C51.5128 37.2316 51.7067 37.3196 51.913 37.3643C52.1193 37.409 52.3331 37.4092 52.5395 37.3649C52.7456 37.3207 52.9401 37.2326 53.1082 37.1078L53.4409 36.8643L56.0232 34.7376L55.8705 35.6891C55.6609 36.997 55.4529 38.294 55.2319 39.5913C55.0873 40.1663 55.0875 40.7669 55.2325 41.3417C55.2953 41.6652 55.4553 41.963 55.6921 42.1972C55.9309 42.4333 56.2367 42.5937 56.5699 42.6577C56.9031 42.7216 57.2483 42.6862 57.5606 42.5559C57.8684 42.4276 58.1302 42.213 58.3132 41.9395C58.739 41.423 59.004 40.7977 59.0768 40.138C59.1864 39.2064 59.3102 38.2621 59.4341 37.3181C59.5768 36.23 59.7195 35.1422 59.84 34.0753L59.8404 34.072C59.9564 32.9041 60.0125 31.7314 60.0086 30.558C60.034 30.1872 59.9396 29.8178 59.7384 29.5021C59.5365 29.1853 59.2375 28.939 58.8841 28.7981C58.5165 28.6347 58.105 28.591 57.7101 28.6736C57.3178 28.7556 56.9627 28.9578 56.6963 29.2507C56.22 29.6814 55.7732 30.1423 55.3587 30.6304L55.3559 30.6337C54.9034 31.185 54.454 31.7471 54.0075 32.3056C53.736 32.6451 53.4653 32.9838 53.196 33.3173Z" fill="#4C1D95"/>
</g>
<defs>
<clipPath id="clip0_35_5006">
<rect width="70" height="44" fill="white" transform="translate(0 0.5)"/>
</clipPath>
</defs>
</svg>
