<svg width="229" height="468" viewBox="0 0 229 468" fill="none" xmlns="http://www.w3.org/2000/svg">
<path fill-rule="evenodd" clip-rule="evenodd" d="M186.688 0H42.3125C19.0561 0 0.203125 18.804 0.203125 42V426C0.203125 449.196 19.0561 468 42.3125 468H186.688C209.944 468 228.797 449.196 228.797 426V42C228.797 18.804 209.944 0 186.688 0ZM2.00781 42C2.00781 19.7981 20.0528 1.8 42.3125 1.8H186.688C208.947 1.8 226.992 19.7982 226.992 42V426C226.992 448.202 208.947 466.2 186.688 466.2H42.3125C20.0528 466.2 2.00781 448.202 2.00781 426V42Z" fill="white"/>
</svg>
