<svg width="277" height="571" viewBox="0 0 277 571" fill="none" xmlns="http://www.w3.org/2000/svg">
<path fill-rule="evenodd" clip-rule="evenodd" d="M50.0771 0.211533H227C254.278 0.211533 276.391 22.3246 276.391 49.6026V521.397C276.391 548.675 254.278 570.788 227 570.788H50.0771C22.7992 570.788 0.686035 548.675 0.686035 521.397V49.6026C0.686035 22.3246 22.7992 0.211533 50.0771 0.211533ZM50.0771 9.05769C27.6848 9.05769 9.53219 27.2102 9.53219 49.6026V521.397C9.53219 543.79 27.6848 561.942 50.0771 561.942H227C249.392 561.942 267.545 543.79 267.545 521.397V49.6026C267.545 27.2102 249.392 9.05769 227 9.05769H50.0771Z" fill="white"/>
</svg>
