<svg width="281" height="575" viewBox="0 0 281 575" fill="none" xmlns="http://www.w3.org/2000/svg">
<path fill-rule="evenodd" clip-rule="evenodd" d="M229 0H52.0769C23.5776 0 0.474365 23.1032 0.474365 51.6026V523.397C0.474365 551.897 23.5776 575 52.0769 575H229C257.499 575 280.603 551.897 280.603 523.397V51.6026C280.603 23.1033 257.499 0 229 0ZM2.6859 51.6026C2.6859 24.3246 24.799 2.21154 52.0769 2.21154H229C256.278 2.21154 278.391 24.3247 278.391 51.6026V523.397C278.391 550.675 256.278 572.788 229 572.788H52.0769C24.799 572.788 2.6859 550.675 2.6859 523.397V51.6026Z" fill="white"/>
</svg>
