<svg width="277" height="571" viewBox="0 0 277 571" fill="none" xmlns="http://www.w3.org/2000/svg">
<path fill-rule="evenodd" clip-rule="evenodd" d="M50.0771 0.211548H227C254.278 0.211548 276.391 22.3247 276.391 49.6026V521.397C276.391 548.675 254.278 570.788 227 570.788H50.0771C22.7992 570.788 0.686035 548.675 0.686035 521.397V49.6026C0.686035 22.3247 22.7992 0.211548 50.0771 0.211548ZM50.0771 9.0577C27.6848 9.0577 9.53219 27.2103 9.53219 49.6026V521.397C9.53219 543.79 27.6848 561.942 50.0771 561.942H227C249.392 561.942 267.545 543.79 267.545 521.397V49.6026C267.545 27.2103 249.392 9.0577 227 9.0577H50.0771Z" fill="white"/>
</svg>
