<svg width="281" height="575" viewBox="0 0 281 575" fill="none" xmlns="http://www.w3.org/2000/svg">
<path fill-rule="evenodd" clip-rule="evenodd" d="M229 0H52.0767C23.5774 0 0.474121 23.1032 0.474121 51.6026V523.397C0.474121 551.897 23.5774 575 52.0767 575H229C257.499 575 280.602 551.897 280.602 523.397V51.6026C280.602 23.1033 257.499 0 229 0ZM2.68566 51.6026C2.68566 24.3246 24.7988 2.21154 52.0767 2.21154H229C256.278 2.21154 278.391 24.3247 278.391 51.6026V523.397C278.391 550.675 256.278 572.788 229 572.788H52.0767C24.7988 572.788 2.68566 550.675 2.68566 523.397V51.6026Z" fill="white"/>
</svg>
