<svg width="225" height="466" viewBox="0 0 225 466" fill="none" xmlns="http://www.w3.org/2000/svg">
<path fill-rule="evenodd" clip-rule="evenodd" d="M40.3125 0.799988H184.688C206.947 0.799988 224.992 18.7981 224.992 41V425C224.992 447.202 206.947 465.2 184.688 465.2H40.3125C18.0528 465.2 0.0078125 447.202 0.0078125 425V41C0.0078125 18.7981 18.0528 0.799988 40.3125 0.799988ZM40.3125 7.99999C22.0396 7.99999 7.22656 22.7746 7.22656 41V425C7.22656 443.225 22.0396 458 40.3125 458H184.688C202.96 458 217.773 443.225 217.773 425V41C217.773 22.7746 202.96 7.99999 184.688 7.99999H40.3125Z" fill="white"/>
</svg>
