<svg width="277" height="571" viewBox="0 0 277 571" fill="none" xmlns="http://www.w3.org/2000/svg">
<path fill-rule="evenodd" clip-rule="evenodd" d="M50.0768 0.211548H227C254.278 0.211548 276.391 22.3247 276.391 49.6026V521.397C276.391 548.675 254.278 570.788 227 570.788H50.0768C22.7989 570.788 0.685791 548.675 0.685791 521.397V49.6026C0.685791 22.3247 22.7989 0.211548 50.0768 0.211548ZM50.0768 9.0577C27.6845 9.0577 9.53195 27.2103 9.53195 49.6026V521.397C9.53195 543.79 27.6845 561.942 50.0768 561.942H227C249.392 561.942 267.545 543.79 267.545 521.397V49.6026C267.545 27.2103 249.392 9.0577 227 9.0577H50.0768Z" fill="white"/>
</svg>
