<svg width="225" height="466" viewBox="0 0 225 466" fill="none" xmlns="http://www.w3.org/2000/svg">
<path fill-rule="evenodd" clip-rule="evenodd" d="M40.3125 0.800003H184.688C206.947 0.800003 224.992 18.7982 224.992 41V425C224.992 447.202 206.947 465.2 184.688 465.2H40.3125C18.0528 465.2 0.0078125 447.202 0.0078125 425V41C0.0078125 18.7981 18.0528 0.800003 40.3125 0.800003ZM40.3125 8C22.0396 8 7.22656 22.7746 7.22656 41V425C7.22656 443.225 22.0396 458 40.3125 458H184.688C202.96 458 217.773 443.225 217.773 425V41C217.773 22.7746 202.96 8 184.688 8H40.3125Z" fill="white"/>
</svg>
