<svg width="38" height="33" viewBox="0 0 38 33" fill="none" xmlns="http://www.w3.org/2000/svg">
<path fill-rule="evenodd" clip-rule="evenodd" d="M18.107 0.459553L18.0876 0.425903H10.0406L0.507568 16.7683L7.05151 28.2183L7.05954 28.2044L9.53342 32.4893L28.4528 32.5739L35.0969 21.1816H35.0527L37.5071 16.9305L28.1207 0.503483L18.107 0.459553ZM24.3318 11.3579H24.382L19.6517 3.14246L26.5638 3.17277L34.421 16.9236L31.9617 21.1834L25.5167 21.1868L27.7638 17.2949L24.3318 11.3579ZM16.4683 3.10196L19.6937 8.68174L15.2279 8.68164L7.58238 21.9405L7.06086 22.8414L3.59773 16.7819L11.5777 3.10196H16.4683ZM13.3672 17.2655L16.7738 11.3577L21.2408 11.3579L24.6732 17.2957L22.4256 21.1885L15.6341 21.1922L13.3672 17.2655ZM8.6036 25.5266L9.89962 23.2791L11.8269 19.95L14.0894 23.8691L20.8799 23.8654L20.8689 23.8844L30.4161 23.8957L26.9196 29.891L11.0824 29.8201L8.6036 25.5266Z" fill="#1E293B"/>
</svg>
