<svg width="28" height="25" viewBox="0 0 28 25" fill="none" xmlns="http://www.w3.org/2000/svg">
<path d="M0.41 10.8847C1.14777 7.9194 2.85643 5.2861 5.2639 3.40424C7.6714 1.52234 10.6393 0.5 13.695 0.5C16.7507 0.5 19.7186 1.52234 22.1261 3.40424C24.5336 5.2861 26.2422 7.9194 26.98 10.8847H25.78C23.7557 10.8549 21.7729 11.4599 20.11 12.6147C20.014 12.6842 19.9138 12.7477 19.81 12.8047H19.67C19.5662 12.7477 19.466 12.6842 19.37 12.6147C17.6924 11.4866 15.7166 10.8841 13.695 10.8841C11.6734 10.8841 9.6976 11.4866 8.02 12.6147C7.924 12.6842 7.8238 12.7477 7.72 12.8047H7.58C7.4762 12.7477 7.376 12.6842 7.28 12.6147C5.6171 11.4599 3.6343 10.8549 1.61 10.8847H0.41ZM23.62 17.1547C24.236 16.675 24.9995 16.424 25.78 16.4447H27.39V13.2347H25.78C24.4052 13.2181 23.0619 13.646 21.95 14.4547C21.3243 14.916 20.5674 15.1649 19.79 15.1649C19.0126 15.1649 18.2557 14.916 17.63 14.4547C16.4899 13.6611 15.1341 13.2356 13.745 13.2356C12.3559 13.2356 11.0001 13.6611 9.86 14.4547C9.2343 14.916 8.4774 15.1649 7.7 15.1649C6.9226 15.1649 6.1657 14.916 5.54 14.4547C4.4144 13.6356 3.0518 13.2072 1.66 13.2347H0V16.4447H1.61C2.39051 16.424 3.154 16.675 3.77 17.1547C4.908 17.9489 6.2623 18.3747 7.65 18.3747C9.0377 18.3747 10.392 17.9489 11.53 17.1547C12.1468 16.6765 12.9097 16.4257 13.69 16.4447C14.4708 16.4223 15.2348 16.6735 15.85 17.1547C16.9901 17.9484 18.3459 18.3738 19.735 18.3738C21.1241 18.3738 22.4799 17.9484 23.62 17.1547ZM23.62 22.8947C24.236 22.415 24.9995 22.164 25.78 22.1847H27.39V18.9747H25.78C24.4052 18.9581 23.0619 19.386 21.95 20.1947C21.3243 20.656 20.5674 20.9049 19.79 20.9049C19.0126 20.9049 18.2557 20.656 17.63 20.1947C16.4899 19.4011 15.1341 18.9757 13.745 18.9757C12.3559 18.9757 11.0001 19.4011 9.86 20.1947C9.2343 20.656 8.4774 20.9049 7.7 20.9049C6.9226 20.9049 6.1657 20.656 5.54 20.1947C4.4144 19.3757 3.0518 18.9472 1.66 18.9747H0V22.1847H1.61C2.39051 22.164 3.154 22.415 3.77 22.8947C4.908 23.6889 6.2623 24.1147 7.65 24.1147C9.0377 24.1147 10.392 23.6889 11.53 22.8947C12.1468 22.4165 12.9097 22.1657 13.69 22.1847C14.4708 22.1623 15.2348 22.4135 15.85 22.8947C16.9901 23.6884 18.3459 24.1138 19.735 24.1138C21.1241 24.1138 22.4799 23.6884 23.62 22.8947Z" fill="#0EA5E9"/>
</svg>
