<svg width="8" height="9" viewBox="0 0 8 9" fill="none" xmlns="http://www.w3.org/2000/svg">
<path d="M1.10231 5.2765C0.56881 5.4194 0.242109 5.9775 0.512609 6.459C0.797309 6.9658 1.19111 7.4081 1.67021 7.7514C2.42241 8.2904 3.33821 8.552 4.26171 8.4914C5.18511 8.4309 6.05901 8.0521 6.73441 7.4195C7.40991 6.7869 7.84501 5.9396 7.96581 5.0221C8.08661 4.1046 7.88561 3.1736 7.39691 2.3877C6.90821 1.6019 6.16211 1.0098 5.28581 0.712298C4.40951 0.414798 3.45721 0.430398 2.59111 0.756398C2.03951 0.963998 1.54471 1.2893 1.13851 1.7051C0.752609 2.1002 0.923709 2.7239 1.40201 3L1.90931 3.2929C2.68081 3.7384 2.52871 4.8943 1.66811 5.1249L1.10231 5.2765Z" fill="#67E8F9"/>
</svg>
