<svg width="32" height="16" viewBox="0 0 32 16" fill="none" xmlns="http://www.w3.org/2000/svg">
<path d="M0 0.0125732C-2.91433e-07 2.04977 0.401247 4.06697 1.18083 5.94907C1.96042 7.83117 3.10307 9.54127 4.54356 10.9818C5.98404 12.4222 7.69415 13.5649 9.57623 14.3445C11.4583 15.1241 13.4755 15.5253 15.5127 15.5253C17.5498 15.5253 19.567 15.1241 21.4491 14.3445C23.3312 13.5649 25.0413 12.4222 26.4818 10.9818C27.9223 9.54127 29.0649 7.83117 29.8445 5.94907C30.6241 4.06697 31.0254 2.04977 31.0254 0.0125732H26.1776C24.5712 0.0125732 23.3184 1.35877 22.73 2.85347C22.7133 2.89607 22.6961 2.93847 22.6786 2.98087C22.2888 3.92187 21.7175 4.77697 20.9972 5.49717C20.277 6.21737 19.4219 6.78877 18.4809 7.17857C17.5399 7.56837 16.5313 7.76897 15.5127 7.76897C14.4941 7.76897 13.4855 7.56837 12.5445 7.17857C11.6034 6.78877 10.7484 6.21737 10.0281 5.49717C9.30787 4.77697 8.73655 3.92187 8.34676 2.98087C7.95696 2.03977 7.75634 1.03117 7.75634 0.0125732H0Z" fill="#FB923C"/>
</svg>
