<svg width="21" height="18" viewBox="0 0 21 18" fill="none" xmlns="http://www.w3.org/2000/svg">
<path d="M21.0001 0.531222L18.5001 0.531222C18.3031 0.531222 18.108 0.570033 17.926 0.645406C17.7441 0.720779 17.5787 0.831248 17.4393 0.970519C17.3001 1.1099 17.1896 1.27527 17.1142 1.45718C17.0388 1.63919 17 1.83426 17 2.03124L17 7.53125C16.5 9.53083 16.4065 10.1247 15 11.5313C13.5935 12.9378 12.4892 14.0312 10.5 14.0313C9.51511 14.0313 8.90995 13.9082 8 13.5312C7.09004 13.1543 6.19645 12.2277 5.5 11.5313C4.80356 10.8348 4.87691 10.9412 4.5 10.0312C4.12309 9.1213 4.00003 8.51617 4.00004 7.53125L4.00004 2.03169C4.0001 1.83471 3.96134 1.63953 3.88599 1.45751C3.81063 1.2755 3.70015 1.11002 3.56086 0.970745C3.42155 0.831362 3.25617 0.720892 3.07415 0.645407C2.89214 0.570034 2.69705 0.531223 2.50002 0.531223L-7.43095e-07 0.531223L-4.15255e-07 7.03133C-3.55061e-07 8.4102 0.271592 9.77558 0.799269 11.0495C1.32695 12.3234 2.10038 13.4809 3.07539 14.4559C4.05042 15.4309 5.20793 16.2044 6.48186 16.732C7.75578 17.2597 9.12116 17.5313 10.5 17.5312C13.2848 17.5312 15.9555 16.425 17.9247 14.4559C19.8938 12.4868 21.0001 9.81609 21.0001 7.03133L21.0001 0.531222Z" fill="#EA580C"/>
</svg>
