<svg width="32" height="17" viewBox="0 0 32 17" fill="none" xmlns="http://www.w3.org/2000/svg">
<path d="M0.5 0.512695C0.5 2.5499 0.901247 4.5671 1.68083 6.4492C2.46042 8.3313 3.60307 10.0414 5.04356 11.4819C6.48404 12.9223 8.19415 14.065 10.0762 14.8446C11.9583 15.6242 13.9755 16.0254 16.0127 16.0254C18.0498 16.0254 20.067 15.6242 21.9491 14.8446C23.8312 14.065 25.5413 12.9223 26.9818 11.4819C28.4223 10.0414 29.5649 8.3313 30.3445 6.4492C31.1241 4.5671 31.5254 2.5499 31.5254 0.512695H26.6776C25.0712 0.512695 23.8184 1.8589 23.23 3.3536C23.2133 3.3962 23.1961 3.4386 23.1786 3.481C22.7888 4.422 22.2175 5.2771 21.4972 5.9973C20.777 6.7175 19.9219 7.2889 18.9809 7.6787C18.0399 8.0685 17.0313 8.26909 16.0127 8.26909C14.9941 8.26909 13.9855 8.0685 13.0445 7.6787C12.1034 7.2889 11.2484 6.7175 10.5281 5.9973C9.80787 5.2771 9.23655 4.422 8.84676 3.481C8.45696 2.5399 8.25634 1.5313 8.25634 0.512695H0.5Z" fill="#FB923C"/>
</svg>
