<svg width="32" height="17" viewBox="0 0 32 17" fill="none" xmlns="http://www.w3.org/2000/svg">
<path d="M31.7809 16.0127C31.7809 11.8985 30.1465 7.95275 27.2373 5.04356C24.3281 2.13437 20.3824 0.500001 16.2682 0.5C12.154 0.499999 8.20827 2.13437 5.29907 5.04356C2.38986 7.95275 0.755493 11.8985 0.755493 16.0127H5.60327C7.20967 16.0127 8.46247 14.6665 9.05087 13.1717C9.43717 12.1903 10.0234 11.2884 10.7836 10.5281C12.2382 9.07352 14.2111 8.25634 16.2682 8.25634C18.3253 8.25634 20.2982 9.07352 21.7528 10.5281C23.2074 11.9827 24.0245 13.9556 24.0245 16.0127H31.7809Z" fill="#0D9488"/>
</svg>
