<svg width="23" height="23" viewBox="0 0 23 23" fill="none" xmlns="http://www.w3.org/2000/svg">
<path fill-rule="evenodd" clip-rule="evenodd" d="M22.2918 0.751221C18.6831 0.751221 15.2608 2.35413 12.9505 5.12643L4.73152 14.9893L9.47752 7.87024L1.59952 11.2465C0.599019 11.6753 0.348018 12.9788 1.11762 13.7485L3.65282 16.2836L2.35842 17.8369L5.20612 20.6845L6.75932 19.3901L9.29452 21.9253C10.0641 22.6949 11.3677 22.4439 11.7964 21.4435L15.1727 13.5655L8.05372 18.3115L17.9166 10.0924C20.6889 7.78224 22.2918 4.35994 22.2918 0.751221ZM14.4609 8.58234C15.2472 9.36864 16.5221 9.36864 17.3085 8.58234C18.0948 7.79594 18.0948 6.52104 17.3085 5.73474C16.5221 4.94835 15.2472 4.94835 14.4609 5.73474C13.6745 6.52104 13.6745 7.79594 14.4609 8.58234Z" fill="#A78BFA"/>
</svg>
