<svg width="32" height="16" viewBox="0 0 32 16" fill="none" xmlns="http://www.w3.org/2000/svg">
<path d="M31.2808 15.5127C31.2808 11.3985 29.6464 7.45275 26.7372 4.54356C23.828 1.63437 19.8823 5.39515e-07 15.7681 0C11.6539 -5.39514e-07 7.70815 1.63437 4.79895 4.54356C1.88974 7.45275 0.255371 11.3985 0.255371 15.5127H5.10315C6.70955 15.5127 7.96235 14.1665 8.55075 12.6717C8.93705 11.6903 9.52325 10.7884 10.2835 10.0281C11.7381 8.57352 13.711 7.75634 15.7681 7.75634C17.8252 7.75634 19.7981 8.57352 21.2527 10.0281C22.7073 11.4827 23.5244 13.4556 23.5244 15.5127H31.2808Z" fill="#0D9488"/>
</svg>
