<svg width="33" height="32" viewBox="0 0 33 32" fill="none" xmlns="http://www.w3.org/2000/svg">
<path fill-rule="evenodd" clip-rule="evenodd" d="M16.396 32C25.2326 32 32.396 24.8366 32.396 16C32.396 7.16345 25.2326 0 16.396 0C7.55943 0 0.395996 7.16345 0.395996 16C0.395996 24.8366 7.55943 32 16.396 32ZM21.3875 7.45348C21.6304 6.59044 20.7929 6.08011 20.028 6.62504L9.3505 14.2317C8.52098 14.8226 8.65146 16 9.5465 16H12.3582V15.9782H17.838L13.373 17.5537L11.4046 24.5466C11.1616 25.4096 11.9991 25.9199 12.764 25.375L23.4415 17.7684C24.2711 17.1774 24.1405 16 23.2455 16H18.9817L21.3875 7.45348Z" fill="#475569"/>
</svg>
