<svg width="22" height="22" viewBox="0 0 22 22" fill="none" xmlns="http://www.w3.org/2000/svg">
<path fill-rule="evenodd" clip-rule="evenodd" d="M21.7917 0.251221C18.183 0.251221 14.7607 1.85413 12.4504 4.62643L4.2314 14.4893L8.9774 7.37024L1.0994 10.7465C0.0988972 11.1753 -0.152104 12.4788 0.617496 13.2485L3.1527 15.7836L1.8583 17.3369L4.706 20.1845L6.2592 18.8901L8.79439 21.4253C9.56399 22.1949 10.8676 21.9439 11.2963 20.9435L14.6726 13.0655L7.5536 17.8115L17.4165 9.59244C20.1888 7.28224 21.7917 3.85994 21.7917 0.251221ZM13.9608 8.08234C14.7471 8.86864 16.022 8.86864 16.8084 8.08234C17.5947 7.29594 17.5947 6.02104 16.8084 5.23474C16.022 4.44835 14.7471 4.44835 13.9608 5.23474C13.1744 6.02104 13.1744 7.29594 13.9608 8.08234Z" fill="#A78BFA"/>
</svg>
