<svg width="43" height="42" viewBox="0 0 43 42" fill="none" xmlns="http://www.w3.org/2000/svg">
<path fill-rule="evenodd" clip-rule="evenodd" d="M24.1046 1.72402C22.6108 0.230887 20.1895 0.231377 18.6964 1.72513L6.23505 14.1916L6.22443 14.1885L6.18505 14.1927C6.20127 14.2005 6.21719 14.2082 6.23279 14.216C4.04681 14.445 3.11933 15.1019 3.10883 15.9455C3.11253 16.2593 3.24128 16.5982 3.47777 16.95L3.4664 16.9614C5.45368 19.9587 15.2986 23.9126 22.2636 21.2337C17.0436 23.8437 4.75025 24.361 1.1395 19.2934C0.355356 20.1417 0.0272761 21.2565 0.150826 22.3278C1.10469 27.5852 11.7689 29.0195 22.4332 21.4022L24.7409 23.7099C21.8693 26.6601 17.6276 43.7966 23.9303 41.1802C24.0798 41.0787 24.2067 40.9879 24.3793 40.8573L24.6602 40.5921C24.644 40.5961 24.6279 40.5999 24.6119 40.6037L41.4919 24.668C43.0592 23.1883 43.0947 20.7064 41.5702 19.1825L24.1046 1.72402ZM22.2664 6.91731L22.8433 4.60962L23.4202 6.91731L25.151 7.49424L23.4202 8.07118L22.8433 10.3789L22.2664 8.07118L20.5356 7.49424L22.2664 6.91731ZM15.1255 14.4507L15.5101 12.9122L15.8947 14.4507L17.0486 14.8353L15.8947 15.2199L15.5101 16.7584L15.1255 15.2199L13.9717 14.8353L15.1255 14.4507ZM28.5211 27.4276L28.1365 28.966L26.9827 29.3507L28.1365 29.7353L28.5211 31.2737L28.9057 29.7353L30.0596 29.3507L28.9057 28.966L28.5211 27.4276Z" fill="#4F46E5"/>
</svg>
