<svg width="58" height="48" viewBox="0 0 58 48" fill="none" xmlns="http://www.w3.org/2000/svg">
<path d="M18.2192 48C40.107 48 52.0804 29.5284 52.0804 13.5378C52.0804 13.0209 52.0804 12.4967 52.0586 11.9798C54.3897 10.261 56.4016 8.13315 58 5.69579C55.8225 6.67365 53.515 7.31813 51.1524 7.60831C53.6411 6.0932 55.505 3.70932 56.3977 0.899742C54.0596 2.31059 51.5004 3.30099 48.8324 3.82759C47.0387 1.88193 44.6651 0.592993 42.0793 0.160424C39.4935 -0.272144 36.8399 0.175798 34.5294 1.43487C32.2188 2.69393 30.3804 4.69386 29.2989 7.12486C28.2173 9.55587 27.953 12.2823 28.5469 14.8818C23.8153 14.6401 19.1865 13.3882 14.9605 11.2072C10.7346 9.02614 7.00598 5.96474 4.0165 2.22152C2.49886 4.89122 2.0357 8.04915 2.72109 11.054C3.40648 14.0589 5.18902 16.6855 7.70675 18.4003C5.82008 18.3351 3.97489 17.8191 2.32 16.894V17.0601C2.32325 19.8568 3.27449 22.5666 5.01292 24.7314C6.75135 26.8963 9.17034 28.3833 11.861 28.9413C10.8397 29.2279 9.78471 29.3707 8.72538 29.3659C7.97857 29.3682 7.23325 29.2978 6.49962 29.1555C7.2601 31.5629 8.74086 33.6678 10.7345 35.1754C12.7282 36.6829 15.1349 37.5175 17.6175 37.5624C13.4 40.9363 8.19033 42.7661 2.8275 42.7572C1.88254 42.7613 0.938234 42.7058 0 42.5911C5.44299 46.1254 11.7642 48.002 18.2192 48Z" fill="#EEEEEE"/>
</svg>
