<svg width="28" height="24" viewBox="0 0 28 24" fill="none" xmlns="http://www.w3.org/2000/svg">
<path d="M0.91 10.3847C1.64777 7.4194 3.35643 4.7861 5.7639 2.90424C8.1714 1.02234 11.1393 0 14.195 0C17.2507 0 20.2186 1.02234 22.6261 2.90424C25.0336 4.7861 26.7422 7.4194 27.48 10.3847H26.28C24.2557 10.3549 22.2729 10.9599 20.61 12.1147C20.514 12.1842 20.4138 12.2477 20.31 12.3047H20.17C20.0662 12.2477 19.966 12.1842 19.87 12.1147C18.1924 10.9866 16.2166 10.3841 14.195 10.3841C12.1734 10.3841 10.1976 10.9866 8.52 12.1147C8.424 12.1842 8.3238 12.2477 8.22 12.3047H8.08C7.9762 12.2477 7.876 12.1842 7.78 12.1147C6.1171 10.9599 4.1343 10.3549 2.11 10.3847H0.91ZM24.12 16.6547C24.736 16.175 25.4995 15.924 26.28 15.9447H27.89V12.7347H26.28C24.9052 12.7181 23.5619 13.146 22.45 13.9547C21.8243 14.416 21.0674 14.6649 20.29 14.6649C19.5126 14.6649 18.7557 14.416 18.13 13.9547C16.9899 13.1611 15.6341 12.7356 14.245 12.7356C12.8559 12.7356 11.5001 13.1611 10.36 13.9547C9.7343 14.416 8.9774 14.6649 8.2 14.6649C7.4226 14.6649 6.6657 14.416 6.04 13.9547C4.9144 13.1356 3.5518 12.7072 2.16 12.7347H0.5V15.9447H2.11C2.89051 15.924 3.654 16.175 4.27 16.6547C5.408 17.4489 6.7623 17.8747 8.15 17.8747C9.5377 17.8747 10.892 17.4489 12.03 16.6547C12.6468 16.1765 13.4097 15.9257 14.19 15.9447C14.9708 15.9223 15.7348 16.1735 16.35 16.6547C17.4901 17.4484 18.8459 17.8738 20.235 17.8738C21.6241 17.8738 22.9799 17.4484 24.12 16.6547ZM24.12 22.3947C24.736 21.915 25.4995 21.664 26.28 21.6847H27.89V18.4747H26.28C24.9052 18.4581 23.5619 18.886 22.45 19.6947C21.8243 20.156 21.0674 20.4049 20.29 20.4049C19.5126 20.4049 18.7557 20.156 18.13 19.6947C16.9899 18.9011 15.6341 18.4757 14.245 18.4757C12.8559 18.4757 11.5001 18.9011 10.36 19.6947C9.7343 20.156 8.9774 20.4049 8.2 20.4049C7.4226 20.4049 6.6657 20.156 6.04 19.6947C4.9144 18.8757 3.5518 18.4472 2.16 18.4747H0.5V21.6847H2.11C2.89051 21.664 3.654 21.915 4.27 22.3947C5.408 23.1889 6.7623 23.6147 8.15 23.6147C9.5377 23.6147 10.892 23.1889 12.03 22.3947C12.6468 21.9165 13.4097 21.6657 14.19 21.6847C14.9708 21.6623 15.7348 21.9135 16.35 22.3947C17.4901 23.1884 18.8459 23.6138 20.235 23.6138C21.6241 23.6138 22.9799 23.1884 24.12 22.3947Z" fill="#0EA5E9"/>
</svg>
