<svg width="8" height="9" viewBox="0 0 8 9" fill="none" xmlns="http://www.w3.org/2000/svg">
<path d="M6.8978 5.2765C7.4313 5.4194 7.758 5.9775 7.4875 6.459C7.2028 6.9658 6.809 7.4081 6.33 7.7514C5.5778 8.2904 4.6619 8.552 3.7385 8.4914C2.81502 8.4309 1.94113 8.0521 1.2657 7.4195C0.590269 6.7869 0.155079 5.9396 0.0342889 5.0221C-0.0865011 4.1046 0.114569 3.1736 0.603259 2.3877C1.09194 1.6019 1.838 1.0098 2.71431 0.712298C3.5906 0.414798 4.543 0.430398 5.4091 0.756398C5.9606 0.963998 6.4555 1.2893 6.8617 1.7051C7.2476 2.1002 7.0764 2.7239 6.5981 3L6.0908 3.2929C5.3193 3.7384 5.4715 4.8943 6.332 5.1249L6.8978 5.2765Z" fill="#67E8F9"/>
</svg>
