<svg width="38" height="33" viewBox="0 0 38 33" fill="none" xmlns="http://www.w3.org/2000/svg">
<path fill-rule="evenodd" clip-rule="evenodd" d="M18.1068 0.459675L18.0874 0.426025H10.0404L0.507324 16.7685L7.05126 28.2185L7.05929 28.2046L9.53317 32.4895L28.4526 32.5741L35.0967 21.1818H35.0525L37.5069 16.9307L28.1205 0.503605L18.1068 0.459675ZM24.3316 11.3581H24.3818L19.6515 3.14259L26.5636 3.1729L34.4208 16.9238L31.9615 21.1836L25.5165 21.187L27.7636 17.2951L24.3316 11.3581ZM16.4681 3.10209L19.6935 8.68187L15.2277 8.68177L7.58213 21.9407L7.06061 22.8416L3.59748 16.7821L11.5775 3.10209H16.4681ZM13.367 17.2657L16.7736 11.3579L21.2406 11.3581L24.673 17.2959L22.4254 21.1887L15.6339 21.1924L13.367 17.2657ZM8.60335 25.5268L9.89937 23.2793L11.8267 19.9502L14.0892 23.8693L20.8797 23.8656L20.8687 23.8846L30.4159 23.8959L26.9194 29.8912L11.0822 29.8203L8.60335 25.5268Z" fill="#1E293B"/>
</svg>
