<svg width="31" height="32" viewBox="0 0 31 32" fill="none" xmlns="http://www.w3.org/2000/svg">
<path fill-rule="evenodd" clip-rule="evenodd" d="M-0.00402832 16.3482L-0.00248432 16.1879L0.000699616 16.0275L0.00553169 15.8671L0.0120037 15.7067L0.0201317 15.5463L0.0298996 15.3859L0.0413237 15.2256L0.0543877 15.0653L0.0691076 14.905L0.0854757 14.7448L0.103492 14.5848L0.123148 14.4248L0.14446 14.265L0.16742 14.1053L0.19202 13.9458L0.218268 13.7865L0.246164 13.6273L0.275692 13.4684L0.306868 13.3097L0.339684 13.1512L0.37414 12.993L0.41022 12.835L0.447948 12.6774L0.487292 12.5201L0.528276 12.3631L0.570876 12.2064L0.615108 12.0501L0.660956 11.8942L0.70842 11.7386L0.757492 11.5835L0.80818 11.4288L0.860476 11.2745L0.914372 11.1206L0.96986 10.9673L1.02695 10.8144L1.08562 10.662L1.14588 10.5102L1.20772 10.3588L1.27114 10.2081L1.33612 10.0578L1.40268 9.90816L1.47079 9.75912L1.54045 9.61072L1.61167 9.46288L1.68443 9.31568L1.75872 9.1692L1.83455 9.02336L1.9119 8.87816L1.99076 8.73376L2.07114 8.59L2.15303 8.44696L2.2364 8.30472L2.32128 8.1632L2.40763 8.02248L2.49546 7.88256L2.58476 7.74344L2.67552 7.6052L2.76773 7.46768L2.86139 7.33112L2.95648 7.19536L3.053 7.06048L3.15094 6.92656L3.25029 6.79344L3.35104 6.66136L3.4532 6.53016L3.55672 6.39987L3.66163 6.27059L3.7679 6.14229L3.87552 6.01498L3.9845 5.88866L4.09481 5.76338L4.20644 5.63913L4.3194 5.51592L4.43366 5.39378L4.54921 5.2727L4.66605 5.15272L4.78416 5.03383L4.90354 4.91606L5.02417 4.79941L5.14604 4.6839L5.26915 4.56954L5.39347 4.45634L5.519 4.34433L5.64572 4.2335L5.77364 4.12386L5.90272 4.01544L6.03296 3.90825L6.16435 3.80229L6.29688 3.69758L6.43053 3.59412L6.56525 3.49194L6.70117 3.39104L6.83813 3.29144L6.97613 3.19314L7.11517 3.09616L7.25533 3.0005L7.39645 2.90618L7.53861 2.81321L7.68181 2.72159L7.82605 2.63135L7.97117 2.54249L8.11733 2.45501L8.26437 2.36894L8.41237 2.28427L8.56133 2.20102L8.71117 2.11921L8.86189 2.03882L9.01349 1.9599L9.16597 1.88242L9.31933 1.80641L9.47349 1.73187L9.62853 1.65882L9.78429 1.58726L9.94093 1.5172L10.0983 1.44865L10.2565 1.38162L10.4153 1.31611L10.5749 1.25214L10.7353 1.1897L10.8963 1.12882L11.058 1.06948L11.2204 1.01172L11.3834 0.95552L11.5471 0.900896L11.7113 0.847864L11.8762 0.796416L12.0417 0.746568L12.2078 0.698328L12.3744 0.651696L12.5416 0.606672L12.7093 0.563272L12.8774 0.521504L13.0461 0.481376L13.2153 0.442872L13.3849 0.406024L13.5549 0.370816L13.7253 0.337264L13.8962 0.305376L14.0675 0.275144L14.2392 0.246584L14.4112 0.219696L14.5835 0.19448L14.7561 0.170952L14.9291 0.149104L15.1024 0.128944L15.2759 0.110464L15.4497 0.093696L15.6237 0.078616L15.7979 0.0652321L15.9723 0.0535601L16.9102 0L16.9637 4.51894L16.9944 4.51858L17.1239 4.5184L17.2534 4.51949L17.3829 4.52185L17.5126 4.52549L17.6422 4.5304L17.7719 4.53658L17.9016 4.54404L18.0313 4.55278L18.1609 4.56279L18.2905 4.57409L18.4201 4.58666L18.5496 4.60052L18.6789 4.61565L18.8083 4.63206L18.9375 4.64974L19.0666 4.6687L19.1956 4.68895L19.3245 4.71047L19.4531 4.73326L19.5817 4.75734L19.71 4.78268L19.8381 4.8093L19.9661 4.83719L20.0937 4.86635L20.2212 4.89678L20.3485 4.92847L20.4754 4.96144L20.6021 4.99566L20.7285 5.03115L20.8546 5.0679L20.9804 5.1059L21.1058 5.14515L21.2309 5.18566L21.3557 5.22742L21.4801 5.27042L21.6041 5.31467L21.7278 5.36015L21.851 5.40688L21.9738 5.45483L22.0962 5.50402L22.2181 5.55444L22.3396 5.60607L22.4606 5.65893L22.5812 5.713L22.7012 5.76828L22.8207 5.82476L22.9397 5.88245L23.0582 5.94134L23.1761 6.00142L23.2935 6.06268L23.4103 6.12513L23.5265 6.18876L23.6421 6.25356L23.7572 6.31953L23.8716 6.38666L23.9853 6.45496L24.0985 6.5244L24.2109 6.59496L24.3227 6.66672L24.4338 6.73952L24.5442 6.81352L24.654 6.88864L24.7629 6.9648L24.8713 7.04216L24.9788 7.12056L25.0855 7.20008L25.1916 7.28072L25.2968 7.3624L25.4013 7.4452L25.5049 7.52896L25.6077 7.61384L25.7097 7.69984L25.8109 7.7868L25.9113 7.8748L26.0109 7.96384L26.1094 8.05392L26.2072 8.14504L26.3041 8.23712L26.4001 8.33016L26.4951 8.42424L26.5893 8.51928L26.6825 8.61536L26.7748 8.71232L26.8661 8.81024L26.9565 8.90912L27.0458 9.00896L27.1342 9.10968L27.2217 9.21136L27.3081 9.31392L27.3935 9.41736L27.4779 9.52176L27.5613 9.62696L27.6436 9.73304L27.7249 9.84L27.8051 9.94784L27.8842 10.0565L27.9623 10.166L28.0393 10.2763L28.1152 10.3874L28.19 10.4993L28.2637 10.612L28.3362 10.7255L28.4076 10.8398L28.4779 10.9547L28.547 11.0705L28.615 11.187L28.6818 11.3042L28.7475 11.4221L28.812 11.5407L28.8752 11.66L28.9373 11.78L28.9982 11.9006L29.0579 12.0219L29.1164 12.1439L29.1737 12.2665L29.2297 12.3897L29.2845 12.5135L29.338 12.6379L29.3902 12.763L29.4413 12.8885L29.491 13.0146L29.5395 13.1413L29.5867 13.2686L29.6326 13.3962L29.6773 13.5246L29.7206 13.6533L29.7627 13.7826L29.8034 13.9122L29.8429 14.0424L29.8809 14.173L29.9177 14.3041L29.9532 14.4356L29.9873 14.5675L30.0201 14.6998L30.0516 14.8325L30.0817 14.9655L30.1104 15.099L30.1378 15.2326L30.1638 15.3668L30.1885 15.5012L30.2118 15.6359L30.2337 15.7709L30.2543 15.9062L30.2735 16.0418L30.2913 16.1775L30.3077 16.3136L30.3227 16.4498L30.3363 16.5863L30.3485 16.723L30.3594 16.8598L30.3689 16.9969L30.3769 17.1341L30.3835 17.2714L30.3888 17.4089L30.3925 17.5464L30.395 17.6841L30.396 17.8218L30.3956 17.9597L30.3937 18.0976L30.3905 18.2356L30.3858 18.3735L30.3797 18.5115L30.3723 18.6495L30.3633 18.7875L30.353 18.9255L30.3413 19.0634L30.3281 19.2014L30.3135 19.3392L30.2974 19.4769L30.28 19.6146L30.2612 19.7521L30.2409 19.8895L30.2192 20.0268L30.1961 20.1639L30.1715 20.3009L30.1456 20.4377L30.1182 20.5743L30.0894 20.7107L30.0592 20.8469L30.0276 20.9829L29.9946 21.1186L29.9601 21.254L29.9243 21.3891L29.8871 21.524L29.8485 21.6586L29.8085 21.7928L29.767 21.9268L29.7241 22.0603L29.68 22.1936L29.6344 22.3264L29.5873 22.4589L29.539 22.591L29.4893 22.7226L29.4381 22.8538L29.3857 22.9846L29.3318 23.1149L29.2766 23.2447L29.2201 23.3742L29.1621 23.503L29.1028 23.6314L29.0422 23.7592L28.9803 23.8865L28.9169 24.0133L28.8524 24.1394L28.7864 24.2651L28.7192 24.3901L28.6505 24.5146L28.5807 24.6383L28.5095 24.7615L28.437 24.8841L28.3633 25.0059L28.2882 25.1272L28.2118 25.2477L28.1342 25.3675L28.0554 25.4866L27.9753 25.605L27.8939 25.7227L27.8113 25.8397L27.7274 25.9558L27.6423 26.0713L27.556 26.1859L27.4685 26.2998L27.3797 26.4127L27.2898 26.525L27.1987 26.6363L27.1064 26.7468L27.0129 26.8565L26.9182 26.9653L26.8224 27.0732L26.7254 27.1802L26.6273 27.2864L26.5281 27.3916L26.4277 27.4959L26.3263 27.5992L26.2237 27.7016L26.12 27.803L26.0153 27.9035L25.9094 28.003L25.8025 28.1015L25.6945 28.199L25.5855 28.2954L25.4755 28.3909L25.3644 28.4854L25.2523 28.5787L25.1392 28.671L25.0251 28.7622L24.91 28.8524L24.7939 28.9414L24.6769 29.0294L24.5589 29.1162L24.44 29.202L24.3201 29.2866L24.1993 29.3701L24.0776 29.4524L23.955 29.5335L23.8315 29.6135L23.7072 29.6924L23.582 29.77L23.4559 29.8465L23.3289 29.9217L23.2012 29.9958L23.0727 30.0686L22.9433 30.1401L22.8132 30.2105L22.6822 30.2795L22.5505 30.3474L22.4181 30.414L22.2849 30.4793L22.1509 30.5433L22.0163 30.6061L21.8809 30.6675L21.7449 30.7277L21.6082 30.7865L21.4709 30.844L21.3329 30.9002L21.1942 30.9551L21.0549 31.0086L20.915 31.0609L20.7745 31.1117L20.6334 31.1612L20.4918 31.2093L20.3497 31.2561L20.2069 31.3014L20.0636 31.3454L19.9198 31.3881L19.7756 31.4293L19.6308 31.4691L19.4856 31.5076L19.3398 31.5446L19.1937 31.5802L19.0472 31.6144L18.9001 31.6471L18.7528 31.6785L18.605 31.7084L18.4569 31.7369L18.3084 31.7639L18.1596 31.7894L18.0104 31.8136L17.8609 31.8363L17.7111 31.8575L17.5611 31.8773L17.4108 31.8956L17.2601 31.9124L17.1093 31.9278L16.9583 31.9417L16.8071 31.9541L16.6557 31.965L16.5041 31.9745L16.3522 31.9825L16.2003 31.989L16.0483 31.9939L15.8961 31.9974L15.7438 31.9994L15.5914 32L15.439 31.999L15.2865 31.9966L15.134 31.9926L14.9814 31.9871L14.8289 31.9802L14.6763 31.9718L14.5238 31.9618L14.3713 31.9503L14.2189 31.9374L14.0665 31.9229L13.9141 31.907L13.762 31.8895L13.6099 31.8706L13.4579 31.8501L13.3061 31.8281L13.1545 31.8046L13.003 31.7797L12.8517 31.7533L12.7006 31.7253L12.5498 31.6958L12.3992 31.665L12.2489 31.6325L12.0987 31.5986L11.9489 31.5632L11.7994 31.5263L11.6502 31.4879L11.5013 31.4481L11.3529 31.4068L11.2047 31.364L11.0569 31.3198L10.9095 31.274L10.7625 31.2268L10.616 31.1782L10.4698 31.128L10.3241 31.0764L10.1789 31.0234L10.0342 30.969L9.88997 30.913L9.74629 30.8557L9.60309 30.7969L9.46045 30.7366L9.31837 30.675L9.17685 30.612L9.03589 30.5475L8.89557 30.4816L8.75589 30.4143L8.61685 30.3456L8.47837 30.2755L8.34061 30.2041L8.20357 30.1312L8.06709 30.057L7.93141 29.9814L7.79645 29.9045L7.66221 29.8262L7.52869 29.7465L7.39597 29.6655L7.26397 29.5831L7.13277 29.4995L7.00245 29.4145L6.87285 29.3282L6.74413 29.2406L6.61629 29.1517L6.48925 29.0615L6.3631 28.97L6.23784 28.8773L6.11347 28.7832L5.99002 28.6879L5.86749 28.5914L5.7459 28.4936L5.62527 28.3946L5.5056 28.2944L5.3869 28.193L5.2692 28.0903L5.1525 27.9864L5.03682 27.8814L4.92217 27.7752L4.80856 27.6678L4.696 27.5593L4.58452 27.4495L4.4741 27.3387L4.36478 27.2268L4.25656 27.1137L4.14946 26.9995L4.04348 26.8842L3.93865 26.7678L3.83496 26.6504L3.73244 26.5319L3.63108 26.4123L3.53092 26.2918L3.43195 26.1701L3.33418 26.0474L3.23764 25.9238L3.14232 25.7991L3.04824 25.6734L2.9554 25.5468L2.86384 25.4192L2.77353 25.2906L2.68452 25.1612L2.59679 25.0308L2.51036 24.8994L2.42525 24.7673L2.34145 24.6342L2.25899 24.5002L2.17787 24.3654L2.09809 24.2296L2.01968 24.0931L1.94264 23.9558L1.86696 23.8176L1.79268 23.6786L1.71979 23.5388L1.64831 23.3983L1.57823 23.257L1.50958 23.115L1.44236 22.9722L1.37656 22.8288L1.31222 22.6846L1.24932 22.5398L1.18789 22.3942L1.12793 22.248L1.06944 22.1011L1.01243 21.9536L0.956916 21.8055L0.902892 21.6568L0.850372 21.5075L0.799356 21.3577L0.74986 21.2072L0.701892 21.0562L0.655444 20.9047L0.61054 20.7527L0.567172 20.6002L0.525348 20.4471L0.485076 20.2937L0.446364 20.1398L0.409212 19.9854L0.373636 19.8306L0.339628 19.6753L0.307196 19.5197L0.276348 19.3637L0.247084 19.2074L0.219412 19.0506L0.19334 18.8936L0.16886 18.7362L0.145988 18.5786L0.124724 18.4206L0.105076 18.2623L0.0870358 18.1038L0.0706118 17.9451L0.0558117 17.7862L0.0426357 17.627L0.0310837 17.4677L0.0211638 17.3082L0.0128757 17.1485L0.00621967 16.9886L0.00119572 16.8287L-0.0021883 16.6686L-0.00392437 16.5085L-0.00402832 16.3482ZM15.4985 4.61359L15.462 1.53343L15.4273 1.53678L15.2683 1.5537L15.1097 1.57217L14.9511 1.5922L14.7932 1.61372L14.6354 1.63681L14.4778 1.66144L14.3207 1.68758L14.1637 1.71529L14.0076 1.74443L13.8512 1.77521L13.6959 1.80737L13.5404 1.84115L13.3857 1.87637L13.2311 1.91315L13.0773 1.95134L12.9238 1.99107L12.7708 2.03228L12.6182 2.07498L12.4664 2.1191L12.3148 2.16475L12.164 2.21182L12.0136 2.26038L11.864 2.31028L11.7146 2.36176L11.5661 2.41462L11.4182 2.46887L11.2708 2.52461L11.1241 2.5817L10.9783 2.64018L10.8329 2.70015L10.6881 2.76149L10.5441 2.82422L10.4009 2.88828L10.2585 2.95373L10.1168 3.0205L9.97557 3.08874L9.83541 3.15822L9.69597 3.22906L9.55733 3.30124L9.41949 3.37475L9.28261 3.44952L9.14629 3.52567L9.01085 3.60314L8.87661 3.68172L8.74277 3.76183L8.61021 3.84301L8.47853 3.92545L8.34749 4.00924L8.21749 4.09426L8.08845 4.18051L7.96061 4.26778L7.83325 4.3566L7.70717 4.44637L7.58205 4.53738L7.45781 4.62963L7.33469 4.72298L7.21269 4.81746L7.09141 4.91326L6.97149 5.00997L6.85245 5.10795L6.73453 5.207L6.61765 5.3072L6.50197 5.40836L6.38716 5.5108L6.27365 5.61415L6.16112 5.7187L6.04988 5.82412L5.93967 5.93069L5.83068 6.03822L5.7228 6.14681L5.61596 6.25652L5.51053 6.36698L5.40628 6.4784L5.30296 6.59112L5.20108 6.70456L5.10044 6.8188L5.00083 6.93424L4.90267 7.0504L4.8056 7.1676L4.70983 7.2856L4.61532 7.40456L4.52204 7.52432L4.43013 7.64488L4.33943 7.76632L4.24997 7.88872L4.16196 8.01168L4.07512 8.13568L3.98966 8.26032L3.90552 8.38576L3.82265 8.512L3.74118 8.63896L3.66104 8.76656L3.58225 8.89496L3.50487 9.024L3.42876 9.15384L3.35401 9.2844L3.28074 9.41544L3.20878 9.5472L3.1382 9.67968L3.06904 9.81272L3.00125 9.9464L2.93492 10.0806L2.86996 10.2154L2.80644 10.3507L2.74431 10.4867L2.68364 10.6231L2.62436 10.7602L2.56652 10.8977L2.51016 11.0356L2.4552 11.1741L2.40169 11.313L2.34965 11.4524L2.29905 11.5922L2.24995 11.7324L2.20226 11.8731L2.15605 12.0142L2.11132 12.1556L2.06808 12.2973L2.02627 12.4395L1.98597 12.5819L1.94715 12.7247L1.9098 12.8678L1.87393 13.0112L1.83956 13.1548L1.80668 13.2987L1.77529 13.4429L1.7454 13.5873L1.717 13.7318L1.69008 13.8766L1.66468 14.0216L1.64076 14.1668L1.61836 14.3121L1.59744 14.4575L1.57804 14.6031L1.56012 14.7488L1.54372 14.8946L1.52881 15.0405L1.51541 15.1864L1.50351 15.3323L1.49311 15.4784L1.48421 15.6245L1.47681 15.7705L1.47092 15.9166L1.46652 16.0626L1.46362 16.2086L1.46221 16.3545L1.46231 16.5004L1.46389 16.6462L1.46697 16.7919L1.47154 16.9375L1.4776 17.083L1.48515 17.2283L1.49417 17.3734L1.50468 17.5185L1.51668 17.6633L1.53015 17.8079L1.54508 17.9524L1.5615 18.0966L1.57938 18.2406L1.59872 18.3842L1.61953 18.5277L1.6418 18.6709L1.66552 18.8137L1.69069 18.9562L1.71731 19.0985L1.74536 19.2403L1.77486 19.3819L1.80579 19.523L1.83815 19.6638L1.87193 19.8042L1.90713 19.9442L1.94376 20.0838L1.98177 20.2229L2.02121 20.3616L2.06204 20.4998L2.10427 20.6376L2.14788 20.7749L2.19287 20.9116L2.23924 21.0478L2.28698 21.1835L2.33608 21.3187L2.38653 21.4533L2.43836 21.5874L2.49151 21.7208L2.546 21.8537L2.60183 21.9859L2.65897 22.1175L2.71744 22.2486L2.77722 22.379L2.8383 22.5086L2.90067 22.6377L2.96433 22.766L3.02927 22.8937L3.09548 23.0206L3.16296 23.1469L3.23169 23.2724L3.30167 23.3971L3.37288 23.5211L3.44533 23.6444L3.51901 23.7668L3.59387 23.8885L3.66998 24.0094L3.74725 24.1294L3.82573 24.2486L3.90539 24.367L3.9862 24.4846L4.06816 24.6013L4.15131 24.7171L4.23556 24.8321L4.32098 24.9462L4.40748 25.0593L4.49513 25.1715L4.58384 25.2828L4.67366 25.3932L4.76459 25.5027L4.85653 25.6112L4.94957 25.7187L5.04364 25.8253L5.13879 25.9309L5.23493 26.0354L5.33208 26.139L5.43025 26.2416L5.52941 26.3432L5.62959 26.4438L5.73071 26.5432L5.83282 26.6417L5.93584 26.739L6.03982 26.8354L6.14476 26.9307L6.25059 27.0249L6.35727 27.1179L6.46493 27.2099L6.57349 27.3008L6.68277 27.3906L6.79309 27.4793L6.90413 27.5667L7.01605 27.6531L7.12877 27.7384L7.24237 27.8225L7.35669 27.9054L7.47181 27.9871L7.58765 28.0677L7.70437 28.1471L7.82173 28.2253L7.93997 28.3023L8.05877 28.3782L8.17837 28.4527L8.29869 28.5262L8.41957 28.5983L8.54125 28.6693L8.66349 28.739L8.78645 28.8074L8.90997 28.8746L9.03421 28.9406L9.15893 29.0054L9.28429 29.0689L9.41029 29.131L9.53685 29.192L9.66389 29.2517L9.79149 29.3101L9.91957 29.3671L10.0483 29.423L10.1774 29.4774L10.3071 29.5307L10.4372 29.5826L10.5677 29.6332L10.6988 29.6826L10.8301 29.7306L10.962 29.7772L11.0943 29.8226L11.2269 29.8666L11.36 29.9094L11.4933 29.9507L11.6271 29.9908L11.7611 30.0295L11.8955 30.0669L12.0302 30.103L12.1652 30.1377L12.3005 30.171L12.4359 30.203L12.5717 30.2338L12.7077 30.263L12.8439 30.291L12.9804 30.3177L13.117 30.343L13.2538 30.3669L13.3908 30.3894L13.5279 30.4106L13.6652 30.4305L13.8026 30.449L13.9401 30.4662L14.0777 30.4819L14.2153 30.4963L14.3531 30.5094L14.4909 30.5211L14.6288 30.5315L14.7666 30.5405L14.9045 30.5482L15.0424 30.5544L15.1802 30.5594L15.3181 30.563L15.4559 30.5651L15.5936 30.566L15.7313 30.5655L15.8689 30.5637L16.0063 30.5606L16.1437 30.556L16.2809 30.5502L16.4181 30.543L16.5549 30.5344L16.6917 30.5246L16.8284 30.5134L16.9648 30.5008L17.1009 30.4869L17.2369 30.4717L17.3726 30.4552L17.5081 30.4374L17.6433 30.4182L17.7783 30.3977L17.9129 30.3759L18.0473 30.3528L18.1814 30.3284L18.3151 30.3027L18.4485 30.2758L18.5815 30.2474L18.7141 30.2179L18.8464 30.187L18.9783 30.1549L19.1097 30.1215L19.2408 30.0868L19.3713 30.0509L19.5016 30.0137L19.6313 29.9752L19.7605 29.9355L19.8893 29.8946L20.0176 29.8524L20.1453 29.809L20.2725 29.7644L20.3993 29.7185L20.5254 29.6714L20.651 29.6231L20.7761 29.5737L20.9005 29.523L21.0243 29.4711L21.1476 29.4181L21.2702 29.3638L21.3921 29.3085L21.5136 29.2519L21.6343 29.1942L21.7543 29.1354L21.8737 29.0753L21.9924 29.0142L22.1104 28.9519L22.2277 28.8885L22.3442 28.824L22.4601 28.7584L22.5751 28.6918L22.6896 28.6239L22.803 28.5551L22.916 28.4851L23.0279 28.4142L23.1391 28.3421L23.2496 28.269L23.3593 28.1947L23.4679 28.1197L23.5758 28.0434L23.6829 27.9662L23.7892 27.8881L23.8946 27.8088L23.999 27.7287L24.1028 27.6474L24.2054 27.5654L24.3072 27.4823L24.4082 27.3982L24.5082 27.3132L24.6072 27.2274L24.7053 27.1405L24.8025 27.0528L24.8987 26.9642L24.994 26.8746L25.0881 26.7843L25.1815 26.693L25.2738 26.6008L25.3651 26.5078L25.4554 26.414L25.5446 26.3194L25.6328 26.2241L25.7201 26.1276L25.8062 26.0306L25.8914 25.9327L25.9754 25.8342L26.0585 25.7347L26.1404 25.6346L26.2212 25.5338L26.301 25.4321L26.3797 25.3298L26.4573 25.2267L26.5337 25.123L26.6092 25.0186L26.6836 24.9134L26.7565 24.8078L26.8286 24.7013L26.8994 24.5943L26.9692 24.4866L27.0379 24.3782L27.1053 24.2694L27.1715 24.1599L27.2367 24.0496L27.3005 23.9391L27.3633 23.8278L27.425 23.716L27.4853 23.6038L27.5446 23.4909L27.6027 23.3774L27.6594 23.2639L27.7151 23.1494L27.7696 23.0346L27.8228 22.9194L27.8748 22.8037L27.9256 22.6875L27.9751 22.571L28.0235 22.4539L28.0706 22.3365L28.1165 22.219L28.1611 22.1006L28.2045 21.9822L28.2467 21.8632L28.2877 21.744L28.3273 21.6244L28.3657 21.5048L28.4029 21.3843L28.4388 21.264L28.4734 21.1433L28.5069 21.0224L28.539 20.901L28.5698 20.7797L28.5995 20.6579L28.6278 20.5359L28.6549 20.4138L28.6808 20.2914L28.7053 20.1691L28.7285 20.0462L28.7505 19.9237L28.7713 19.8006L28.7907 19.6775L28.8089 19.5544L28.8258 19.431L28.8414 19.3078L28.8558 19.1841L28.8689 19.0608L28.8807 18.9371L28.8912 18.8137L28.9005 18.6898L28.9085 18.5665L28.9152 18.4427L28.9206 18.3189L28.9248 18.1954L28.9277 18.0721L28.9293 17.9483L28.9297 17.8248L28.9289 17.7014L28.9267 17.5782L28.9233 17.4549L28.9185 17.3321L28.9126 17.2088L28.9054 17.0861L28.8969 16.9634L28.8873 16.841L28.8763 16.7185L28.8641 16.5965L28.8507 16.4744L28.836 16.3527L28.8201 16.2311L28.8029 16.1099L28.7845 15.9886L28.7649 15.8679L28.7441 15.7476L28.722 15.6272L28.6986 15.5072L28.6741 15.3877L28.6484 15.2681L28.6216 15.1494L28.5933 15.0305L28.5641 14.9124L28.5335 14.7942L28.5018 14.6768L28.4689 14.5596L28.4349 14.4426L28.3997 14.3264L28.3633 14.2106L28.3256 14.0948L28.2869 13.9799L28.2469 13.8651L28.206 13.751L28.1637 13.6372L28.1205 13.5242L28.0759 13.4113L28.0303 13.299L27.9837 13.1875L27.9359 13.0765L27.8868 12.9656L27.8369 12.8558L27.7857 12.746L27.7335 12.6373L27.6802 12.529L27.6257 12.421L27.5704 12.314L27.5138 12.2074L27.4561 12.1014L27.3977 11.9963L27.338 11.8915L27.2773 11.7876L27.2155 11.6842L27.1529 11.5818L27.089 11.4796L27.0244 11.3784L26.9585 11.2777L26.8918 11.1778L26.8242 11.0789L26.7554 10.9803L26.6857 10.8826L26.6152 10.7857L26.5436 10.6896L26.4711 10.5941L26.3977 10.4995L26.3233 10.4056L26.2481 10.3126L26.1719 10.2203L26.0948 10.1288L26.0168 10.0382L25.938 9.94832L25.8584 9.85936L25.7778 9.7712L25.6962 9.68376L25.6142 9.59752L25.5309 9.51176L25.4471 9.4272L25.3624 9.34328L25.2769 9.2604L25.1904 9.17816L25.1035 9.0972L25.0155 9.01688L24.9268 8.93752L24.8376 8.8592L24.7475 8.78176L24.6564 8.70504L24.5648 8.62944L24.4725 8.5548L24.3795 8.48112L24.2857 8.40832L24.1915 8.33672L24.0962 8.26568L24.0006 8.196L23.9042 8.1272L23.8071 8.05928L23.7096 7.99248L23.611 7.92648L23.5125 7.86184L23.4128 7.79792L23.3128 7.73512L23.212 7.67328L23.1108 7.61248L23.009 7.5528L22.9069 7.49424L22.8037 7.4364L22.7006 7.37992L22.5966 7.32432L22.4922 7.26984L22.3874 7.21648L22.282 7.16408L22.1761 7.11272L22.0699 7.06256L21.9631 7.01336L21.8561 6.96536L21.7485 6.91832L21.637 6.87096L21.5322 6.82768L21.4232 6.78384L21.3143 6.74136L21.2045 6.69968L21.0948 6.65936L20.9845 6.62L20.8741 6.58184L20.7631 6.54464L20.6521 6.50872L20.5405 6.47384L20.4288 6.44008L20.3169 6.40752L20.2046 6.37597L20.0919 6.3455L19.9793 6.31628L19.8665 6.28817L19.753 6.26109L19.6399 6.23526L19.5262 6.21046L19.4125 6.18686L19.2985 6.16433L19.1845 6.14298L19.0703 6.12274L18.9561 6.10368L18.8414 6.08568L18.727 6.06887L18.6124 6.05318L18.4976 6.03861L18.3828 6.02518L18.268 6.01291L18.1531 6.00176L18.0381 5.99174L17.9231 5.98286L17.808 5.9751L17.6932 5.96849L17.5783 5.96301L17.463 5.95865L17.3484 5.95543L17.2335 5.95334L17.1187 5.95238L17.0037 5.95254L16.9807 5.9528L17.0169 9.01056L17.0821 9.01024L17.1661 9.01072L17.25 9.012L17.334 9.01416L17.4181 9.01712L17.5021 9.02096L17.5862 9.0256L17.6704 9.03104L17.7545 9.03736L17.8387 9.04448L17.9229 9.05248L18.0069 9.06128L18.0911 9.07096L18.1752 9.08144L18.2592 9.09272L18.3432 9.10496L18.4271 9.11792L18.5109 9.13176L18.5948 9.14648L18.6785 9.162L18.7621 9.1784L18.8456 9.1956L18.929 9.2136L19.0123 9.23248L19.0954 9.25224L19.1785 9.2728L19.2613 9.29416L19.344 9.3164L19.4265 9.33944L19.5089 9.36336L19.5912 9.38808L19.6732 9.4136L19.7549 9.44L19.8365 9.4672L19.918 9.49528L19.9991 9.52416L20.0801 9.55384L20.1607 9.58432L20.2412 9.61568L20.3213 9.64784L20.4013 9.6808L20.4809 9.71464L20.5602 9.7492L20.6393 9.78464L20.718 9.8208L20.7964 9.85784L20.8745 9.89568L20.9523 9.93432L21.0297 9.97376L21.1069 10.014L21.1836 10.055L21.26 10.0968L21.336 10.1394L21.4116 10.1827L21.4869 10.2269L21.5617 10.2718L21.6361 10.3175L21.7101 10.364L21.7837 10.4113L21.8569 10.4593L21.9297 10.508L22.002 10.5575L22.0738 10.6078L22.1452 10.6588L22.2161 10.7106L22.2865 10.7631L22.3565 10.8163L22.4258 10.8703L22.4948 10.925L22.5632 10.9804L22.6311 11.0366L22.6985 11.0934L22.7653 11.151L22.8317 11.2092L22.8974 11.2682L22.9626 11.3278L23.0272 11.3882L23.0913 11.4492L23.1547 11.5109L23.2176 11.5733L23.2799 11.6363L23.3416 11.7001L23.4027 11.7644L23.4631 11.8294L23.5229 11.8951L23.5821 11.9614L23.6407 12.0283L23.6986 12.0959L23.7559 12.1641L23.8125 12.2329L23.8685 12.3023L23.9237 12.3723L23.9783 12.443L24.0322 12.5142L24.0854 12.586L24.1379 12.6583L24.1897 12.7313L24.2408 12.8048L24.2912 12.8789L24.3408 12.9535L24.3897 13.0286L24.4378 13.1044L24.4853 13.1806L24.532 13.2574L24.5779 13.3346L24.623 13.4125L24.6674 13.4907L24.711 13.5695L24.7538 13.6488L24.7959 13.7286L24.8372 13.8088L24.8776 13.8895L24.9173 13.9707L24.9561 14.0523L24.9941 14.1343L25.0313 14.2169L25.0677 14.2998L25.1033 14.3831L25.1381 14.4669L25.172 14.551L25.205 14.6356L25.2372 14.7205L25.2685 14.8058L25.299 14.8915L25.3287 14.9776L25.3575 15.064L25.3853 15.1508L25.4124 15.2378L25.4385 15.3253L25.4638 15.413L25.4882 15.5011L25.5117 15.5895L25.5343 15.6782L25.556 15.7671L25.5768 15.8563L25.5967 15.9458L25.6157 16.0356L25.6337 16.1256L25.6509 16.2158L25.6671 16.3064L25.6825 16.3971L25.6969 16.488L25.7103 16.5792L25.7229 16.6705L25.7345 16.762L25.7452 16.8538L25.7549 16.9457L25.7637 17.0377L25.7716 17.1299L25.7785 17.2222L25.7845 17.3147L25.7894 17.4073L25.7935 17.5L25.7966 17.5929L25.7988 17.6858L25.8 17.7788L25.8002 17.8719L25.7995 17.965L25.7978 18.0582L25.7952 18.1515L25.7916 18.2449L25.787 18.3382L25.7815 18.4315L25.775 18.525L25.7676 18.6183L25.7591 18.7117L25.7497 18.805L25.7393 18.8983L25.7281 18.9917L25.7157 19.0849L25.7025 19.1781L25.6882 19.2712L25.673 19.3642L25.6569 19.4572L25.6397 19.5501L25.6216 19.6429L25.6025 19.7355L25.5824 19.8281L25.5614 19.9205L25.5394 20.0127L25.5165 20.1048L25.4925 20.1968L25.4677 20.2886L25.4418 20.3802L25.415 20.4715L25.3873 20.5627L25.3585 20.6538L25.3288 20.7446L25.2981 20.835L25.2665 20.9254L25.2341 21.0154L25.2005 21.1052L25.1661 21.1947L25.1307 21.284L25.0944 21.373L25.0571 21.4617L25.0189 21.55L24.9797 21.6381L24.9397 21.7258L24.8986 21.8132L24.8567 21.9002L24.8138 21.987L24.77 22.0733L24.7253 22.1593L24.6797 22.2448L24.6331 22.33L24.5857 22.4148L24.5373 22.4992L24.4881 22.5831L24.4379 22.6667L24.3869 22.7498L24.3349 22.8325L24.2821 22.9146L24.2284 22.9964L24.1737 23.0776L24.1183 23.1584L24.062 23.2387L24.0048 23.3185L23.9467 23.3978L23.8878 23.4766L23.8281 23.5548L23.7674 23.6325L23.706 23.7096L23.6437 23.7862L23.5805 23.8622L23.5166 23.9378L23.4518 24.0126L23.3862 24.087L23.3198 24.1606L23.2526 24.2338L23.1846 24.3062L23.1159 24.3782L23.0463 24.4494L22.976 24.52L22.9048 24.5899L22.8329 24.6593L22.7602 24.7279L22.6869 24.7958L22.6127 24.8632L22.5377 24.9298L22.4621 24.9957L22.3857 25.061L22.3087 25.1254L22.2309 25.1893L22.1524 25.2523L22.0731 25.3146L21.9932 25.3762L21.9126 25.4371L21.8313 25.4972L21.7493 25.5566L21.6668 25.6152L21.5835 25.673L21.4996 25.73L21.4149 25.7862L21.3297 25.8417L21.2439 25.8963L21.1575 25.9502L21.0704 26.0031L20.9828 26.0554L20.8945 26.1067L20.8057 26.1572L20.7162 26.2069L20.6262 26.2558L20.5357 26.3038L20.4445 26.3509L20.3529 26.3971L20.2607 26.4425L20.168 26.487L20.0747 26.5306L19.9809 26.5734L19.8867 26.6152L19.792 26.6562L19.6967 26.6962L19.601 26.7353L19.5049 26.7735L19.4082 26.8108L19.3112 26.8472L19.2137 26.8826L19.1157 26.9171L19.0173 26.9506L18.9186 26.9833L18.8194 27.0149L18.7199 27.0456L18.62 27.0754L18.5197 27.1041L18.419 27.1319L18.318 27.1587L18.2166 27.1846L18.1149 27.2094L18.0129 27.2334L17.9105 27.2562L17.808 27.2782L17.705 27.299L17.6018 27.319L17.4984 27.3379L17.3946 27.3558L17.2906 27.3727L17.1865 27.3886L17.082 27.4034L16.9773 27.4173L16.8724 27.4302L16.7673 27.4419L16.6621 27.4527L16.5566 27.4625L16.451 27.4712L16.3453 27.4789L16.2393 27.4855L16.1333 27.4911L16.0271 27.4957L15.9208 27.4992L15.8144 27.5017L15.7079 27.5031L15.6013 27.5035L15.4946 27.5029L15.388 27.5011L15.2812 27.4984L15.1744 27.4946L15.0676 27.4897L14.9607 27.4838L14.8539 27.4768L14.747 27.4688L14.6402 27.4597L14.5334 27.4495L14.4266 27.4383L14.3199 27.4261L14.2133 27.4128L14.1066 27.3984L14.0001 27.383L13.8937 27.3665L13.7874 27.349L13.6812 27.3303L13.5751 27.3107L13.4692 27.29L13.3634 27.2682L13.2577 27.2454L13.1523 27.2215L13.047 27.1966L12.9419 27.1706L12.837 27.1435L12.7323 27.1154L12.6278 27.0863L12.5237 27.0562L12.4197 27.025L12.3159 26.9927L12.2125 26.9594L12.1093 26.925L12.0064 26.8897L11.9038 26.8533L11.8016 26.8158L11.6996 26.7774L11.598 26.7378L11.4967 26.6974L11.3957 26.6558L11.2952 26.6132L11.195 26.5697L11.0953 26.525L10.9958 26.4794L10.8969 26.4329L10.7983 26.3853L10.7001 26.3366L10.6024 26.287L10.5052 26.2365L10.4084 26.1849L10.3121 26.1323L10.2162 26.0788L10.1209 26.0242L10.026 25.9688L9.93165 25.9123L9.83781 25.8549L9.74453 25.7966L9.65181 25.7372L9.55965 25.677L9.46805 25.6157L9.37701 25.5535L9.28653 25.4905L9.19669 25.4265L9.10741 25.3615L9.01877 25.2957L8.93069 25.2289L8.84333 25.1612L8.75661 25.0926L8.67053 25.0231L8.58509 24.9528L8.50029 24.8815L8.41621 24.8094L8.33285 24.7364L8.25013 24.6626L8.16813 24.5878L8.08693 24.5123L8.00637 24.4359L7.92653 24.3586L7.84749 24.2806L7.76925 24.2017L7.69173 24.1219L7.61493 24.0414L7.53893 23.9601L7.46381 23.878L7.38941 23.795L7.31581 23.7114L7.24309 23.6269L7.17109 23.5417L7.10005 23.4557L7.02973 23.3689L6.96037 23.2814L6.89181 23.1932L6.82413 23.1042L6.75733 23.0146L6.69133 22.9242L6.62629 22.8331L6.56221 22.7414L6.49893 22.6489L6.43661 22.5558L6.37522 22.462L6.31475 22.3675L6.2552 22.2724L6.19661 22.1766L6.13896 22.0802L6.08228 21.9833L6.02655 21.8856L5.97179 21.7874L5.91801 21.6886L5.86522 21.5892L5.81341 21.4892L5.7626 21.3886L5.7128 21.2875L5.66401 21.1858L5.61624 21.0837L5.56948 20.9809L5.52376 20.8777L5.47907 20.7739L5.43542 20.6696L5.39281 20.5649L5.35127 20.4597L5.31077 20.3539L5.27134 20.2478L5.23297 20.1412L5.19568 20.0341L5.15948 19.9266L5.12435 19.8187L5.09031 19.7104L5.05736 19.6018L5.02552 19.4926L4.99477 19.3832L4.96513 19.2734L4.93661 19.1631L4.9092 19.0526L4.88291 18.9418L4.85775 18.8306L4.83371 18.719L4.8108 18.6073L4.78904 18.4952L4.7684 18.3828L4.74892 18.2702L4.73058 18.1573L4.71339 18.0442L4.69735 17.9308L4.68247 17.8172L4.66875 17.7034L4.65619 17.5894L4.64479 17.4752L4.63456 17.3608L4.6255 17.2462L4.61761 17.1316L4.61089 17.0167L4.60536 16.9018L4.601 16.7867L4.59782 16.6715L4.59582 16.5562L4.595 16.4408L4.59538 16.3254L4.59693 16.2098L4.59968 16.0943L4.60361 15.9787L4.60874 15.863L4.61506 15.7474L4.62256 15.6318L4.63127 15.5162L4.64116 15.4005L4.65224 15.285L4.66453 15.1694L4.678 15.0539L4.69268 14.9385L4.70854 14.8231L4.7256 14.7078L4.74385 14.5927L4.76329 14.4777L4.78393 14.3628L4.80576 14.248L4.82879 14.1334L4.853 14.019L4.8784 13.9046L4.905 13.7906L4.93277 13.6766L4.96173 13.563L4.99188 13.4495L5.02321 13.3362L5.05572 13.2233L5.08942 13.1106L5.12428 12.9981L5.16033 12.8858L5.19755 12.774L5.23593 12.6624L5.27549 12.5511L5.31621 12.4402L5.35809 12.3295L5.40113 12.2193L5.44533 12.1094L5.49068 11.9998L5.53719 11.8907L5.58484 11.7819L5.63364 11.6736L5.68356 11.5657L5.73464 11.4582L5.78684 11.3511L5.84017 11.2446L5.89463 11.1384L5.9502 11.0328L6.00689 10.9276L6.0647 10.823L6.12361 10.7188L6.18362 10.6151L6.24473 10.5121L6.30694 10.4095L6.37023 10.3075L6.43461 10.2061L6.50005 10.1052L6.56661 10.005L6.63413 9.90528L6.70285 9.80624L6.77253 9.70776L6.84325 9.60992L6.91509 9.5128L6.98789 9.41624L7.06181 9.3204L7.13669 9.2252L7.21261 9.13072L7.28949 9.03696L7.36741 8.94384L7.44637 8.85144L7.52629 8.75976L7.60717 8.66888L7.68909 8.57872L7.77189 8.48928L7.85573 8.40064L7.94053 8.31272L8.02621 8.22568L8.11285 8.13936L8.20045 8.05384L8.28901 7.9692L8.37845 7.88528L8.46877 7.80232L8.56005 7.72008L8.65221 7.6388L8.74517 7.55832L8.83909 7.47872L8.93389 7.4L9.02949 7.32216L9.12597 7.2452L9.22333 7.1692L9.32149 7.09408L9.42045 7.01992L9.52029 6.94664L9.62085 6.87432L9.72221 6.80296L9.82445 6.73256L9.92741 6.66312L10.0311 6.59472L10.1357 6.5272L10.2409 6.46072L10.3469 6.39523L10.4536 6.33074L10.561 6.26727L10.6691 6.20482L10.778 6.1434L10.8875 6.08301L10.9977 6.02367L11.1085 5.96538L11.2201 5.90815L11.3322 5.85198L11.445 5.79689L11.5585 5.74287L11.6725 5.68994L11.7872 5.6381L11.9025 5.58736L12.0183 5.53773L12.1347 5.48921L12.2517 5.4418L12.3691 5.39552L12.4872 5.35037L12.6057 5.30635L12.7249 5.26348L12.8445 5.22175L12.9645 5.18118L13.0851 5.14176L13.2061 5.10351L13.3276 5.06642L13.4495 5.03051L13.5719 4.99578L13.6946 4.96223L13.8178 4.92987L13.9414 4.8987L14.0654 4.86874L14.1897 4.83998L14.3145 4.81241L14.4395 4.78606L14.5649 4.76092L14.6906 4.73701L14.8166 4.71431L14.9429 4.69284L15.0696 4.6726L15.1965 4.65359L15.3236 4.63582L15.4509 4.61929L15.4985 4.61359ZM15.5522 9.14888L15.5156 6.05751L15.4112 6.0721L15.2989 6.08893L15.1866 6.10687L15.075 6.12584L14.9633 6.14597L14.8521 6.16713L14.7411 6.18938L14.6305 6.21266L14.5202 6.23706L14.4101 6.26253L14.3004 6.28905L14.1911 6.31662L14.0819 6.34529L13.977 6.37392L13.8653 6.40568L13.7573 6.43744L13.6499 6.47024L13.543 6.504L13.4364 6.53888L13.3301 6.5748L13.2244 6.61168L13.1192 6.64952L13.0144 6.68848L12.9101 6.72832L12.8061 6.76928L12.703 6.81112L12.5999 6.85408L12.4976 6.89792L12.3957 6.94272L12.2946 6.98848L12.1937 7.03528L12.0934 7.08304L11.994 7.1316L11.8947 7.18128L11.7965 7.23176L11.6984 7.28336L11.6013 7.3356L11.5043 7.38912L11.4083 7.4432L11.3129 7.49832L11.2181 7.5544L11.1239 7.61128L11.0302 7.6692L10.9375 7.72776L10.8452 7.78736L10.7537 7.84776L10.6629 7.90896L10.5728 7.97112L10.4832 8.03416L10.3946 8.09776L10.3065 8.16248L10.2192 8.22792L10.1326 8.29416L10.0469 8.36112L9.96165 8.42904L9.87741 8.4976L9.79389 8.56696L9.71101 8.63728L9.62917 8.70808L9.54789 8.77984L9.46741 8.85232L9.38781 8.92544L9.30909 8.99928L9.23093 9.074L9.15389 9.1492L9.07757 9.2252L9.00197 9.302L8.92733 9.37936L8.85349 9.45752L8.78053 9.53624L8.70845 9.6156L8.63717 9.69568L8.56669 9.77648L8.49741 9.85768L8.42877 9.93968L8.36101 10.0223L8.29421 10.1054L8.22837 10.1891L8.16325 10.2736L8.09917 10.3585L8.03597 10.444L7.97373 10.5301L7.91237 10.6167L7.85205 10.7038L7.79261 10.7914L7.73405 10.8797L7.67645 10.9684L7.61989 11.0575L7.56429 11.1472L7.50957 11.2375L7.45581 11.3281L7.40309 11.4192L7.35125 11.5108L7.30053 11.6026L7.25069 11.6951L7.20173 11.7881L7.15397 11.8812L7.10709 11.975L7.06125 12.069L7.01637 12.1634L6.97253 12.2582L6.92965 12.3534L6.88781 12.4489L6.84693 12.5447L6.80717 12.6409L6.76837 12.7374L6.73053 12.8342L6.69373 12.9314L6.65805 13.0287L6.62325 13.1265L6.58965 13.2243L6.55693 13.3226L6.52533 13.421L6.49469 13.5198L6.46517 13.6186L6.43661 13.7178L6.40917 13.817L6.3827 13.9166L6.35729 14.0163L6.33293 14.1162L6.30962 14.2163L6.28734 14.3165L6.2661 14.4169L6.24593 14.5174L6.22679 14.6179L6.20869 14.7187L6.19166 14.8195L6.17565 14.9205L6.16072 15.0214L6.1468 15.1225L6.13396 15.2236L6.12215 15.3248L6.11139 15.426L6.10168 15.5273L6.09301 15.6286L6.0854 15.7298L6.07882 15.8311L6.07328 15.9324L6.0688 16.0336L6.06536 16.1348L6.06295 16.2359L6.06159 16.337L6.06126 16.4382L6.06197 16.5391L6.06372 16.64L6.06651 16.7408L6.07032 16.8414L6.07516 16.9421L6.08104 17.0426L6.08793 17.1428L6.09586 17.243L6.1048 17.343L6.11477 17.4429L6.12576 17.5426L6.13775 17.6421L6.15076 17.7414L6.16478 17.8405L6.17981 17.9394L6.19584 18.038L6.21287 18.1365L6.2309 18.2347L6.24992 18.3326L6.26993 18.4303L6.29092 18.5277L6.31292 18.6249L6.33586 18.7216L6.35981 18.8182L6.38472 18.9144L6.41061 19.0103L6.43741 19.1058L6.46525 19.2011L6.49397 19.296L6.52373 19.3906L6.55437 19.4848L6.58597 19.5786L6.61853 19.6719L6.65197 19.765L6.68637 19.8576L6.72173 19.9498L6.75797 20.0416L6.79509 20.133L6.83317 20.2239L6.87213 20.3144L6.91205 20.4044L6.95277 20.494L6.99445 20.583L7.03701 20.6717L7.08037 20.7598L7.12469 20.8474L7.16981 20.9346L7.21581 21.0213L7.26269 21.1074L7.31037 21.193L7.35893 21.278L7.40829 21.3625L7.45853 21.4464L7.50957 21.5298L7.56141 21.6126L7.61405 21.6949L7.66757 21.7766L7.72173 21.8576L7.77685 21.9382L7.83261 22.018L7.88925 22.0973L7.94661 22.1759L8.00477 22.2539L8.06365 22.3313L8.12333 22.4081L8.18365 22.4842L8.24477 22.5596L8.30661 22.6344L8.36917 22.7086L8.43245 22.7819L8.49645 22.8548L8.56109 22.9268L8.62645 22.9982L8.69245 23.0689L8.75917 23.1389L8.82653 23.2082L8.89461 23.2767L8.96325 23.3446L9.03261 23.4117L9.10261 23.4781L9.17309 23.5437L9.24437 23.6086L9.31613 23.6727L9.38853 23.7361L9.46157 23.7987L9.53517 23.8606L9.60933 23.9217L9.68405 23.9819L9.75933 24.0414L9.83517 24.1002L9.91157 24.1582L9.98853 24.2153L10.0659 24.2716L10.1438 24.3271L10.2223 24.3818L10.3013 24.4358L10.3808 24.4889L10.4607 24.5411L10.5411 24.5926L10.622 24.6432L10.7033 24.693L10.785 24.7419L10.8673 24.79L10.9498 24.8372L11.0329 24.8836L11.1163 24.9291L11.2002 24.9738L11.2845 25.0177L11.369 25.0606L11.4541 25.1027L11.5395 25.1439L11.6252 25.1843L11.7112 25.2238L11.7977 25.2624L11.8843 25.3001L11.9713 25.3369L12.0587 25.3729L12.1464 25.4079L12.2342 25.4421L12.3225 25.4754L12.4109 25.5078L12.4997 25.5393L12.5886 25.5698L12.6779 25.5996L12.7673 25.6283L12.857 25.6562L12.9469 25.6832L13.037 25.7093L13.1273 25.7345L13.2177 25.7587L13.3084 25.7822L13.3992 25.8046L13.4901 25.8261L13.5813 25.8467L13.6725 25.8665L13.7639 25.8853L13.8553 25.9031L13.947 25.9201L14.0386 25.9362L14.1305 25.9514L14.2223 25.9655L14.3142 25.9789L14.4062 25.9913L14.4982 26.0028L14.5903 26.0134L14.6824 26.023L14.7745 26.0318L14.8667 26.0396L14.9589 26.0465L15.051 26.0526L15.1431 26.0576L15.2352 26.0618L15.3273 26.0651L15.4193 26.0675L15.5113 26.069L15.6032 26.0695L15.695 26.0692L15.7868 26.0679L15.8785 26.0658L15.97 26.0628L16.0615 26.0589L16.1528 26.054L16.244 26.0483L16.335 26.0417L16.426 26.0342L16.5167 26.0258L16.6073 26.0165L16.6978 26.0063L16.7881 25.9953L16.8781 25.9834L16.968 25.9706L17.0577 25.957L17.1471 25.9424L17.2362 25.927L17.3253 25.9107L17.414 25.8936L17.5025 25.8757L17.5908 25.8568L17.6786 25.8371L17.7663 25.8166L17.8537 25.7952L17.9408 25.773L18.0276 25.75L18.1141 25.7261L18.2002 25.7014L18.2861 25.6758L18.3715 25.6495L18.4566 25.6223L18.5415 25.5943L18.6259 25.5655L18.71 25.5359L18.7937 25.5055L18.8769 25.4743L18.9598 25.4423L19.0423 25.4095L19.1245 25.3759L19.2061 25.3416L19.2873 25.3065L19.3682 25.2706L19.4485 25.234L19.5285 25.1966L19.6081 25.1584L19.6869 25.1196L19.7657 25.0798L19.8437 25.0395L19.9213 24.9983L19.9983 24.9566L20.0749 24.914L20.1511 24.8707L20.2266 24.8267L20.3017 24.782L20.3763 24.7366L20.4502 24.6906L20.5238 24.6438L20.5966 24.5964L20.669 24.5482L20.7409 24.4994L20.8121 24.4499L20.8827 24.3999L20.9529 24.349L21.0224 24.2978L21.0913 24.2457L21.1597 24.193L21.2273 24.1398L21.2945 24.0858L21.3611 24.0312L21.4268 23.9762L21.4922 23.9202L21.5568 23.864L21.6207 23.8072L21.6842 23.7495L21.7468 23.6916L21.8089 23.633L21.8703 23.5738L21.9309 23.5141L21.991 23.4538L22.0505 23.393L22.1092 23.3316L22.1671 23.2698L22.2245 23.2074L22.2812 23.1445L22.337 23.0812L22.3924 23.0172L22.4469 22.9529L22.5006 22.8881L22.5538 22.8226L22.6061 22.757L22.6578 22.6907L22.7088 22.6241L22.759 22.5569L22.8085 22.4894L22.8571 22.4215L22.9052 22.353L22.9524 22.2842L22.9989 22.215L23.0447 22.1454L23.0895 22.0755L23.1338 22.0051L23.1773 21.9343L23.22 21.8633L23.2618 21.7918L23.3031 21.7199L23.3433 21.648L23.383 21.5754L23.4218 21.5026L23.4597 21.4296L23.4971 21.356L23.5334 21.2826L23.5692 21.2083L23.6039 21.1343L23.6381 21.0595L23.6713 20.9849L23.7038 20.9096L23.7355 20.8344L23.7663 20.7589L23.7964 20.683L23.8257 20.607L23.854 20.5309L23.8817 20.4543L23.9085 20.3777L23.9345 20.3009L23.9597 20.2238L23.9841 20.1466L24.0077 20.0692L24.0304 19.9918L24.0523 19.914L24.0733 19.8362L24.0937 19.7582L24.1131 19.6802L24.1317 19.6021L24.1496 19.5236L24.1665 19.4452L24.1828 19.3667L24.1981 19.2882L24.2126 19.2096L24.2263 19.1306L24.2392 19.052L24.2513 18.9731L24.2625 18.8942L24.2729 18.8154L24.2825 18.7364L24.2913 18.6572L24.2992 18.5786L24.3064 18.4993L24.3127 18.4203L24.3181 18.3415L24.3229 18.2625L24.3267 18.1836L24.3297 18.1048L24.332 18.0258L24.3333 17.9472L24.334 17.8683L24.3337 17.7897L24.3328 17.711L24.3309 17.6327L24.3283 17.5542L24.3249 17.4759L24.3206 17.3979L24.3156 17.3197L24.3097 17.2417L24.3032 17.1641L24.2957 17.0862L24.2875 17.0089L24.2785 16.9314L24.2687 16.8542L24.2581 16.7772L24.2468 16.7002L24.2346 16.6236L24.2217 16.5472L24.2081 16.471L24.1936 16.395L24.1783 16.3189L24.1623 16.2434L24.1456 16.1681L24.1281 16.0929L24.1097 16.0178L24.0908 15.9434L24.0709 15.8688L24.0505 15.7948L24.0292 15.7209L24.0072 15.6474L23.9845 15.5741L23.9609 15.501L23.9368 15.4285L23.9119 15.3562L23.8861 15.2839L23.8599 15.2123L23.8328 15.1409L23.805 15.0699L23.7765 14.9991L23.7473 14.9286L23.7175 14.8588L23.6869 14.789L23.6557 14.7198L23.6237 14.651L23.5911 14.5824L23.5577 14.5142L23.5239 14.4466L23.4892 14.3791L23.454 14.3123L23.4181 14.2459L23.3814 14.1796L23.3443 14.1141L23.3064 14.0488L23.2679 13.9841L23.2287 13.9196L23.1891 13.8558L23.1486 13.7922L23.1077 13.7294L23.0661 13.6669L23.024 13.6049L22.9811 13.5432L22.9377 13.4822L22.8939 13.4217L22.8493 13.3614L22.8042 13.3019L22.7585 13.2428L22.7124 13.1843L22.6655 13.1262L22.6181 13.0686L22.5702 13.0116L22.5218 12.955L22.4729 12.8992L22.4233 12.8437L22.3734 12.7889L22.3229 12.7345L22.272 12.6809L22.2203 12.6275L22.1684 12.575L22.1157 12.5227L22.0628 12.4713L22.0094 12.4204L21.9555 12.37L21.901 12.3202L21.8461 12.271L21.7909 12.2225L21.7349 12.1743L21.679 12.1271L21.6223 12.0802L21.5653 12.034L21.5078 11.9885L21.4499 11.9434L21.3917 11.899L21.3332 11.8554L21.274 11.8122L21.2144 11.7696L21.1548 11.7279L21.0944 11.6866L21.0341 11.6462L20.9732 11.6062L20.9119 11.5668L20.8502 11.5281L20.7885 11.4902L20.7261 11.4527L20.6636 11.4161L20.6005 11.3799L20.5376 11.3446L20.4741 11.3099L20.4102 11.2758L20.3461 11.2423L20.2819 11.2097L20.2173 11.1775L20.1523 11.1461L20.0873 11.1154L20.0221 11.0854L19.9561 11.0558L19.8905 11.0272L19.8245 10.9992L19.7581 10.9718L19.6916 10.9451L19.625 10.9192L19.5581 10.8939L19.4909 10.8692L19.4237 10.8454L19.3562 10.8221L19.2885 10.7995L19.2209 10.7777L19.153 10.7566L19.0851 10.7361L19.0166 10.7162L18.9484 10.6972L18.88 10.6788L18.8114 10.6611L18.7428 10.6441L18.6738 10.6278L18.605 10.6122L18.5362 10.5973L18.4671 10.583L18.3978 10.5694L18.3289 10.5567L18.2596 10.5446L18.1904 10.5331L18.1209 10.5223L18.0517 10.5123L17.9821 10.5029L17.9129 10.4943L17.8434 10.4863L17.774 10.479L17.7046 10.4725L17.6351 10.4666L17.5659 10.4614L17.4963 10.4569L17.427 10.453L17.3579 10.4499L17.2883 10.4474L17.2193 10.4457L17.1501 10.4446L17.0811 10.4442L17.0339 10.4444L17.0697 13.4647L17.091 13.4648L17.1307 13.4654L17.1705 13.4663L17.2103 13.4676L17.2501 13.4694L17.2901 13.4716L17.33 13.4742L17.37 13.4772L17.41 13.4806L17.4501 13.4845L17.4901 13.4887L17.5302 13.4934L17.5704 13.4985L17.6105 13.504L17.6506 13.5099L17.6908 13.5163L17.7309 13.5231L17.771 13.5303L17.8112 13.538L17.8513 13.546L17.8913 13.5546L17.9314 13.5634L17.9715 13.5728L18.0114 13.5826L18.0514 13.5927L18.0913 13.6034L18.1312 13.6144L18.171 13.6258L18.2108 13.6378L18.2505 13.6501L18.2901 13.6629L18.3297 13.6761L18.3691 13.6897L18.4085 13.7037L18.4478 13.7182L18.487 13.733L18.5261 13.7483L18.5652 13.7641L18.6041 13.7802L18.6429 13.7968L18.6816 13.8138L18.7201 13.8313L18.7586 13.8491L18.7969 13.8674L18.8351 13.8861L18.8732 13.9052L18.911 13.9248L18.9488 13.9447L18.9864 13.9651L19.0238 13.9859L19.0611 14.0071L19.0982 14.0287L19.1351 14.0507L19.1719 14.0732L19.2085 14.0961L19.2449 14.1194L19.281 14.143L19.317 14.167L19.3529 14.1916L19.3885 14.2165L19.4238 14.2418L19.459 14.2674L19.494 14.2935L19.5287 14.32L19.5632 14.3469L19.5975 14.3742L19.6315 14.4018L19.6653 14.4298L19.6989 14.4583L19.7321 14.4871L19.7652 14.5163L19.798 14.5459L19.8305 14.5759L19.8627 14.6062L19.8946 14.637L19.9264 14.6681L19.9577 14.6995L19.9889 14.7314L20.0197 14.7635L20.0502 14.7961L20.0805 14.829L20.1104 14.8623L20.1401 14.8959L20.1693 14.9299L20.1983 14.9642L20.227 14.9989L20.2553 15.0339L20.2833 15.0693L20.311 15.105L20.3384 15.141L20.3654 15.1774L20.3921 15.2141L20.4183 15.251L20.4443 15.2884L20.4699 15.3261L20.4951 15.3641L20.52 15.4023L20.5445 15.441L20.5686 15.4798L20.5924 15.519L20.6157 15.5586L20.6387 15.5983L20.6613 15.6384L20.6835 15.6788L20.7053 15.7194L20.7268 15.7604L20.7477 15.8016L20.7684 15.843L20.7885 15.8848L20.8083 15.9269L20.8277 15.9691L20.8466 16.0117L20.8652 16.0545L20.8833 16.0975L20.9009 16.1408L20.9181 16.1843L20.9349 16.2281L20.9513 16.2721L20.9673 16.3163L20.9827 16.3608L20.9977 16.4054L21.0123 16.4503L21.0264 16.4954L21.0401 16.5407L21.0533 16.5862L21.066 16.632L21.0783 16.6778L21.0901 16.7239L21.1014 16.7702L21.1123 16.8167L21.1227 16.8633L21.1326 16.9102L21.1421 16.9571L21.1509 17.0042L21.1594 17.0515L21.1674 17.099L21.1749 17.1465L21.1819 17.1942L21.1884 17.2421L21.1944 17.2901L21.1999 17.3382L21.2049 17.3865L21.2094 17.4348L21.2134 17.4833L21.2169 17.5319L21.2199 17.5806L21.2224 17.6294L21.2243 17.6782L21.2258 17.7272L21.2267 17.7762L21.2272 17.8254L21.227 17.8745L21.2265 17.9238L21.2253 17.9731L21.2237 18.0225L21.2215 18.0719L21.2188 18.1214L21.2156 18.1709L21.2118 18.2204L21.2075 18.27L21.2027 18.3196L21.1974 18.3692L21.1915 18.4188L21.1851 18.4685L21.1782 18.5182L21.1708 18.5678L21.1628 18.6174L21.1542 18.667L21.1452 18.7166L21.1356 18.7662L21.1255 18.8157L21.1148 18.8652L21.1036 18.9146L21.0919 18.9641L21.0796 19.0134L21.0668 19.0628L21.0535 19.112L21.0396 19.1612L21.0252 19.2102L21.0102 19.2593L20.9948 19.3082L20.9788 19.357L20.9622 19.4058L20.9452 19.4545L20.9275 19.503L20.9093 19.5514L20.8907 19.5997L20.8715 19.6479L20.8517 19.6959L20.8315 19.7438L20.8107 19.7916L20.7893 19.8393L20.7675 19.8867L20.7451 19.934L20.7221 19.9812L20.6988 20.0282L20.6748 20.075L20.6503 20.1216L20.6253 20.168L20.5997 20.2142L20.5737 20.2603L20.5472 20.3062L20.5201 20.3518L20.4925 20.3972L20.4644 20.4425L20.4358 20.4874L20.4067 20.5322L20.377 20.5767L20.3469 20.621L20.3163 20.665L20.2852 20.7088L20.2535 20.7523L20.2214 20.7956L20.1888 20.8386L20.1557 20.8813L20.1221 20.9238L20.088 20.9659L20.0534 21.0078L20.0184 21.0494L19.9829 21.0906L19.9468 21.1316L19.9103 21.1722L19.8733 21.2126L19.8359 21.2526L19.7981 21.2923L19.7597 21.3318L19.7209 21.3708L19.6816 21.4094L19.6419 21.4478L19.6017 21.4858L19.561 21.5234L19.52 21.5607L19.4785 21.5977L19.4365 21.6342L19.3941 21.6704L19.3513 21.7062L19.3081 21.7416L19.2644 21.7766L19.2203 21.8112L19.1758 21.8454L19.1309 21.8793L19.0856 21.9127L19.0399 21.9457L18.9937 21.9782L18.9473 22.0105L18.9003 22.0422L18.853 22.0735L18.8053 22.1043L18.7573 22.1348L18.7088 22.1648L18.66 22.1943L18.6108 22.2234L18.5613 22.252L18.5113 22.2802L18.461 22.3078L18.4105 22.3351L18.3595 22.3618L18.3082 22.3882L18.2565 22.4139L18.2046 22.4393L18.1523 22.4641L18.0997 22.4884L18.0468 22.5122L17.9935 22.5355L17.94 22.5584L17.8861 22.5807L17.832 22.6025L17.7775 22.6238L17.7228 22.6446L17.6677 22.6648L17.6125 22.6846L17.5569 22.7038L17.5011 22.7224L17.445 22.7406L17.3887 22.7581L17.3321 22.7751L17.2753 22.7917L17.2182 22.8076L17.1609 22.823L17.1034 22.8378L17.0457 22.8522L16.9877 22.8658L16.9295 22.879L16.8711 22.8916L16.8125 22.9037L16.7537 22.9151L16.6948 22.926L16.6357 22.9363L16.5763 22.9461L16.5169 22.9552L16.4572 22.9638L16.3974 22.9718L16.3374 22.9792L16.2773 22.986L16.2171 22.9922L16.1567 22.9978L16.0962 23.0028L16.0356 23.0073L15.9748 23.011L15.914 23.0143L15.853 23.017L15.792 23.019L15.7308 23.0203L15.6696 23.0211L15.6083 23.0214L15.5469 23.021L15.4855 23.0199L15.424 23.0182L15.3625 23.016L15.3009 23.0131L15.2392 23.0096L15.1775 23.0055L15.1158 23.0008L15.0541 22.9954L14.9924 22.9894L14.9307 22.9829L14.8689 22.9756L14.8073 22.9678L14.7455 22.9593L14.6838 22.9502L14.6221 22.9405L14.5605 22.9302L14.4989 22.9192L14.4374 22.9076L14.3759 22.8954L14.3145 22.8826L14.2531 22.8691L14.1918 22.855L14.1306 22.8402L14.0694 22.825L14.0084 22.809L13.9475 22.7923L13.8866 22.7751L13.826 22.7573L13.7653 22.7388L13.7049 22.7197L13.6445 22.7L13.5843 22.6797L13.5243 22.6587L13.4644 22.6371L13.4046 22.6149L13.3451 22.5921L13.2857 22.5686L13.2265 22.5446L13.1674 22.5199L13.1086 22.4946L13.05 22.4687L12.9915 22.4422L12.9333 22.4151L12.8753 22.3874L12.8175 22.359L12.76 22.3301L12.7027 22.3006L12.6457 22.2704L12.5889 22.2397L12.5323 22.2083L12.4761 22.1764L12.42 22.1438L12.3643 22.1107L12.3089 22.077L12.2537 22.0427L12.1989 22.0078L12.1443 21.9724L12.0901 21.9363L12.0361 21.8997L11.9826 21.8625L11.9293 21.8247L11.8764 21.7864L11.8238 21.7474L11.7716 21.708L11.7197 21.668L11.6682 21.6274L11.6171 21.5862L11.5663 21.5446L11.5159 21.5023L11.4659 21.4595L11.4163 21.4162L11.3671 21.3723L11.3183 21.3279L11.2699 21.283L11.2219 21.2375L11.1744 21.1915L11.1272 21.145L11.0805 21.098L11.0343 21.0505L10.9885 21.0024L10.9431 20.9539L10.8982 20.9048L10.8538 20.8553L10.8098 20.8053L10.7664 20.7547L10.7233 20.7038L10.6808 20.6522L10.6388 20.6002L10.5973 20.5478L10.5562 20.495L10.5157 20.4416L10.4757 20.3878L10.4362 20.3335L10.3973 20.2788L10.3588 20.2236L10.3209 20.168L10.2835 20.112L10.2467 20.0555L10.2105 19.9986L10.1747 19.9414L10.1396 19.8837L10.1049 19.8255L10.0709 19.767L10.0375 19.7081L10.0046 19.6488L9.97229 19.5891L9.94061 19.529L9.90949 19.4686L9.87893 19.4078L9.84901 19.3466L9.81973 19.285L9.79101 19.2232L9.76293 19.161L9.73549 19.0984L9.70861 19.0354L9.68237 18.9722L9.65677 18.9086L9.63181 18.8448L9.60749 18.7806L9.58389 18.7161L9.56085 18.6513L9.53845 18.5862L9.51669 18.5209L9.49565 18.4552L9.47525 18.3893L9.45549 18.3231L9.43637 18.2566L9.41797 18.1899L9.40029 18.123L9.38317 18.0558L9.36685 17.9883L9.35117 17.9207L9.33613 17.8528L9.32181 17.7847L9.30821 17.7164L9.29525 17.6479L9.28301 17.5792L9.27149 17.5103L9.26069 17.4413L9.25053 17.372L9.24109 17.3026L9.23245 17.233L9.22445 17.1634L9.21717 17.0934L9.21061 17.0234L9.20477 16.9533L9.19965 16.883L9.19525 16.8126L9.19157 16.7422L9.18861 16.6716L9.18637 16.6009L9.18493 16.5301L9.18421 16.4593L9.18413 16.3883L9.18485 16.3173L9.18637 16.2462L9.18853 16.1751L9.19149 16.1039L9.19517 16.0327L9.19957 15.9615L9.20469 15.8902L9.21061 15.819L9.21725 15.7477L9.22461 15.6764L9.23277 15.6051L9.24165 15.5338L9.25125 15.4626L9.26165 15.3914L9.27277 15.3202L9.28469 15.2491L9.29725 15.178L9.31061 15.107L9.32477 15.036L9.33965 14.9651L9.35525 14.8943L9.37157 14.8236L9.38869 14.753L9.40653 14.6825L9.42517 14.6121L9.44453 14.5418L9.46461 14.4717L9.48541 14.4016L9.50701 14.3318L9.52933 14.262L9.55237 14.1924L9.57621 14.123L9.60077 14.0538L9.62605 13.9847L9.65205 13.9158L9.67885 13.8472L9.70637 13.7787L9.73461 13.7104L9.76357 13.6424L9.79325 13.5746L9.82373 13.507L9.85485 13.4396L9.88677 13.3725L9.91933 13.3057L9.95269 13.239L9.98669 13.1727L10.0215 13.1067L10.0569 13.041L10.0932 12.9755L10.1301 12.9103L10.1677 12.8454L10.206 12.781L10.245 12.7167L10.2847 12.6528L10.3252 12.5893L10.3663 12.526L10.4081 12.4631L10.4505 12.4006L10.4937 12.3385L10.5376 12.2767L10.5821 12.2154L10.6273 12.1543L10.6732 12.0937L10.7197 12.0335L10.7669 11.9737L10.8149 11.9143L10.8634 11.8553L10.9125 11.7968L10.9624 11.7386L11.0129 11.681L11.064 11.6238L11.1157 11.567L11.1681 11.5107L11.2212 11.4549L11.2749 11.3995L11.3291 11.3446L11.384 11.2902L11.4395 11.2363L11.4956 11.183L11.5523 11.1301L11.6096 11.0777L11.6674 11.0258L11.7259 10.9745L11.785 10.9238L11.8446 10.8734L11.9049 10.8238L11.9656 10.7746L12.0269 10.726L12.0888 10.678L12.1513 10.6306L12.2142 10.5837L12.2777 10.5374L12.3418 10.4917L12.4064 10.4466L12.4715 10.402L12.5372 10.3581L12.6033 10.3148L12.6699 10.2722L12.7371 10.2301L12.8047 10.1886L12.8729 10.1478L12.9414 10.1077L13.0105 10.0682L13.0801 10.0293L13.1501 9.99104L13.2205 9.95352L13.2914 9.91664L13.3628 9.8804L13.4345 9.84488L13.5068 9.81L13.5794 9.77584L13.6525 9.74232L13.7259 9.70952L13.7997 9.67744L13.8741 9.646L13.9487 9.61528L14.0237 9.58536L14.0991 9.55608L14.1749 9.52752L14.2509 9.49968L14.3274 9.47264L14.4043 9.44624L14.4814 9.42064L14.5589 9.39576L14.6367 9.3716L14.7149 9.34824L14.7933 9.3256L14.872 9.30376L14.951 9.28264L15.0303 9.26224L15.1099 9.24264L15.1897 9.22384L15.2699 9.20584L15.3502 9.18856L15.4309 9.17208L15.5117 9.1564L15.5522 9.14888ZM16.5457 14.9571L15.6237 15.1774L15.5695 10.6098L15.5261 10.6196L15.4606 10.635L15.3953 10.6511L15.3304 10.6678L15.2656 10.685L15.2012 10.703L15.1368 10.7216L15.073 10.7406L15.0091 10.7605L14.946 10.7807L14.8827 10.8018L14.8198 10.8234L14.7573 10.8455L14.6949 10.8682L14.6332 10.8915L14.5715 10.9155L14.5101 10.94L14.4492 10.965L14.3883 10.9908L14.3282 11.0169L14.2681 11.0438L14.2086 11.071L14.1492 11.099L14.0903 11.1274L14.0316 11.1565L13.9735 11.186L13.9157 11.2161L13.8582 11.2467L13.8012 11.2778L13.7445 11.3095L13.6881 11.3418L13.6325 11.3744L13.5767 11.4078L13.5217 11.4414L13.4671 11.4757L13.4129 11.5104L13.3589 11.5457L13.3056 11.5814L13.2526 11.6177L13.2001 11.6543L13.1481 11.6914L13.0963 11.7291L13.0451 11.7673L12.9944 11.8058L12.9441 11.8449L12.8943 11.8842L12.845 11.9242L12.7961 11.9646L12.7476 12.0054L12.6997 12.0466L12.6523 12.0882L12.6053 12.1302L12.5589 12.1727L12.5129 12.2157L12.4674 12.259L12.4225 12.3026L12.3779 12.3467L12.334 12.3911L12.2905 12.436L12.2477 12.4811L12.2051 12.5269L12.1633 12.5727L12.1219 12.619L12.081 12.6658L12.0408 12.7126L12.0009 12.7601L11.9618 12.8076L11.923 12.8558L11.8849 12.904L11.8473 12.9527L11.8102 13.0018L11.7737 13.051L11.7377 13.1005L11.7024 13.1503L11.6675 13.2006L11.6332 13.251L11.5995 13.3018L11.5664 13.3526L11.5338 13.4038L11.5017 13.4554L11.4704 13.5071L11.4394 13.5593L11.4092 13.6114L11.3794 13.6639L11.3502 13.7166L11.3217 13.7695L11.2937 13.8226L11.2664 13.876L11.2395 13.9297L11.2133 13.9833L11.1877 14.0374L11.1626 14.0914L11.1382 14.1458L11.1143 14.2002L11.091 14.255L11.0684 14.3097L11.0463 14.3647L11.0249 14.4198L11.0039 14.4751L10.9837 14.5304L10.964 14.586L10.9449 14.6417L10.9264 14.6974L10.9085 14.7533L10.8912 14.8094L10.8745 14.8654L10.8585 14.9215L10.8429 14.9778L10.828 15.0342L10.8137 15.0906L10.8001 15.1471L10.7869 15.2037L10.7745 15.2603L10.7626 15.317L10.7513 15.3737L10.7406 15.4304L10.7305 15.4873L10.7211 15.544L10.7122 15.6008L10.7039 15.6578L10.6962 15.7145L10.6892 15.7714L10.6827 15.8282L10.6768 15.885L10.6715 15.942L10.6668 15.9987L10.6627 16.0555L10.6592 16.1123L10.6562 16.169L10.6539 16.2256L10.6521 16.2822L10.651 16.3388L10.6504 16.3953L10.6505 16.4517L10.651 16.508L10.6522 16.5643L10.654 16.6205L10.6563 16.6766L10.6592 16.7326L10.6627 16.7884L10.6668 16.8442L10.6714 16.8998L10.6766 16.9554L10.6824 17.0109L10.6887 17.066L10.6956 17.1213L10.703 17.1762L10.7111 17.2311L10.7197 17.2858L10.7288 17.3403L10.7385 17.3948L10.7487 17.449L10.7595 17.503L10.7708 17.5568L10.7827 17.6106L10.7951 17.664L10.8081 17.7174L10.8215 17.7703L10.8356 17.8234L10.8501 17.8759L10.8651 17.9285L10.8807 17.9806L10.8968 18.0327L10.9134 18.0845L10.9305 18.1359L10.9482 18.1874L10.9664 18.2384L10.985 18.2891L11.0041 18.3398L11.0238 18.3901L11.044 18.4401L11.0646 18.4898L11.0857 18.5393L11.1073 18.5886L11.1294 18.6375L11.152 18.6862L11.175 18.7345L11.1985 18.7825L11.2225 18.8304L11.2469 18.8778L11.2717 18.9249L11.2971 18.9718L11.3229 19.0182L11.3492 19.0645L11.3758 19.1104L11.4029 19.1558L11.4305 19.2011L11.4585 19.246L11.4869 19.2905L11.5157 19.3347L11.5449 19.3786L11.5746 19.4222L11.6046 19.4651L11.6351 19.508L11.666 19.5504L11.6972 19.5924L11.7289 19.6342L11.7609 19.6754L11.7933 19.7163L11.8261 19.7569L11.8593 19.7971L11.8928 19.8368L11.9268 19.8762L11.961 19.9153L11.9956 19.9538L12.0307 19.9921L12.0659 20.0298L12.1016 20.0673L12.1376 20.1042L12.1738 20.1408L12.2105 20.177L12.2475 20.2127L12.2848 20.2481L12.3224 20.283L12.3603 20.3174L12.3985 20.3515L12.437 20.3851L12.4758 20.4183L12.5149 20.4511L12.5542 20.4834L12.5939 20.5154L12.6339 20.5468L12.674 20.5778L12.7145 20.6083L12.7552 20.6385L12.7961 20.6682L12.8373 20.6974L12.8788 20.7262L12.9205 20.7545L12.9624 20.7823L13.0045 20.8097L13.0468 20.8366L13.0895 20.8632L13.1322 20.8891L13.1752 20.9147L13.2185 20.9398L13.2617 20.9644L13.3053 20.9886L13.3492 21.0123L13.3931 21.0355L13.4372 21.0582L13.4814 21.0805L13.526 21.1023L13.5705 21.1236L13.6153 21.1445L13.6602 21.1649L13.7052 21.1847L13.7505 21.2042L13.7958 21.2231L13.8412 21.2416L13.8868 21.2596L13.9325 21.277L13.9784 21.2941L14.0241 21.3106L14.0703 21.3267L14.1163 21.3422L14.1625 21.3574L14.2088 21.372L14.2552 21.3862L14.3016 21.3998L14.3481 21.413L14.3947 21.4256L14.4413 21.4378L14.488 21.4495L14.5347 21.4608L14.5814 21.4715L14.6282 21.4818L14.6751 21.4916L14.722 21.5009L14.7689 21.5098L14.8157 21.5181L14.8627 21.526L14.9097 21.5334L14.9566 21.5403L15.0034 21.5467L15.0504 21.5526L15.0973 21.5582L15.1442 21.5632L15.1911 21.5677L15.238 21.5718L15.2848 21.5754L15.3315 21.5785L15.3783 21.5811L15.4249 21.5833L15.4715 21.585L15.5182 21.5862L15.5646 21.587L15.611 21.5874L15.6574 21.5872L15.7037 21.5866L15.75 21.5855L15.7961 21.584L15.8421 21.5821L15.888 21.5796L15.934 21.5767L15.9796 21.5734L16.0253 21.5696L16.0707 21.5654L16.1161 21.5607L16.1614 21.5555L16.2065 21.55L16.2516 21.544L16.2964 21.5375L16.341 21.5306L16.3857 21.5234L16.4301 21.5156L16.4744 21.5074L16.5185 21.4988L16.5625 21.4898L16.6062 21.4803L16.6497 21.4705L16.6933 21.4602L16.7365 21.4494L16.7796 21.4384L16.8225 21.4269L16.8651 21.415L16.9077 21.4026L16.95 21.3898L16.9919 21.3767L17.034 21.3631L17.0756 21.3492L17.117 21.335L17.1582 21.3202L17.1992 21.3051L17.2401 21.2896L17.2806 21.2738L17.3209 21.2575L17.3609 21.241L17.4008 21.2239L17.4405 21.2066L17.4797 21.1889L17.5189 21.1708L17.5577 21.1524L17.5961 21.1336L17.6345 21.1145L17.6725 21.095L17.7103 21.0752L17.7478 21.055L17.785 21.0345L17.8219 21.0137L17.8586 20.9925L17.895 20.971L17.931 20.9491L17.9668 20.927L18.0023 20.9045L18.0375 20.8818L18.0725 20.8586L18.107 20.8353L18.1413 20.8115L18.1753 20.7875L18.2089 20.7633L18.2423 20.7386L18.2753 20.7138L18.3081 20.6886L18.3405 20.6631L18.3726 20.6374L18.4043 20.6114L18.4357 20.5852L18.4668 20.5586L18.4975 20.5318L18.528 20.5048L18.5581 20.4774L18.5878 20.4499L18.6171 20.4222L18.6462 20.3941L18.6749 20.3658L18.7033 20.3373L18.7313 20.3086L18.7589 20.2795L18.7862 20.2504L18.8133 20.2209L18.8397 20.1914L18.8661 20.1614L18.8919 20.1314L18.9173 20.1012L18.9426 20.0706L18.9673 20.0401L18.9917 20.0092L19.0158 19.9782L19.0394 19.947L19.0628 19.9156L19.0857 19.8842L19.1082 19.8523L19.1305 19.8204L19.1522 19.7885L19.1737 19.7562L19.1948 19.7238L19.2153 19.6914L19.2357 19.6587L19.2556 19.6259L19.2751 19.593L19.2943 19.5599L19.313 19.5267L19.3314 19.4934L19.3494 19.4599L19.367 19.4265L19.3842 19.3928L19.4011 19.359L19.4176 19.3252L19.4337 19.2911L19.4493 19.2571L19.4646 19.223L19.4795 19.1888L19.4941 19.1544L19.5081 19.1201L19.522 19.0854L19.5353 19.0511L19.5483 19.0162L19.5608 18.9819L19.573 18.947L19.5849 18.9122L19.5962 18.8774L19.6073 18.8426L19.6179 18.8078L19.6282 18.7726L19.638 18.7378L19.6476 18.7026L19.6566 18.6678L19.6653 18.6326L19.6737 18.5974L19.6816 18.5625L19.6891 18.5276L19.6963 18.4922L19.7031 18.4573L19.7095 18.422L19.7155 18.3871L19.7212 18.3521L19.7265 18.317L19.7313 18.2818L19.7358 18.2468L19.74 18.2119L19.7437 18.1771L19.7471 18.142L19.7501 18.1072L19.7528 18.0723L19.755 18.0375L19.7569 18.0028L19.7585 17.9682L19.7596 17.9337L19.7604 17.899L19.7609 17.8643L19.7609 17.83L19.7606 17.7957L19.76 17.7614L19.7589 17.7273L19.7576 17.693L19.7558 17.6593L19.7537 17.6249L19.7513 17.5914L19.7485 17.5577L19.7454 17.5238L19.7419 17.4902L19.7381 17.457L19.7339 17.4234L19.7294 17.3904L19.7245 17.3572L19.7194 17.3245L19.7138 17.2914L19.708 17.2586L19.7018 17.2262L19.6953 17.1938L19.6885 17.1613L19.6813 17.1292L19.6738 17.0971L19.666 17.0653L19.6579 17.0337L19.6493 17.0018L19.6407 16.9706L19.6316 16.9391L19.6222 16.9082L19.6125 16.8772L19.6025 16.8465L19.5922 16.8158L19.5816 16.7853L19.5708 16.7552L19.5596 16.7252L19.5481 16.6951L19.5363 16.6655L19.5242 16.6358L19.512 16.6067L19.4993 16.5774L19.4865 16.5485L19.4733 16.5198L19.4598 16.4912L19.4461 16.4629L19.4321 16.4347L19.4179 16.4067L19.4034 16.379L19.3886 16.3515L19.3737 16.3242L19.3584 16.2971L19.3428 16.2702L19.3271 16.2436L19.3111 16.2172L19.2948 16.1909L19.2783 16.165L19.2616 16.1393L19.2446 16.1138L19.2274 16.0884L19.2101 16.0634L19.1924 16.0386L19.1745 16.014L19.1565 15.9897L19.1381 15.9656L19.1197 15.9418L19.1009 15.9181L19.0821 15.8948L19.0629 15.8717L19.0437 15.8488L19.0241 15.8262L19.0045 15.8038L18.9846 15.7818L18.9645 15.7599L18.9443 15.7382L18.9239 15.717L18.9033 15.6959L18.8825 15.675L18.8616 15.6546L18.8405 15.6343L18.8193 15.6143L18.7977 15.5945L18.7762 15.575L18.7545 15.5558L18.7326 15.5369L18.7105 15.5182L18.6884 15.4998L18.6661 15.4817L18.6437 15.4638L18.6211 15.4462L18.5984 15.4289L18.5756 15.4119L18.5526 15.3951L18.5295 15.3786L18.5064 15.3625L18.4831 15.3465L18.4597 15.3309L18.4362 15.3155L18.4125 15.3004L18.3889 15.2856L18.365 15.271L18.3412 15.2568L18.3173 15.2429L18.2932 15.2292L18.2689 15.2158L18.2448 15.2026L18.2205 15.1898L18.1961 15.1772L18.1718 15.165L18.1472 15.1529L18.1227 15.1412L18.0981 15.1298L18.0734 15.1186L18.0487 15.1078L18.0238 15.0971L17.9992 15.0869L17.9742 15.0769L17.9493 15.0671L17.9244 15.0577L17.8994 15.0485L17.8745 15.0396L17.8494 15.031L17.8244 15.0226L17.7994 15.0146L17.7743 15.0067L17.7492 14.9992L17.7242 14.992L17.6989 14.985L17.674 14.9784L17.6489 14.972L17.6237 14.9658L17.5986 14.96L17.5736 14.9544L17.5485 14.9491L17.5234 14.9441L17.4985 14.9393L17.4735 14.9348L17.4484 14.9306L17.4236 14.9266L17.3985 14.923L17.3737 14.9195L17.3488 14.9163L17.324 14.9134L17.2993 14.9108L17.2745 14.9085L17.2499 14.9063L17.2253 14.9045L17.2007 14.9029L17.1761 14.9015L17.1517 14.9005L17.1274 14.8997L17.103 14.899L17.0788 14.8987L17.0545 14.8986L17.0305 14.8989L17.0064 14.8993L16.9825 14.8999L16.9585 14.9009L16.9349 14.902L16.911 14.9034L16.8875 14.905L16.864 14.9069L16.8405 14.909L16.8173 14.9114L16.7939 14.9139L16.7709 14.9167L16.7478 14.9198L16.7249 14.923L16.7021 14.9266L16.6794 14.9302L16.6568 14.9342L16.6345 14.9383L16.612 14.9427L16.5898 14.9473L16.5677 14.9521L16.5457 14.9571Z" fill="#475569"/>
</svg>
