<svg width="44" height="41" viewBox="0 0 44 41" fill="none" xmlns="http://www.w3.org/2000/svg">
<path fill-rule="evenodd" clip-rule="evenodd" d="M24.6046 1.22414C23.1108 -0.268991 20.6895 -0.268501 19.1964 1.22525L6.73505 13.6917L6.72443 13.6886L6.68505 13.6928C6.70127 13.7006 6.71719 13.7083 6.73279 13.7161C4.54681 13.9451 3.61933 14.602 3.60883 15.4456C3.61253 15.7594 3.74128 16.0983 3.97777 16.4501L3.9664 16.4615C5.95368 19.4588 15.7986 23.4127 22.7636 20.7338C17.5436 23.3438 5.25025 23.8611 1.6395 18.7935C0.855356 19.6418 0.527276 20.7566 0.650826 21.8279C1.60469 27.0853 12.2689 28.5196 22.9332 20.9023L25.2409 23.21C22.3693 26.1602 18.1276 43.2967 24.4303 40.6803C24.5798 40.5788 24.7067 40.488 24.8793 40.3574L25.1602 40.0922C25.144 40.0962 25.1279 40.1 25.1119 40.1038L41.9919 24.1681C43.5592 22.6884 43.5947 20.2065 42.0702 18.6826L24.6046 1.22414ZM22.7664 6.41743L23.3433 4.10974L23.9202 6.41743L25.651 6.99436L23.9202 7.5713L23.3433 9.879L22.7664 7.5713L21.0356 6.99436L22.7664 6.41743ZM15.6255 13.9508L16.0101 12.4123L16.3947 13.9508L17.5486 14.3354L16.3947 14.72L16.0101 16.2585L15.6255 14.72L14.4717 14.3354L15.6255 13.9508ZM29.0211 26.9277L28.6365 28.4661L27.4827 28.8508L28.6365 29.2354L29.0211 30.7738L29.4057 29.2354L30.5596 28.8508L29.4057 28.4661L29.0211 26.9277Z" fill="#4F46E5"/>
</svg>
